<?xml version="1.0" standalone="no"?>
<!DOCTYPE svg PUBLIC "-//W3C//DTD SVG 1.1//EN" "http://www.w3.org/Graphics/SVG/1.1/DTD/svg11.dtd" >
<svg xmlns="http://www.w3.org/2000/svg">
<metadata></metadata>
<defs>
<font id="skinny_jeansregular" horiz-adv-x="1220" >
<font-face units-per-em="2048" ascent="1536" descent="-512" />
<missing-glyph horiz-adv-x="591" />
<glyph horiz-adv-x="2048" />
<glyph horiz-adv-x="2048" />
<glyph unicode="&#xd;" horiz-adv-x="2048" />
<glyph unicode=" "  horiz-adv-x="591" />
<glyph unicode="&#x09;" horiz-adv-x="591" />
<glyph unicode="&#xa0;" horiz-adv-x="591" />
<glyph unicode="!" horiz-adv-x="339" d="M37 39q0 -10 8 -19.5t16 -11.5q45 2 93.5 -2t93.5 0q8 0 13 6t7 26.5t1 59.5t-5 107q-4 12 -36.5 19t-71.5 9.5t-72 0t-35 -6.5q-2 -47 -6 -94t-6 -94zM49 1733q0 10 8.5 19t16.5 11q45 -2 93 2t93 0q16 -2 20.5 -12t-4.5 -20l-28 -1383q-4 -10 -28.5 -14t-54.5 -3 t-56.5 4t-34.5 7q0 12 -1 74.5t-3 159t-4.5 216t-4.5 244.5t-4 245t-4 216t-3 158.5t-1 75.5zM70 43q2 35 9 73.5t9 73.5q33 -2 67.5 -5t67.5 -5l6 -137q-35 -4 -80 0t-79 0zM82 1729q0 -8 2 -69t4 -155t4 -210.5t5 -238.5t5 -240t4.5 -211t4.5 -154.5t2 -69.5q33 2 47 -3 t47 -3l35 1354q-35 4 -80 -0.5t-80 0.5z" />
<glyph unicode="&#x22;" horiz-adv-x="518" d="M12 1733q0 10 8.5 19t16.5 11q45 -2 80 2t80 0q16 -2 20 -12t-4 -20l-16 -381q-4 -10 -27 -15.5t-50.5 -5.5t-52 2t-30.5 6q0 23 -4 79.5t-8.5 117.5t-8.5 117.5t-4 79.5zM45 1729q0 -16 5 -67.5t10.5 -109t10.5 -108t5 -68.5h24.5h15.5h15h25l22 353q-35 4 -66.5 -0.5 t-66.5 0.5zM258 1737q0 10 8.5 19t16.5 11q8 0 35.5 2.5t56 0t53.5 -8.5t31 -24q-8 -150 -14.5 -232t-12.5 -119.5t-11 -43t-9 -3.5q-29 -4 -43.5 -1t-46.5 1q-16 -4 -26.5 19.5t-18 62.5t-10.5 87t-5 93.5t-3 82t-1 53.5zM291 1733q0 -16 5 -67.5t10 -109t10.5 -108 t5.5 -68.5h24h15.5h15.5h24l23 353q-35 4 -66.5 0t-66.5 0z" />
<glyph unicode="#" horiz-adv-x="1216" d="M2 479l2 207q59 -4 138 -19.5t157 -15.5q2 35 2 70v70h-135.5t-138.5 2q-10 10 -14.5 12t-10.5 26l2 207q2 6 45 -1t95.5 -16t99.5 -16.5t59 -0.5l6 268q10 10 13.5 14t25.5 10l207 -4q4 -23 -4 -61.5t-17.5 -82.5t-16.5 -85t1 -66h137l7 271q-4 6 10 14t28 10l207 -6 q4 -18 -1 -65t-13 -94.5t-15 -84.5l-8 -38q29 0 75 -1.5t90 -1.5t78 1.5t38 3.5v-40t-2 -64t-4 -61.5t-6 -33.5q0 -12 -19 -16h-260v-140q98 10 154.5 15.5t86 5.5t39 -5t11.5 -14v-39.5t-2 -63.5t-4 -61.5t-6 -33.5q0 -12 -19 -17h-260q0 -37 1 -78t2 -80.5t1 -75.5t-4 -63 h-39.5t-63.5 2t-61.5 5.5t-33.5 7.5q-12 0 -17 18q2 66 3 132.5t1 131.5h-141q-2 -37 -1 -76.5t3 -79.5t2 -75t-4 -62q-57 0 -97 6.5t-96 6.5q-18 0 -22 20q2 66 3 130.5t1 129.5h-133.5t-132.5 2q-16 4 -19.5 11.5t-9.5 27.5zM43 481q25 0 67 -1t88 -2t85 -3t57 -4 q-4 -68 -3 -136.5t-3 -135.5q41 0 67.5 -4.5t67.5 -8.5l2 287q10 0 23.5 1t37 2t61.5 2t97 1q-2 -70 -2 -140.5t-2 -143.5q41 -2 67.5 -5.5t67.5 -7.5q0 100 1 156.5t1 86.5v40v16l277 -2q0 41 3 67.5t7 67.5q-63 0 -132 -1t-171 -3q2 -2 4 26t4 65.5t3 75.5t3 57 q4 0 13.5 1t37 1t81 -1t147.5 -4q0 41 3 68t7 68h-67.5h-78.5t-79 -2t-66 -4q0 6 1 14t5 36.5t12.5 83t22.5 152.5l-158 4l-4 -288q-10 0 -46 -2.5t-75.5 -3.5t-73.5 -2t-40 1q0 4 1 13.5t5 38t13.5 86t25.5 157.5l-158 4l-6 -297q-4 0 -12 1.5t-38 4.5t-87 9t-162 18 l-2 -157h66t85 -1.5t83.5 -1.5t64.5 3v-3h4q0 -12 -3 -27.5t-6 -40t-5 -62t-2 -97.5q-84 4 -161 10.5t-124 24.5zM459 831h8v7l219 -7l-2 -229h-11h-28.5t-61.5 1t-112 3q2 47 -4 97.5t-8 127.5zM508 645h143q2 37 2 74v72h-145v-146z" />
<glyph unicode="$" horiz-adv-x="1075" d="M8 455q-4 18 13.5 42.5t43 45t54 34t49.5 11.5q20 -20 41.5 -42t47.5 -38t57.5 -26.5t74.5 -8.5v328q-59 14 -114.5 35.5t-110.5 62.5q-68 41 -98.5 97.5t-30.5 115.5t26.5 118.5t72.5 109t109.5 83t135.5 41.5q2 100 -4 177t2 128q10 0 43 2.5t69.5 0t67.5 -8.5t35 -22 v-258q63 -4 125.5 -21.5t118 -49.5t99.5 -79t71 -114q-2 -18 -28 -37t-54.5 -32t-51 -18.5t-18.5 3.5q-8 14 -35.5 37.5t-65.5 47t-81 41t-80 23.5q2 -72 2 -147.5v-153.5q137 -25 226 -82t131 -130t38 -151.5t-49 -147.5t-132 -118t-210 -61v-88t-1 -89t-3 -76t-4 -46 l-215 -4q-4 20 -3 64t4 90t6 84t1 51q-66 2 -117 7t-94 23.5t-83 52.5t-81 93zM61 477q-2 0 8.5 -26.5t47.5 -57.5t108.5 -58.5t192.5 -31.5q0 -33 -1 -75t-2 -82t-2 -70.5t-3 -42.5l149 -4l-4 295q115 2 201 43t135 104.5t57 138t-30.5 143t-128 123t-234.5 74.5h2 q-8 90 -5 175t-3 190h2q39 6 86 -4.5t91 -30.5t82 -48t62 -54q25 6 56 21.5t41 31.5q-72 104 -180.5 163.5t-237.5 43.5h-4q2 6 2 15v37v81t2 149q-41 0 -67.5 3t-67.5 6v-302q-66 -2 -126.5 -26.5t-108.5 -65.5t-77.5 -93t-29.5 -107q0 -47 14 -84t43 -72q53 -61 124 -94 t181 -58q0 2 -1 -12t-2 -57t-2 -121t-1 -201q-37 -4 -77 -2t-76.5 14.5t-66.5 36t-44 62.5l-4 4h-2q-16 -10 -33 -23q-14 -10 -31.5 -23t-34.5 -28zM233 1104q-8 84 47.5 135t133.5 64q10 -78 10 -158t4 -166q-29 4 -59.5 11t-58 21.5t-48.5 36t-29 56.5zM274 1110 q0 -27 37 -47.5t76 -36.5l-4 225q-47 -23 -79 -58.5t-30 -82.5zM561 726q2 85 0 75q37 8 77 -2.5t76 -35t60.5 -59t28.5 -77.5q2 -49 -22.5 -79t-62.5 -48.5t-79 -31t-70 -26.5q-10 199 -8 284zM596 766q2 -70 2 -137.5v-132.5q86 22 131 67q31 31 27 71t-29 72.5t-61.5 51 t-69.5 8.5z" />
<glyph unicode="%" horiz-adv-x="1712" d="M4 1248q-6 83 27.5 166t103.5 142q63 51 142 72t159 15.5t151.5 -35t121 -79.5t66 -119t-12.5 -153q-25 -72 -83 -138t-135 -109t-167 -54.5t-180 25.5q-92 39 -139.5 111.5t-53.5 155.5zM46 1256.5q5 -72.5 46 -137t121 -101.5q70 -33 150.5 -25t153.5 45t128.5 97.5 t75.5 132.5q23 80 5.5 142.5t-63 106.5t-108.5 67.5t-133 26.5t-138.5 -17.5t-119.5 -65.5q-63 -55 -93 -127t-25 -144.5zM154.5 1260q-13.5 43 3.5 81q18 45 34.5 71t39 41t51 23.5t71.5 16.5h6q47 0 100.5 -17.5t89.5 -50t44 -80t-37 -104.5q-23 -29 -44 -47t-45 -30.5 t-52.5 -21.5t-63.5 -20q-41 -12 -83 6.5t-71.5 53.5t-43 78zM194.5 1314q-1.5 -42 16.5 -77t54 -57.5t81 -18.5q59 6 102.5 34t66 62.5t25.5 73.5t-15.5 69t-59 45t-103.5 5q-10 -4 -12 0q-41 -6 -67.5 -13t-57.5 -46q-29 -35 -30.5 -77zM268 90q-2 0 0 2v10l2 4 q41 80 111 210t153.5 285t173 322t173.5 321.5t152.5 284.5t111.5 212q10 10 37.5 4t59.5 -19.5t61.5 -31t46.5 -27.5q-31 -63 -94.5 -178t-142.5 -257t-165 -300t-164.5 -304.5t-141 -268t-93.5 -195.5q-23 -53 -41.5 -104.5t-32.5 -92.5l-192 109q-2 0 -10.5 5t-4.5 9z M311 98l142 -71q4 35 19 77.5t34.5 85.5t39 80t32.5 60q29 55 84 158.5t125.5 232.5t147.5 269t147.5 268t128 231.5t85.5 159.5q-37 16 -62.5 25t-62.5 30q-41 -78 -108.5 -206t-149.5 -280.5t-171 -316.5t-171 -316.5t-150.5 -280.5t-109.5 -206zM833.5 392 q-6.5 83 27.5 166t104 142q63 51 142 72t159 15.5t151.5 -35t120.5 -79.5t65.5 -119t-12.5 -153q-25 -72 -83 -138t-135 -109t-167 -54.5t-180 25.5q-92 39 -139 111.5t-53.5 155.5zM875.5 400.5q5.5 -72.5 46.5 -137t120 -101.5q70 -33 151 -25t153.5 45t128 97.5 t75.5 132.5q23 80 5.5 142t-62.5 106.5t-108.5 68t-133 26.5t-138.5 -17.5t-120 -65.5q-63 -55 -93 -127t-24.5 -144.5zM984 403q-13 43 3 82q18 45 34.5 71t39 41t53.5 23.5t76 16.5q2 0 3 1t3 1q57 2 108.5 -18.5t83 -56.5t34.5 -83t-36 -96q-23 -29 -44 -47.5 t-44.5 -30.5t-52 -21.5t-63.5 -19.5q-41 -12 -83 6.5t-72 53t-43 77.5zM1024 458q-2 -42 16.5 -77t54 -57.5t81.5 -18.5q59 6 102 34t65.5 62.5t25.5 73.5t-15.5 68.5t-58.5 45t-103 5.5q-10 -4 -12 0q-41 -6 -68 -13.5t-57 -45.5q-29 -35 -31 -77z" />
<glyph unicode="&#x26;" horiz-adv-x="1984" d="M13.5 868q-11.5 82 12 162t93.5 148q49 47 108.5 73.5t125 37.5t133 10t128.5 -11q78 -12 147.5 -49t130 -87t110 -112.5t88.5 -128.5l2 441q-2 2 29.5 3t69.5 1h69.5t29.5 0t0 -60.5t5 -157t8.5 -218t9.5 -244.5l8 4q63 29 118.5 51.5t107.5 49t103.5 62.5t104.5 89l8 4 q18 16 33 -8l123 -168q12 -29 -16 -33q-41 -37 -113 -77t-155 -75.5t-167 -66.5t-147 -51q0 -20 1 -39t1 -37q2 -25 4 -67t3 -87t1 -87v-68q6 -16 -4 -27v-14q-16 -4 -55 -6t-79 -1t-71.5 2t-31.5 3q0 68 2 119t1 93t-6.5 77.5t-19.5 74.5q-94 -18 -189.5 -27.5t-189.5 -3.5 q-68 4 -109.5 10.5t-78.5 16.5t-77 26.5t-101 39.5q-43 16 -81 45.5t-71 64.5q-61 63 -103 142t-53.5 161zM59.5 836.5q24.5 -121.5 139.5 -240.5q31 -33 67.5 -58.5t75.5 -48.5q80 -41 169 -61t177 -25q92 -4 184.5 4.5t182.5 26.5q14 2 20 4t7 2h1l7 2q12 -31 29.5 -121 t10.5 -253q25 6 72 2t80 0q0 -2 0 4t2 12l-4 385v12q61 23 143 52.5t164 63.5t156 72t119 74v3q-6 14 2 22q-6 14 -17 29q-16 23 -38.5 44t-39.5 46q-57 -49 -112 -88t-113.5 -71t-123 -57t-140.5 -48q-4 104 -8 225t-6 224.5t-4 170t-5 62.5q-33 -8 -61.5 -2t-65.5 14 l3 -516l-3 4v-6q-51 76 -112.5 154.5t-135 144t-162.5 110.5t-196 52q-164 10 -277.5 -48.5t-162.5 -157t-24.5 -220zM217 973q49 92 131 126t171 23.5t174 -55.5t143 -113q31 -33 67.5 -80t72.5 -100t68 -106.5t50 -98.5q-66 -27 -165.5 -33t-206 9.5t-209.5 50.5t-178 89 t-111 126t-7 162zM248 928q-20 -47 9.5 -98.5t93 -98.5t150.5 -85t181 -58.5t186.5 -20.5t165.5 33q-12 25 -35.5 62.5t-49 77.5t-51.5 77t-42 60q-25 35 -71 73.5t-102 70.5t-118.5 50.5t-121 12t-109.5 -42t-86 -113.5z" />
<glyph unicode="'" horiz-adv-x="258" d="M12 1733q0 10 8.5 19t16.5 11q45 -2 80 2t80 0q16 -2 20 -12t-4 -20l-16 -381q-4 -10 -27 -15.5t-50.5 -5.5t-52 2t-30.5 6q0 23 -4 79.5t-8.5 117.5t-8.5 117.5t-4 79.5zM45 1729q0 -16 5 -67.5t10.5 -109t10.5 -108t5 -68.5h24.5h15.5h15h25l22 353q-35 4 -66.5 -0.5 t-66.5 0.5z" />
<glyph unicode="(" horiz-adv-x="724" d="M12.5 651q-26.5 219 22.5 457q33 154 94 295t140 252.5t170 185.5t186 94q0 -2 12 -29.5t29.5 -61.5t33 -63.5t19.5 -35.5q-94 -35 -174 -107.5t-141.5 -173t-104.5 -220.5t-63.5 -248t-17.5 -258t32 -247.5t86 -218t145 -170.5q57 -45 110.5 -74.5t127.5 -47.5l-11 -20 q-12 -21 -28 -51t-34.5 -61.5t-35.5 -54.5q-154 45 -281.5 167t-208.5 297t-107.5 394zM42 784.5q5 -133.5 32.5 -257.5t76 -234.5t115 -200.5t149.5 -153.5t181 -90.5q20 25 40.5 51.5t33.5 55.5q-68 23 -129.5 54.5t-87.5 66.5q-92 66 -154.5 182.5t-95.5 255.5t-34 287.5 t30 281.5q25 102 71.5 210t108 203t134.5 168t153 103q-10 25 -31 59t-37 62q-86 -37 -172 -114.5t-159.5 -187t-129 -246.5t-80.5 -291q-20 -131 -15 -264.5z" />
<glyph unicode=")" horiz-adv-x="772" d="M-2 -20q74 18 127 47.5t111 74.5q88 70 145 170.5t86 218t32 247.5t-17.5 258t-63.5 248t-104.5 220.5t-141.5 173t-174 107.5q4 6 19.5 35.5t32 63.5t29.5 61.5t13 29.5q94 -20 185.5 -94t170 -185.5t139 -252.5t95.5 -295q49 -238 22.5 -457t-107.5 -394t-209 -297 t-282 -167q-16 23 -34.5 54.5t-35 61.5t-22.5 40zM47 -45q12 -29 32.5 -55.5t41.5 -51.5q96 27 180 90.5t150.5 153.5t114.5 200.5t76 234.5t32.5 257.5t-15.5 264.5q-25 154 -80 291t-128.5 246.5t-159.5 187t-172 114.5q-16 -29 -37 -62.5t-31 -58.5q80 -31 152.5 -103.5 t134 -167.5t109 -202.5t71.5 -210.5q31 -133 30 -281.5t-34 -287.5t-95.5 -256t-154.5 -182q-27 -35 -88 -67t-129 -54z" />
<glyph unicode="*" horiz-adv-x="1468" d="M4 733q0 39 2 69l2 29q2 0 50 -2t119 -5t152 -5t148 -2q-43 41 -98 87t-106.5 87t-85 70t-33.5 33q0 6 -1 8t13 16.5t51 46t109 99.5q14 -20 41.5 -53t63.5 -71t76 -79t77 -78q-2 61 -5.5 130t-5.5 129.5t-2 101t4 45.5q4 4 5.5 6t22 2t68.5 -2t146 -4q-4 -27 -6 -75 t-3 -106.5t-1 -121t2 -115.5l319 315q0 2 23 -20.5t48.5 -50t48 -50t22.5 -20.5q-2 -2 -31 -32t-72 -75t-93 -97t-93 -97q51 0 112.5 1t120 1t110.5 1t87 1q2 2 2 -30v-70.5v-70.5t2 -30q-2 0 -49 -2t-116.5 -4t-147.5 -5t-141 -5l219 -219q61 -61 123 -125l-19 -21 q-18 -20 -42.5 -44.5t-47.5 -47t-31 -29.5q-86 61 -168 139.5t-159 155.5q0 -70 1 -144.5t3 -139.5q2 -76 2 -148q-49 -2 -90 -4q-35 -2 -67 -2t-42 2q-18 109 -23.5 226.5t-7.5 230.5q-47 -47 -85 -89t-74.5 -81t-75.5 -78t-84 -78q-14 8 -41 34t-53.5 54.5t-36.5 39.5 l-29 34q2 2 32 32.5t76 78t100 101.5t105 103q-63 0 -117.5 -3t-105.5 -6t-103 -4t-110 3q-4 14 -5 52t-1 77zM47 641q57 4 108.5 5t102.5 1t106.5 1t120.5 3q4 2 9.5 -3t10.5 -12t7 -13.5t0 -4.5q-45 -45 -101.5 -100t-105.5 -103t-83 -82t-32 -36q23 -23 51.5 -54.5 t53.5 -54.5q12 16 29.5 36t51.5 53.5t91 90t147 148.5q0 10 20.5 5t20.5 -9q0 -51 1 -111.5t3.5 -122t6.5 -121t10 -108.5q18 -2 59 2t72 -4q0 8 -1 54t-4 112t-6 139.5t-5 139.5l6 4q6 4 14 8t15.5 5t9.5 -5q37 -35 77.5 -76t82.5 -82t83 -79t78 -66q14 12 41 42.5t55 47.5 q-6 8 -45 45t-93 88t-113.5 106.5t-104.5 100.5q2 0 5 8t7 17.5t7.5 14.5t7.5 1q63 4 139 8t143.5 7t115.5 5t56 2q-8 33 -8 56.5t8 60.5l-438 -6q-2 -2 -5 4t-6 14t-5 15.5t2 7.5q43 45 91 97t89 97t70.5 76t35.5 37q-29 18 -44 34.5t-35 49.5l-322 -317q-2 -2 -7 1 t-12.5 7t-12.5 8t-7 2q-2 59 -3 130t-3 132q-2 72 -2 143q0 2 -14.5 1t-37 -1t-48 2.5t-48.5 8.5v-45t2.5 -106.5t3.5 -135.5t3 -131q-4 -4 -20.5 -6t-20.5 0q-43 41 -90.5 88t-85.5 86l-89 88l-9 -9l-23.5 -23.5t-34 -31t-39.5 -26.5q0 -2 37 -31t89 -71t109.5 -91 t100.5 -92q-2 0 -4 -7t-5 -15.5t-7.5 -15.5t-8.5 -5q-66 0 -147.5 3t-154 7t-123 6.5t-52.5 0.5q4 -31 0 -74t0 -76z" />
<glyph unicode="+" horiz-adv-x="880" d="M0 659.5q0 20.5 1 68.5t3 146q39 -6 92.5 -9t100.5 -3t80.5 2t33.5 8q-4 2 -4 28v68t1 95t-1 113q-2 2 29 2h69.5h70.5t30 2q0 -2 2 -28t4 -62.5t4 -77.5t4 -74t4 -51.5t4 -7.5q0 -2 48.5 -1t105.5 1q68 0 152 2l2 -31t3 -70t1 -75.5v-45.5q-6 -10 -51.5 -13t-98.5 -3 t-102 2t-64 2q2 -31 6.5 -70.5t7.5 -82.5t3 -85t-2 -75q-16 -4 -53 -6t-76 -2t-69 1t-30 3v27.5v66.5t1 96.5t5 116.5q-12 4 -60 2t-101.5 -5t-97.5 -5t-50 4q-4 4 -6 5t-2 21.5zM43 682h25.5t58.5 1t74 2t71.5 1h53.5h22q4 0 5 -23.5t0 -58.5t-2 -76t-2 -75.5t-1 -58 t4 -25.5q25 6 72 2t80 0q-6 37 -7 77.5t-1 81.5v80t-2 72q0 6 17 5t54 -1t95.5 2t138.5 12q0 8 -1 26.5t-2 40t-1 42t4 37.5q-14 2 -63.5 -2t-103.5 -8.5t-96 -6.5t-42 2q-4 2 -7.5 45.5t-5.5 96.5t-4 101t-2 59q-6 2 -23.5 2h-39t-41 -1t-25.5 -1q2 -57 3 -110.5t1 -94.5 v-67v-30q2 -2 -43 -3t-102 -3q-68 -2 -154 -4l-1 -3q-1 -3 -2 -16.5t-2 -42t-3 -77.5z" />
<glyph unicode="," horiz-adv-x="276" d="M6 20q2 47 6 94.5t6 94.5q8 6 38 5t65 -5t66.5 -10t45.5 -13v-2q4 -20 6.5 -59t-0.5 -83t-13.5 -89t-30 -82t-50 -59.5t-73.5 -20.5q-6 0 -15.5 9.5t-16.5 22.5t-11 27.5t0 22.5q0 4 2 6l2 2q6 12 21.5 19.5t25.5 19.5q10 14 13 24.5t3 19.5t-3 17.5t-5 16.5 q-16 -2 -32.5 -4t-24.5 -4q-8 2 -16.5 11t-8.5 19zM39 31q8 0 23.5 1t28.5 2t22.5 2t7.5 1q6 -31 10 -52.5t-1 -39t-19.5 -34.5t-44.5 -40q4 -10 15 -24.5t19 -20.5q45 20 66.5 58t30 85t7.5 98.5t-1 98.5q-33 2 -76 4t-76 4q-2 -35 -6 -71.5t-6 -71.5z" />
<glyph unicode="-" horiz-adv-x="954" d="M-2 647q0 57 5 97t5 96q0 4 2 6q0 12 19 16q137 -2 232 -2h182h182.5t230.5 -2h4q4 -2 6 -2t4 -2l2 -2l5 -4q2 -4 2 -14l6 -15l-2 -180q-2 0 -42 1t-106.5 3t-153.5 3t-180.5 2t-186.5 0t-175 -3q-8 -16 -22.5 -16t-18.5 18zM39 686h145t173 -1t175 -3t155 -3t112 -2 l43 -1l2 141q-88 2 -157 2h-128h-112.5h-113h-128t-156.5 2q0 -41 -3 -67.5t-7 -67.5z" />
<glyph unicode="." horiz-adv-x="280" d="M11 150.5q-1 23.5 3 39.5q2 8 34 12.5t71 4.5t73.5 -6t40.5 -15v-180q-10 -4 -42.5 -8t-68.5 -3t-65.5 9t-33.5 29q-2 8 -4.5 27.5t-4.5 43t-3 47zM51 166q2 -41 2 -66.5v-64.5h144l2 131h-148z" />
<glyph unicode="/" horiz-adv-x="1097" d="M0 92q-2 0 2 8.5t28.5 53.5t78 145t151.5 282.5t250 465t373 694.5q10 10 37.5 4t59.5 -19.5t61.5 -31t45.5 -27.5q-31 -63 -94 -178t-142 -257t-165 -300t-165 -304.5t-141.5 -268t-92.5 -195.5q-23 -53 -41.5 -104.5t-32.5 -92.5zM49 98l141 -71q4 35 19.5 77.5 t35 85.5t39 80t31.5 60q27 55 83.5 158.5t127 232.5t147.5 269t147.5 268t128 231.5t85.5 159.5q-37 16 -62.5 25t-62.5 30q-41 -78 -108.5 -206t-149.5 -280.5t-171 -316.5t-171 -316.5t-150.5 -280.5t-109.5 -206z" />
<glyph unicode="0" horiz-adv-x="1544" d="M6.5 610.5q-22.5 137.5 5.5 315.5q33 205 116 340t190.5 215t228.5 111.5t233 29.5q82 -4 172 -26.5t177.5 -69.5t163 -121t126.5 -178.5t71.5 -242.5t-3.5 -314q-29 -203 -101.5 -336t-172 -212t-215 -109.5t-226.5 -26.5q-82 2 -178 24.5t-189.5 67.5t-178.5 116.5 t-141 175t-78.5 241zM41 864q-16 -147 9.5 -266t79.5 -211t131 -158.5t163 -110.5t175 -66.5t171 -26.5q66 0 137.5 12t143 40.5t139 80t122 129.5t91.5 187.5t51 256.5q20 219 -32 379t-150 264.5t-227.5 155.5t-264.5 53q-53 6 -123.5 -4t-147.5 -40t-153.5 -84t-141 -136 t-111 -194.5t-62.5 -260.5zM163 716.5q-11 98.5 11 215.5q27 135 88.5 233.5t143 163t178 96t194.5 31.5q121 -4 232.5 -51t192.5 -139t121 -230.5t19 -322.5q-23 -133 -79 -239.5t-133.5 -180.5t-171 -114t-189.5 -40q-18 0 -56 4t-82 14.5t-88 28t-71 45.5 q-86 68 -152.5 141.5t-106.5 159.5t-51 184.5zM196.5 712q18.5 -128 92 -248t211.5 -208q39 -25 71.5 -39t63.5 -21.5t62.5 -9.5t72.5 -4q86 -2 171 37t163 111q111 102 164 236t50 273.5t-63.5 267.5t-177.5 218q-68 51 -150.5 66.5t-164.5 17.5q-141 0 -255 -61.5 t-188.5 -159.5t-107.5 -223t-14.5 -253z" />
<glyph unicode="1" horiz-adv-x="688" d="M-6 1370q14 14 59 51t95.5 76t91.5 69.5t45 30.5q29 4 76 5.5t104 1.5q6 -68 8 -174.5t0 -233.5t-5 -265t-5 -269.5t-1 -247t9 -197.5q29 2 58.5 3t64.5 -3q8 4 17.5 1t13.5 -17q0 -45 3 -92.5t3 -90.5q-4 -10 -12.5 -13t-24.5 -7q-125 0 -247 1t-245 -3q-10 4 -12 10 t-8 12q-4 8 -7 29t-5 43.5t-3 45t-4 36.5q0 10 14.5 24.5t24.5 18.5h152q2 117 3 257t4 286.5t7 291t13 269.5q2 -2 -14.5 -15.5t-40 -30t-48.5 -30.5t-39 -18q-16 -16 -37 -6q-8 6 -27.5 25.5t-40 43t-33.5 47t-7 35.5zM39 1360q14 -29 36.5 -56.5t45.5 -46.5 q14 6 40.5 23.5t52.5 36t44 32t16 11.5q14 16 29.5 4t9.5 -41q-10 -137 -12 -291.5t-2 -308.5t-2 -295t-14 -254h-179q4 -37 6.5 -69.5t12.5 -67.5q119 4 234.5 3t232.5 -1q-2 33 -4 69.5t-2 71.5h-2q-31 0 -71 -1t-71 -5q-6 12 -8 85t-1 185.5t3 254t4 292t2 299t-2 275.5 h-33.5t-44 -1t-43 -4.5t-28.5 -9.5q-2 2 -31 -18.5t-66.5 -51t-79.5 -63.5t-73 -57z" />
<glyph unicode="2" horiz-adv-x="1169" d="M16.5 92q-0.5 37 0.5 66.5t3.5 48t-0.5 22.5q-2 29 38 71t106.5 93t150.5 111.5t170 128t166 142.5t136.5 154t82 162t2.5 166q-37 61 -101 86t-139 24t-155 -21.5t-150.5 -47t-124.5 -53.5t-79 -41q-6 6 -20.5 37t-30 64.5t-29.5 62.5t-20 33q68 45 170 94t213.5 81 t221 37t193.5 -40q139 -68 204 -153t73 -180t-32 -196.5t-110.5 -201t-162 -193.5t-184.5 -177t-181 -148.5t-152 -108.5q193 2 382.5 10t381.5 11q25 -4 21 -23q4 -10 8 -38t6 -59.5t1 -60t-5 -37.5q-4 -12 -13 -16t-20 2q-254 -10 -497.5 -7t-497.5 3q-2 0 -2 2 q-12 0 -16 14q-8 39 -8.5 76zM59 242q8 -57 3 -104.5t1 -96.5q248 6 483.5 -1t483.5 5q0 39 3 73t3 72v5q-199 -2 -393 -10.5t-393 -10.5q-10 -2 -25.5 2t-27 11.5t-14.5 14.5t16 13q4 0 65.5 41t152.5 110.5t197.5 163t200.5 199t160.5 217t79 218t-44 202.5t-209.5 170 q-55 27 -139 30t-182.5 -14.5t-203 -56.5t-200.5 -96q6 -16 15 -39t18.5 -43.5t18.5 -33.5t17 -9q55 31 130 57.5t154 45t158 25.5t145.5 -3t114.5 -41t64 -86q27 -84 6.5 -167t-75 -165t-133 -158.5t-164.5 -147.5t-172 -133.5t-154.5 -112.5t-113 -88t-46.5 -58z" />
<glyph unicode="3" horiz-adv-x="1024" d="M18 193q2 18 21.5 48.5t44.5 59.5t46.5 48.5t27.5 12.5q78 -82 182 -123.5t198.5 -35.5t162 62.5t71.5 168.5q4 53 -17.5 92t-59.5 67t-86 45t-95 27.5t-87 15.5t-62 7q0 23 -12.5 53.5t-21.5 59t-9 51.5t20 29q137 47 217 123.5t107.5 154.5t5 145.5t-92 96.5t-184 6 t-270.5 -121q-10 -6 -24.5 14.5t-28 50t-24.5 58.5t-13 39q98 94 205.5 135t210 39t193.5 -40t155.5 -101.5t95.5 -144.5t14.5 -168t-87 -174t-212.5 -163q25 -4 64 -12t84 -24.5t89 -44t77.5 -72.5t53 -109.5t13.5 -154.5q-4 -49 -23.5 -103.5t-50 -103.5t-67.5 -88 t-74 -58q-53 -27 -109.5 -42t-115.5 -17q-57 -2 -135 10.5t-155 36t-143.5 60t-99.5 84.5zM63 201q2 -2 5 -2q35 -39 92 -69t125.5 -49.5t142.5 -27.5t144.5 -3t131 23.5t103.5 53.5q63 49 98 127t41 160q18 102 -6.5 168.5t-79.5 110.5t-136 73t-173 53q-6 2 -10 11.5 t6 13.5q184 82 258 187.5t66.5 208.5t-81 188t-187.5 124t-252 18.5t-273 -130.5q16 -16 26.5 -43t26.5 -49q166 82 288 96t196.5 -19.5t99 -103.5t-3 -154t-108.5 -169.5t-218 -153.5q-14 -6 -15 -17.5t4 -26t14 -31.5t13 -36q10 -6 45 -12t82 -17.5t97.5 -30t93.5 -48 t69.5 -72.5t24.5 -104q-4 -104 -46 -165t-105.5 -87.5t-140.5 -25.5t-149.5 19.5t-134 50t-94.5 66.5q-20 -20 -43.5 -50t-36.5 -56z" />
<glyph unicode="4" horiz-adv-x="1005" d="M-3 755.5q-1 10.5 15 20.5q-2 0 23.5 35t66.5 91t95.5 130t111 149.5t110.5 149.5t97 131.5t68.5 94t25.5 38.5q0 10 10.5 12.5t16.5 4.5q10 0 44 1t70.5 0t66.5 -8.5t34 -21.5l4 -643q20 4 49 7t47 5q16 -2 27 -28q0 -47 3 -91.5t3 -91.5q-4 -12 -19.5 -15t-35 -2t-39 5 t-31.5 4q6 -172 10 -289.5t7.5 -196.5t4.5 -122t0 -64.5t-3 -28.5t-5 -9q-14 -6 -43.5 -14.5t-60.5 -10.5t-57.5 4t-36.5 25q0 100 -3 185t-5 165t-5.5 164t-3.5 184h-593q-12 -2 -29 2t-28 11t-12 17.5zM45 764q98 -2 177 -1t153 2t151.5 1t173.5 -6q0 -102 3.5 -189.5 t5.5 -170.5t5 -169t3 -188q49 0 67.5 1t49.5 7l-15 699q-6 6 3 14t16 10q23 0 53.5 -2t52.5 -2q-2 35 -4 69.5t-2 69.5l-100 -10q-4 0 -4 2h-17l-6 662q-49 4 -83 8t-83 0q-2 0 -28.5 -36t-68.5 -92.5t-96.5 -129t-109.5 -148.5q-131 -176 -297 -401zM262 883l383 514 q16 12 29 -4q6 -2 8 -30t2 -73v-99t1 -107.5t2 -100.5t5 -74q-2 -10 -10 -18t-18 -8q-47 0 -116 -3t-132.5 -6.5t-108.5 -2.5t-45 12zM319 901q31 4 73 8t87 7.5t90 5.5t82 2q-2 27 -5 85t-4 121.5t-1 122t4 88.5z" />
<glyph unicode="5" horiz-adv-x="1120" d="M10.5 146.5q1.5 29.5 16 63.5t36 60.5t43.5 22.5q27 -20 90.5 -34.5t141.5 -18.5t162 6t154.5 41.5t117.5 87t51 143.5q4 82 -35.5 138.5t-106.5 91t-152 50t-171 16.5t-165.5 -10t-135.5 -30q0 53 3 164t5.5 235.5t2 240t-6.5 181.5q0 2 64.5 4.5t161 3.5t208 1h208 t162 -1t67.5 -1q0 -43 2 -85t4 -85q-4 -10 -13.5 -23.5t-21.5 -17.5h-98.5t-132 -1t-143 -2.5t-133 -1.5h-99.5h-41q2 -37 4 -88t3 -105t1 -102.5t-2 -78.5q225 53 383 17t253 -124t130 -211t13.5 -242.5t-98.5 -220t-204 -143.5q-123 -41 -212 -52t-167.5 -3t-156.5 30.5 t-176 47.5q-18 6 -16.5 35.5zM43 147q115 -41 226.5 -62.5t214 -18t193.5 35t165 99.5q96 88 135 192.5t26.5 206.5t-73 191.5t-159.5 144.5t-236.5 67.5t-303.5 -40.5q2 14 1 53t-3 90t-4 107.5t-4 103.5t-2 78.5t4 34.5q2 4 19.5 5t83 0t199.5 -2t372 -1q-2 35 -4 68.5 t-2 68.5q-4 0 -24.5 -1t-97.5 -2t-233.5 -3t-433.5 -2q2 -84 3 -179.5t1 -192.5t-2 -191.5t-10 -176.5v-4q172 35 298 32t215 -30.5t144.5 -73t86 -93.5t39 -93t2.5 -74q-14 -76 -63.5 -131t-119 -90t-152.5 -51t-166 -16t-158 13t-128 40q-6 -6 -12 -21.5t-12.5 -33 t-12.5 -30.5t-12 -18z" />
<glyph unicode="6" horiz-adv-x="1212" d="M3 513q1 69 17.5 127t40.5 95q18 29 40 62.5t41.5 62.5t32.5 48l13 20q100 166 172 281.5l120 192.5t78 120l45 64.5t20.5 25.5t5.5 2l217 -8h4q12 0 4 -17q-25 -37 -72 -111.5t-101 -160.5t-108.5 -171t-93.5 -142q150 23 282 -11.5t226 -112t142.5 -190t27.5 -248.5 q-14 -74 -58 -139t-108.5 -118.5t-144.5 -93.5t-164 -61.5t-168 -22.5t-156 24q-102 29 -170.5 83t-110.5 119.5t-58.5 138t-15.5 141.5zM41 563q0 -74 6 -139.5t36 -123.5t89 -112.5t166 -107.5q61 -31 139 -35t160 13.5t163 54.5t147.5 87t110.5 112.5t54 129.5 q18 127 -26 238t-139 184.5t-236.5 99t-317.5 -15.5l398 617q-35 4 -73 3t-71 3q-119 -193 -226.5 -355.5t-190.5 -290.5t-134 -219.5t-55 -142.5zM187 457.5q-9 60.5 2.5 120t42 113.5t85.5 95q82 45 170 62.5t169 7.5t151 -46t113 -95.5t55 -141t-21 -184.5 q-23 -66 -75 -114t-121.5 -74.5t-148.5 -31.5t-152.5 11.5t-135 56t-96.5 105.5q-29 55 -38 115.5zM234.5 553q-9.5 -82 31.5 -188q25 -66 81 -105t126 -52t145.5 -3t141 44t113 91t61.5 137q16 92 -13.5 161t-86 112t-132 60t-153.5 10t-147.5 -38.5t-113.5 -89 t-53.5 -139.5z" />
<glyph unicode="7" horiz-adv-x="1095" d="M-10 1508q2 38 12 69t31 31q293 4 522 6h191.5t165 -1t114.5 -4t41 -7q-37 -80 -104.5 -204t-149.5 -270.5t-170 -304t-168 -306t-141.5 -276.5t-89.5 -214q-12 -31 -38 -33t-55.5 10t-59.5 30.5t-50 28.5q-10 10 -17.5 18.5t-3.5 24.5q33 66 85.5 160t115 207t132 237 t138 246.5t132 240.5t116.5 216q-174 -4 -365.5 -8t-365.5 -6q-10 6 -15 38.5t-3 70.5zM37 1440q51 -4 128 -4t162 1t170 4t152.5 4t108.5 1t39 -2q-51 -96 -116 -215t-135.5 -247t-142 -258t-136 -247t-119 -215t-87.5 -164l142 -71q31 94 90 218t134 263t158 286.5 t163.5 288t150.5 267.5t119 225q0 2 -72 2t-178 -1t-232 -2t-233.5 -2t-181.5 -3t-76 -2q-4 0 -6 -2z" />
<glyph unicode="8" horiz-adv-x="1204" d="M2 528q6 111 73.5 209.5t170.5 155.5q-84 61 -122 149t-28 193q18 193 170 290t402 97q76 0 157.5 -37t147 -99.5t101.5 -146.5t22 -178q-10 -59 -29.5 -105t-42.5 -78t-44.5 -51.5t-33.5 -21.5q127 -68 181.5 -191.5t31.5 -271.5q-2 -18 -5 -39.5t-15.5 -51t-38 -69.5 t-72.5 -96q-47 -55 -127 -99t-172 -70.5t-184 -30.5t-162 24q-90 33 -164 85t-125 119t-75.5 146.5t-16.5 167.5zM47 524q-2 -82 15.5 -148.5t59.5 -122.5t109.5 -104.5t165.5 -91.5q61 -27 136 -27.5t153 21t151.5 60.5t134 92t101.5 115.5t51 132.5q8 61 -5 129.5t-47 129 t-87 108.5t-125 71q74 29 125 99.5t68 187.5q10 78 -14.5 143t-70.5 115.5t-105.5 86t-117.5 54.5q-86 23 -191 12.5t-196.5 -52.5t-155 -117t-65.5 -179q-4 -123 41 -205t137 -147q-55 -14 -104 -50t-85 -85.5t-56.5 -107.5t-22.5 -120zM194.5 450.5q-6.5 85.5 30.5 157.5 q49 96 130 148.5t171 66t179.5 -9t154 -77t94 -137.5t0.5 -189q-31 -100 -122 -164t-200.5 -82.5t-215 11.5t-164.5 116q-51 74 -57.5 159.5zM240 463q2 -39 10 -77t22 -62q29 -51 87.5 -82t129 -38t144.5 7t137.5 50t105.5 94.5t50 138.5q8 82 -23 128t-90 93 q-72 49 -149.5 66.5t-152.5 3t-139.5 -61.5t-107.5 -123q-14 -25 -20 -61.5t-4 -75.5zM287.5 1110q-27.5 78 13.5 176q27 66 92.5 111t143 61.5t156.5 0t134 -72.5q27 -23 41.5 -54.5t19.5 -65t1 -68t-12 -63.5q-18 -59 -57.5 -103.5t-84.5 -64.5q-92 -43 -187 -35t-164 54 t-96.5 124zM318 1184q1 -43 21.5 -82t55.5 -70t80 -47q66 -14 128.5 -11t112.5 27.5t86 72.5t48 124q12 59 -10.5 106.5t-66.5 77t-104.5 41t-121 -1t-115.5 -50.5t-92 -103q-23 -41 -22 -84z" />
<glyph unicode="9" horiz-adv-x="1218" d="M2 1167q14 74 58 139.5t108.5 119t144.5 93.5t164 61.5t168 22.5t156 -24q190 -78 273 -183.5t88 -224t-50 -244.5t-141 -245q-109 -170 -181.5 -286.5t-118.5 -192.5t-72 -118t-39 -61.5t-18 -23.5t-12 -4l-217 8h-4q-12 0 -4 16q25 37 72 112t101 161t108.5 171 t93.5 142q-150 -23 -282 11t-226 112t-142 190.5t-28 247.5zM47 1167q-18 -127 26 -237.5t139 -184t236.5 -99t317.5 15.5l-397 -617q35 -4 72.5 -3t70.5 -3q119 193 225.5 356.5t189.5 293.5t133 223.5t56 144.5q8 78 3 141.5t-35.5 118.5t-93 107.5t-169.5 105.5 q-59 31 -138 35t-161 -13.5t-162.5 -54.5t-146.5 -87t-111 -112.5t-55 -130.5zM184.5 1036q-12.5 82 20.5 185q23 66 75 113.5t121.5 74.5t148.5 32t152.5 -11.5t135 -57.5t96.5 -104q27 -55 37 -115.5t-1.5 -120t-42 -114t-85.5 -95.5q-82 -45 -170 -62.5t-169 -7 t-150.5 46.5t-112.5 95t-55.5 141zM225 1133q-16 -92 13.5 -161t86 -112t132 -60.5t153.5 -10t147.5 39t113.5 89t53.5 139.5t-31.5 188q-27 66 -82 105t-125 52t-145.5 3t-141 -44t-113 -91t-61.5 -137z" />
<glyph unicode=":" horiz-adv-x="315" d="M9 951.5q-1 23.5 3 39.5q2 8 34 12.5t71 4.5t73.5 -6.5t40.5 -14.5v-180q-10 -4 -42.5 -8t-68.5 -3t-65.5 9t-34.5 29q-2 8 -4 27.5t-4 43t-3 47zM11 150.5q-1 23.5 3 39.5q2 8 34 12.5t71 4.5t73.5 -6t40.5 -15v-180q-10 -4 -42.5 -8t-68.5 -3t-65.5 9t-33.5 29 q-2 8 -4.5 27.5t-4.5 43t-3 47zM49 967q2 -41 2 -67v-64h144l2 131h-148zM51 166q2 -41 2 -66.5v-64.5h144l2 131h-148z" />
<glyph unicode=";" horiz-adv-x="284" d="M9 951.5q-1 23.5 3 39.5q2 8 34 12.5t71 4.5t73.5 -6.5t40.5 -14.5v-180q-10 -4 -42.5 -8t-68.5 -3t-65.5 9t-34.5 29q-2 8 -4 27.5t-4 43t-3 47zM20 20q2 47 6.5 94.5t6.5 94.5q8 6 37.5 5t64.5 -5t66.5 -10t46.5 -13v-2q4 -20 6 -59t-1 -83t-13.5 -89t-30 -82 t-50 -59.5t-73.5 -20.5q-6 0 -15.5 9.5t-16.5 22.5t-11 27.5t0 22.5q0 4 2 6l2 2q6 12 21.5 19.5t25.5 19.5q10 14 13.5 24.5t3.5 19.5t-3.5 17.5t-5.5 16.5q-16 -2 -32.5 -4t-24.5 -4q-8 2 -16.5 11t-8.5 19zM49 967q2 -41 2 -67v-64h144l2 131h-148zM53 31q8 0 23.5 1 t29 2t22.5 2t7 1q6 -31 10.5 -52.5t-1 -39t-19.5 -34.5t-45 -40q4 -10 15 -24.5t20 -20.5q45 20 66.5 58t29.5 85t7 98.5t-1 98.5q-33 2 -75.5 4t-75.5 4q-2 -35 -6.5 -71.5t-6.5 -71.5z" />
<glyph unicode="&#x3c;" horiz-adv-x="839" d="M12 729q0 33 5.5 65.5t15.5 51.5q119 72 226.5 136.5t189 114.5t132 81.5t58.5 35.5q8 8 18.5 9.5t18.5 -13.5q12 -43 45 -88t61 -73q-14 -27 -48 -50.5t-94 -55.5t-150.5 -79t-217.5 -123q2 -4 41 -33.5t96.5 -71.5t123 -89t121 -88t91 -69t33.5 -30q12 -14 8 -28 q-4 -12 -21 -36t-40 -46.5t-44.5 -37.5t-33.5 -9l-46 31q-46 32 -115.5 81.5t-150.5 105.5t-150.5 105t-116.5 82l-48 33q-4 4 -6 29.5t-2 58.5zM43 676q0 -6 2 -4q0 2 45 -29t112.5 -77t145.5 -100t144.5 -101.5t88.5 -62.5l66 -48q31 16 58.5 34.5t37.5 41.5 q0 2 -38.5 30.5t-95 71.5t-123 92t-122 91t-92 71t-34.5 31q-8 25 -8.5 36t10.5 17q217 131 345 196.5t142 80.5q-20 23 -45 57.5t-35 62.5q-2 -2 -46 -30.5t-123 -75.5t-187.5 -111.5t-239.5 -136.5q-4 -2 -5 -22.5t-1 -45t1 -47t-1 -24.5z" />
<glyph unicode="=" horiz-adv-x="962" d="M0 999q-2 0 44 -1t123 -3t173 -3t194.5 -2t190.5 -1t160 2q0 -57 -5.5 -97t-5.5 -95q0 -18 -20 -23q-137 2 -232.5 2h-182.5h-182t-230 2q-10 4 -16.5 7.5t-6.5 17.5zM6 465q0 57 5 97t5 95q0 18 21 23q137 -2 232.5 -2h182.5h183t233 -2q14 -6 17.5 -14.5t7.5 -24.5 l-2 -180q2 0 -44 1t-123 3t-173 3t-194.5 2t-190.5 1t-160 -2zM39 821q88 -2 156.5 -2h128h112.5h112.5t128 -1t157.5 -1q0 41 3 67.5t7 67.5h-145.5t-173.5 1t-175 3t-154.5 3.5t-111.5 2.5l-43 1zM47 504h145t173.5 -1t175.5 -3t154.5 -3t111.5 -2l43 -1l2 141 q-88 0 -156.5 1t-128 1h-113h-112.5h-128t-157 2q0 -41 -3 -67.5t-7 -67.5z" />
<glyph unicode="&#x3e;" horiz-adv-x="876" d="M8 332q-4 14 8 28q-2 2 34 30t91.5 69t121 88t122.5 89t96 71.5t41 33.5q-127 76 -217 123t-150.5 79t-94 55.5t-48.5 50.5q29 29 61.5 73.5t45.5 87.5q8 14 18 13.5t19 -9.5q8 -4 58 -35.5t132 -81.5t188.5 -114.5t227.5 -136.5q10 -18 15 -51t5 -66t-2 -58.5t-6 -29.5 l-47 -33t-116.5 -82t-150.5 -105t-150.5 -105.5t-115.5 -81.5l-47 -31q-12 -6 -33.5 9t-44 37.5t-40 46t-21.5 36.5zM51 330q10 -23 37.5 -41.5t58.5 -34.5l45 32q44 31 110.5 78.5t144 101.5t145 100t113 77t45.5 29q2 -2 2 4l-2 -2q-2 2 -1 24.5t1 47t-1 45t-6 22.5 q-131 72 -239.5 136.5t-187 111.5t-122.5 75.5t-47 30.5q-10 -29 -34.5 -63.5t-44.5 -56.5q14 -14 142 -80t345 -197q10 -6 10 -17.5t-8 -35.5q2 -2 -35 -31t-92 -71t-121.5 -91t-123 -92t-95.5 -71.5t-39 -30.5z" />
<glyph unicode="?" horiz-adv-x="987" d="M12 1622q-8 27 21 37q80 31 161.5 52.5t158.5 29.5t148.5 2t133.5 -31q125 -51 201.5 -146.5t103.5 -206t3.5 -224t-100.5 -199.5t-207 -132t-317 -24q2 -31 3.5 -91t1.5 -128.5t-1.5 -132t-3.5 -100.5q-66 -4 -103.5 -4t-57 3t-25.5 8t-6 13v137t-2 177.5t-6 174.5 t-8 130q0 6 -2.5 14t-2.5 15.5t3.5 13.5t13.5 8q55 -18 121.5 -27.5t134 -5.5t131 21.5t113 52.5t79 90t31.5 133q0 72 -31.5 120t-85 75.5t-121 38t-136 8.5t-134 -14.5t-114.5 -30.5q-2 6 -25 31.5t-44.5 55t-29.5 56.5zM49 1622q8 -4 18.5 -17.5t20.5 -28.5t21.5 -29.5 t19.5 -22.5q90 20 193.5 33.5t196.5 -2t163 -70.5t92 -170q6 -29 -1 -75t-32.5 -95t-71.5 -94t-117 -74t-170 -33t-230 31v-4q8 -82 12 -155t5 -143.5t1 -144t-2 -157.5q14 2 33.5 0t38 -3t31 -2t12.5 1v35.5v77.5t1 100.5t1 104.5t1 89t3 55q135 -37 248.5 -16t196.5 81 t132 148t53.5 186.5t-38.5 196t-144 174.5q-123 96 -290.5 99.5t-397.5 -76.5zM120 159q1 -24 3 -47.5t4 -43t4 -27.5q4 -20 34 -28.5t65.5 -9.5t68.5 3t43 8v181q-6 8 -41 14t-74 6t-70.5 -4t-33.5 -12q-4 -16 -3 -40zM160 174h147l-2 -131h-143v64.5t-2 66.5z" />
<glyph unicode="@" horiz-adv-x="2070" d="M15.5 439.5q-25.5 156.5 4.5 359.5q35 233 126.5 390t214 252t265 135t281.5 36q100 -4 229.5 -20.5t260.5 -59.5t253 -119t211 -197.5t134 -296t20 -413.5q-6 -74 -38.5 -160t-81 -167t-107.5 -149.5t-119.5 -109.5t-120 -47t-104.5 37q-35 33 -53.5 84t-27.5 107.5 t-9 113.5t4 104q-35 -35 -71 -57t-78 -38.5t-88 -30t-99 -27.5q-47 -12 -98.5 -20.5t-102.5 -8.5q-23 2 -68.5 1t-97 4t-96.5 17.5t-63 39.5t-45 66.5t-29 74.5q-8 94 27.5 187.5t100 170t148.5 131t172 70.5q104 18 204 17t202 -11q-14 74 -59.5 106.5t-107.5 38t-137 -10 t-148.5 -41t-140.5 -53t-114 -46.5q-6 10 -19 33.5t-25.5 49.5t-17.5 49.5t7 35.5q12 20 34.5 34.5t49.5 27t50.5 20.5t39.5 16q113 53 248 76t260 -3t221 -107.5t131 -237.5q20 -90 25.5 -183.5t2.5 -186.5t-11.5 -187t-16.5 -186l2 -3q127 84 193.5 181.5t87 199t0 204 t-67.5 194.5t-113.5 171t-140.5 136q-61 45 -143 77.5t-167 53t-163 31t-127 12.5q-172 -6 -309 -80t-231.5 -189.5t-140.5 -258t-34.5 -289t83 -282.5t215.5 -236q84 -59 193.5 -93t209.5 -38q55 -2 126 9t144 30q10 4 18.5 0.5t12.5 -17.5q0 -12 2 -40.5t5 -59.5t3 -58.5 t-2 -35.5l-2 -2q-29 -16 -66.5 -23.5t-78.5 -10.5t-83 -3h-75q-100 4 -214 28.5t-221.5 75.5t-201.5 132t-157.5 199t-89 274.5zM47 739q-16 -168 12.5 -304t89 -242.5t147.5 -183.5t187.5 -128t207 -76.5t206.5 -29.5q113 0 264 24q-6 68 -6 131q-72 -18 -137.5 -28.5 t-120.5 -10.5q-23 0 -82 12.5t-128 33t-131 48t-91 58.5q-90 76 -156.5 156t-106.5 171t-50.5 199.5t14.5 241.5q29 154 103.5 271.5t176 197.5t220 121t239.5 41q109 4 226.5 -17.5t230.5 -68.5t213 -122t172 -177.5t106.5 -233.5t20.5 -291q-14 -63 -49 -131.5t-83 -131 t-107.5 -111.5t-121.5 -76q4 84 11.5 180t9.5 195.5t-3 199t-24.5 188.5t-58.5 163.5t-102 126.5q-66 51 -148 69.5t-169 12t-172 -31t-152 -55.5q-6 -4 -26 -12t-43.5 -18t-46 -23.5t-32.5 -27.5q0 -25 8 -48.5t19 -50.5q55 23 128.5 51.5t152.5 49t158 28.5t144.5 -8 t111.5 -64.5t58 -138.5q-217 25 -360 3.5t-233.5 -67.5t-139.5 -103.5t-76 -104.5q-29 -51 -51 -120.5t-12 -129.5q6 -33 25.5 -60.5t46 -49t56.5 -35t54 -17.5q70 -10 159 -6t181 21.5t176 47t142 72.5q16 12 26 29t21 33q12 10 24.5 5t12.5 -19q-6 -57 0 -142.5t27.5 -161 t62.5 -119.5t106 -20q39 14 102.5 69.5t125 139.5t108.5 193.5t57 234.5q18 258 -56.5 443.5t-218.5 306.5t-348 182t-446 74q-66 8 -150.5 -4.5t-174.5 -48t-179.5 -97t-163 -157t-126 -224.5t-68.5 -297zM588 461q10 51 48 101t89 87q29 23 61.5 37t61.5 33 q35 18 72.5 30.5t76.5 20.5q55 10 100.5 12t85.5 -6t80 -23.5t85 -37.5l2 -2q6 0 13 -5.5t7 -15.5q-2 -45 1 -90t-1 -90q-123 -86 -227.5 -134t-188.5 -69.5t-144 -21.5t-95 10q-82 25 -109.5 69t-17.5 95zM629 451q-2 -23 1 -37.5t11 -36.5q12 -27 41 -38t62.5 -14t66.5 0 t55 7q111 12 231.5 60.5t231.5 146.5q4 37 1 71.5t-1 71.5q-16 8 -32.5 13t-34.5 16q-45 27 -107.5 32t-132.5 -8.5t-139.5 -40t-125 -64.5t-91 -84t-37.5 -95z" />
<glyph unicode="A" horiz-adv-x="1671" d="M39 -16q-2 6 25.5 87t74.5 209t107.5 290.5t125 333.5t128 338t116 303t89 229.5t47.5 115.5q-4 10 1 19.5t21 5.5q18 -2 42 -2h48.5t48 2t39.5 2q4 0 6 -2q18 4 25 -19q2 -10 20.5 -73.5t50 -166t73.5 -236.5t91.5 -282.5t103.5 -304t108.5 -302t108.5 -276.5t101 -226 q-8 -20 -40.5 -28.5t-70.5 -9.5q-19 0 -37 -0.5t-35 0.5q-34 1 -46 -1q-25 0 -20 20q-20 41 -50 121t-64 176t-70 199.5t-66.5 190.5t-53 147.5t-32.5 70.5q-42 -3 -86 -3h-21q-54 1 -108 1t-109 -4t-113 -18q-6 -16 -26.5 -72.5t-48 -132.5t-59 -162t-60.5 -162.5 t-52.5 -137t-33.5 -83.5q-16 -31 -30.5 -68.5t-31.5 -72.5q0 -16 -32 -22q-23 -4 -51 -4q-10 0 -21 1q-41 2 -80 5.5t-53 3.5zM94 20q29 0 71 -2q14 -1 27 -1q26 0 46 3q25 45 59.5 129t72.5 185.5t75.5 208t70.5 193.5t57.5 144.5t34.5 59.5q12 2 46 5t80 5t100.5 4 t107.5 4q20 0 47 2.5t50.5 2.5h39t13.5 -2t17 -58.5t50 -144.5t70 -196.5t76.5 -211t70.5 -188.5t54 -129q14 2 34.5 4t43 4t44 1.5t37.5 -0.5q-70 141 -140.5 324t-139 374.5t-130 381t-110.5 346t-81 265t-42 143.5q-14 0 -35.5 -2t-44 -3t-44 -1t-36.5 2 q-12 -23 -48 -115t-86 -225t-111.5 -296t-124 -330t-119.5 -324.5t-102 -281.5t-73 -199.5t-28 -80.5zM651 1083q-3 -3 -3 3q0 8 6 35q12 46 34.5 121t52 165t55 168t44 130t20.5 52q6 0 21.5 -50t36 -125t42 -162t41 -161.5t31.5 -123t15 -43.5q-49 -6 -95.5 -9.5 t-92.5 -3.5t-97.5 1t-110.5 3zM700 1114q51 0 85 -1q17 0 33 -0.5t31 0.5q30 1 63.5 3t82.5 6q2 4 -7 45t-24.5 100.5t-34 127t-34.5 126t-26.5 98.5t-10.5 42q-2 -6 -14.5 -47t-29.5 -101.5t-37.5 -129t-37 -128t-28 -99.5t-11.5 -42z" />
<glyph unicode="B" horiz-adv-x="1288" d="M33 495q0 232 2 466.5t2 455.5t-2 391v2q2 4 17.5 11.5t36 15.5t38.5 15.5t25 9.5q110 35 242 53q56 8 110 8q71 0 137 -14q80 -18 149.5 -39t125 -51.5t96.5 -74.5t63 -108q17 -44 17 -89q0 -23 -4 -46q-12 -69 -54.5 -138t-110 -134.5t-151.5 -122.5q-33 -23 -55.5 -33 t-46.5 -20q125 -14 230.5 -68.5t209.5 -140.5q41 -35 69.5 -90.5t40.5 -123.5q7 -39 6 -79q0 -31 -4 -61q-8 -72 -40.5 -141.5t-91 -128t-148.5 -97.5q-37 -16 -84 -32.5t-97 -32t-99.5 -27t-88.5 -15.5q-125 -16 -249 -23q-22 -1 -44 -1q-102 0 -204 26q-8 2 -23.5 21 t-17.5 29q-2 195 -2 427zM74 480q0 -220 2 -412l4 2q116 -28 254 -28h26q154 3 301.5 37t271.5 97q123 64 193 157q68 90 68 205v7q-2 119 -107 264q-33 45 -93 82t-131.5 65.5t-148.5 49t-143 30.5q39 23 86.5 49.5t94.5 55.5q59 35 121.5 90t97.5 115q55 92 69 164 q6 32 7 61q-1 35 -11 67q-18 56 -61 95t-99.5 66.5t-120 44t-122.5 24.5q-55 8 -117 9h-17q-53 0 -107 -5q-62 -6 -122.5 -18.5t-111.5 -32.5q-23 -10 -42.5 -19.5t-39.5 -17.5q2 -195 2 -414t-2 -444.5t-2 -445.5zM218 1172q1 92 4 188t5 188t2 158q-2 6 49.5 19.5 t124 22.5t151.5 10h8q74 0 126 -17q94 -31 134 -81t40 -108.5t-32.5 -122t-82 -120t-108.5 -103.5t-113 -71l-47 -23.5t-96 -46.5t-101 -41q-30 -10 -47 -10q-10 0 -16 4q-1 42 -1 97v57zM221 322.5q0 189.5 4 592.5q93 -1 157 5q55 5 104 5h18q58 -1 123 -15.5t159 -53.5 q92 -37 143.5 -112.5t60.5 -162.5q2 -17 2 -34q0 -70 -30 -138q-38 -85 -124 -139q-49 -31 -129 -65.5t-168 -58.5q-87 -24 -173 -30q-16 -1 -31 -1q-66 0 -112 24q-4 -6 -4 183.5zM254 170q40 -14 92 -14q17 0 36 2q75 6 152.5 27.5t151.5 53t127 64.5q86 49 117 126 q23 56 23 112q1 21 -3 41q-12 76 -60 142t-124 97q-57 23 -119.5 34t-128 15t-132.5 4h-128v-372.5v-213t-1 -96t-3 -22.5zM258 1057q27 12 61.5 26.5t70.5 29.5t68 29.5t50 26.5q119 72 192 149q72 76 98 146q14 39 14 75q0 27 -8 51q-20 56 -86 89t-180 35h-12 q-110 0 -262 -37q0 -63 -1 -144t-2 -166t-2 -166t-1 -144z" />
<glyph unicode="C" horiz-adv-x="1439" d="M32 690q-17 82 -17 176q0 102 20 219q35 201 109.5 347.5t178 245t227.5 153.5t257 71q65 8 130 9q69 1 138 -9q135 -18 260 -63q33 -12 48.5 -22.5t21.5 -18.5t6 -16t4 -21q-12 -16 -24.5 -40.5t-25.5 -46t-30.5 -36t-40.5 -8.5q-94 38 -196 58q-75 14 -149 15 q-27 0 -54 -2q-102 -7 -201.5 -42t-191.5 -105q-100 -78 -168 -180t-100 -217q-29 -105 -28 -214v-21q3 -120 41 -231t110.5 -207.5t181.5 -164.5q111 -65 235 -101q95 -27 193 -27q30 0 61 2q14 2 55 10t87.5 18t86 22.5t50.5 20.5q6 -6 20 -26.5t30.5 -45t30 -47 t17.5 -30.5q10 -8 8 -29q-16 -31 -92 -54q-75 -22 -187 -28q-31 -2 -65 -2q-85 0 -183 12q-136 16 -270.5 59.5t-256 123t-206.5 201.5t-121 292zM63 1026q-8 -67 -7 -130q0 -142 39 -258q57 -167 164.5 -284.5t252.5 -187.5t298 -100q117 -23 230 -22q34 0 68 2 q145 9 256 52q-18 33 -43 59.5t-39 57.5q-35 -25 -95.5 -37t-126.5 -18q-56 -5 -106 -5h-16q-57 1 -84 5q-82 14 -174 42.5t-170 88.5q-201 153 -294 353q-59 128 -59 280q0 87 19 182q29 133 92.5 241.5t151.5 189.5t194 133t222 70q61 10 124 10q55 0 111 -8 q119 -16 232 -69q23 10 39 38t32 61q-27 27 -91 50q-65 24 -155 36q-73 10 -157 10q-19 0 -41 -1q-108 -3 -219 -31t-217.5 -85t-194.5 -154.5t-150.5 -237.5t-85.5 -333z" />
<glyph unicode="D" horiz-adv-x="1269" d="M25 20q0 211 1 448t3 481.5t4 489.5t6 470q16 1 37 0q50 0 128 -3q108 -5 237.5 -31t267 -81t252 -155.5t192.5 -252t90 -368.5q2 -38 2 -75q0 -162 -43 -296q-53 -164 -149.5 -286.5t-222 -204.5t-261 -127t-268.5 -53q-29 -2 -57 -1q-100 0 -183 21l-10 6 q-10 -8 -18 -3t-8 21zM59 37h2q85 -28 190 -28q19 0 39 1q130 6 262 51t256 126t217 200t143 273q39 119 39 260q0 42 -3 86q0 164 -48 291.5t-130 224t-193.5 164t-237.5 108.5q-126 42 -262 60q-123 17 -241 16h-26q0 -209 -1.5 -443.5t-2.5 -474t-2 -473t-1 -442.5z M176 172q2 4 3 72.5t1 178v249t-1 284t-1 281.5t1 245.5t2 174t5 65.5q88 -4 185.5 -24.5t191.5 -60.5t180 -101t153 -144t107.5 -188.5t43.5 -236.5v-11q0 -104 -36 -208q-38 -108 -103.5 -205t-152.5 -174.5t-185 -128.5q-96 -52 -198 -72q-47 -9 -92 -8q-53 0 -104 12z M211 201q27 -3 55 -3q58 0 120 14q91 21 180 68.5t170 118t141.5 158.5t95.5 190.5t35 215.5q-2 172 -73 301t-183.5 218t-254 138t-282.5 61q-2 -80 -2 -186v-226t1 -245t1 -243.5v-224v-184.5t-1 -125t-3 -46z" />
<glyph unicode="E" horiz-adv-x="1126" d="M23 4q2 0 2 82t1 216t2 304t2 348.5t1 349.5t2 305t3 217t3 85q227 2 472 2t470 2h3q12 1 24 -25q12 -30 17 -67q3 -21 3 -40q0 -16 -2 -31q-4 -34 -22 -36q-201 0 -386.5 -8t-384.5 -10q0 -57 -1 -125t-1 -136.5v-136v-124.5q76 2 161 5t170 5t168 5t157 7 q14 4 21 -22.5t10.5 -59.5t3.5 -61.5v-30.5q-2 -2 -53.5 -8t-127 -13.5t-165 -14.5t-165 -13t-127 -9t-53.5 -3v-46.5v-114v-155.5v-171v-160.5v-125.5q45 -1 98 -1h55q85 1 173 4.5t173 6.5t153.5 6t111.5 3t49 -4q12 -10 18 -40q5 -31 6 -63v-12q0 -26 -3 -50 q-4 -30 -12 -38q-2 0 -4 -1t-5 -1h-2q-98 0 -198 1h-41q-80 0 -160 -3q-16 0 -68.5 -1t-123 -1h-147.5t-141.5 1t-104.5 3q-36 2 -36 4h1zM61 39q70 2 143.5 2t148.5 -2t148 -2t144 2q78 3 157 3h40q98 -1 196 -1q-4 41 -9 65.5t-7 65.5q-201 -6 -403.5 -12t-403.5 -10h-2 q-23 0 -23 24l11 830q76 2 164 8t178 12t178 12t164 11q-4 23 -7.5 56.5t-7.5 53.5q-18 -2 -75.5 -5t-133 -5t-158.5 -4t-152.5 -3t-115 -1t-45.5 2v146v180.5t1.5 167t5.5 104.5q0 -2 41 -2t107.5 1t150.5 3t172 5t174 5t153 6l-14 117q-112 -1 -226.5 -1t-230 1t-229 1 t-225.5 -1q0 -125 -1 -274.5t-1 -312.5t-2.5 -331t-2.5 -330.5t-1 -312t-1 -274.5z" />
<glyph unicode="F" horiz-adv-x="825" d="M37 98v208t2 292t4 337t4 340t4 302t4 224t4 106q123 0 238 -1t238 -1q54 -2 108 -2q69 0 137 3q124 5 238 9q4 -4 7 -39q2 -26 2 -55v-20q-1 -40 -6 -70.5t-17 -22.5q-65 -1 -130 -1h-64h-64q-64 0 -126 -1q-94 -2 -187 -8t-187 -21q6 -23 8 -83t2 -129.5v-134v-95.5 h473q12 -2 19 -33q6 -32 8 -68q1 -18 1 -36t-1 -35q-2 -35 -6 -43q-117 -2 -241 -9t-253 -10q0 -102 -1 -231t-2 -263t-2 -263t-1 -230q-4 -10 -11.5 -13t-30 -3t-62.5 2t-107 2v12q-2 4 -2 84zM74 35h75.5t40 -1t14.5 -1h5q0 102 1 233t2 268.5t2 268.5t5 233q4 -2 61.5 0 t136.5 5t164 8.5t146 11.5q-8 31 -8 65.5v67.5q-188 4 -290.5 5t-151 1t-55.5 1t-7 3q2 25 3 73t1 105.5t-1 117t-1 108.5v79.5t4 28.5q100 14 195.5 21.5t188.5 9.5q62 1 125 1h63.5h64.5q66 0 135 1q-4 29 -5 60.5t5 60.5q-2 0 -53 -1t-121.5 -2t-148.5 -2t-135 -1 q-121 0 -224.5 -1t-222.5 -1q-2 -102 -3 -236.5t-2 -283t-2 -303t-2 -300t-2 -274.5t-1 -225.5t-1 -151.5t-1 -53z" />
<glyph unicode="G" horiz-adv-x="1724" d="M14 706q-11 70 -11 150q0 95 15 203q31 221 122 384t219 269.5t284 156.5q144 46 295 46h24q164 -4 324 -62.5t297 -169.5q18 0 16 -26q-4 -10 -18 -36t-31.5 -52.5t-35 -50t-27.5 -31.5q0 -12 -12 -21q-68 57 -126.5 104.5t-122 82.5t-140 55.5t-183.5 24.5h-17 q-88 0 -186 -37q-106 -41 -190 -113q-90 -78 -151.5 -182.5t-94.5 -222t-36 -239.5v-23q0 -110 26 -212q29 -114 90.5 -212.5t157.5 -165.5q170 -119 341 -119h16q179 6 353 129q74 51 123 119.5t79 145.5t43 161t13 170q-156 2 -308 12q-109 7 -212 7q-41 0 -82 -1 q-10 14 -12 38t-1 49.5t2 49t-3 39.5q12 4 67.5 7.5t133.5 4.5h81.5h88.5q92 -1 177 -3t153.5 -5.5t101.5 -7.5l6 -223v-20q0 -164 -31 -291q-33 -135 -92 -233.5t-140 -166t-172 -108.5t-189.5 -61.5t-192.5 -24.5q-98 6 -204.5 31.5t-208 78t-189.5 134t-147.5 197.5 t-82.5 271zM47 1004q-6 -62 -6 -119q0 -96 17 -179q26 -135 82.5 -240.5t137 -182t175 -129t196 -80t199.5 -33.5q94 6 191.5 28.5t186.5 67.5t165.5 111.5t131 160t83.5 213.5q22 95 22 209q0 32 -2 66l-6 188q-33 2 -121 5.5t-195.5 6.5t-217 3t-187.5 -6q2 -23 2 -49.5 v-49.5q10 0 31.5 -1t46.5 -1t51.5 -1t44.5 -1q106 -2 214 -9t212 -9q0 -113 -10 -205t-38 -171t-76 -147.5t-122 -134.5q-86 -74 -188 -112.5t-207 -40.5h-11q-99 0 -193 32q-99 33 -179 103q-88 76 -151.5 159t-99.5 177t-44 203q-2 27 -2 55q0 87 19 188q27 145 92 272.5 t159.5 221.5t210 149.5t242.5 57.5q86 0 167 -23.5t154.5 -60.5t136 -81t109.5 -83q4 6 9.5 11t7.5 11q12 18 35.5 50t33.5 51q-76 49 -146.5 88t-146 68.5t-162.5 49t-198 27.5q-78 -6 -167 -28.5t-178 -67.5t-175 -113.5t-154.5 -165t-117 -223.5t-64.5 -286z" />
<glyph unicode="H" horiz-adv-x="1402" d="M20 27v4q2 70 3.5 186.5t2.5 261t3 305t3 318.5t2 302t3 254.5t4 176.5t4 68t6 2q55 0 95 4t98 4q8 -2 8 -21.5t-4 -96.5t-9.5 -230.5t-5.5 -425.5q217 0 428 3t424 3q4 113 5.5 245t1.5 246.5t1 191.5t3 77q2 2 8 1t8 -1q55 0 95 4t98 4q1 -47 1 -109t-1 -139 q-2 -154 -7 -338q-4 -183 -6 -381q-1 -99 -1 -194q0 -96 1 -186q2 -182 9.5 -330t25.5 -234h-207l-14 6q-10 0 -14 2q-4 4 -5 4q-2 0 -2 2q-2 2 -2 4.5t-2 6.5v4v162v210.5t1 243.5t1 262q-159 13 -319 13l-107 -1q-213 -6 -426 -6q-1 -108 -1 -198v-85q1 -120 3.5 -221.5 t5.5 -195.5t5 -203q6 -2 11 -2t-8.5 0t-55 -1t-132.5 -7l-14 6q-10 0 -14 2l-4 4q-2 0 -2 2q-2 2 -2 4.5t-3 6.5zM61 43l140 -6q-8 94 -11.5 166.5t-4.5 136.5q0 32 -0.5 63t0.5 61q1 62 3 134t3.5 160t1.5 207q81 -3 159 -3q40 0 78 1q116 2 228 3h76q76 0 154 -1 q116 -2 236 -13q0 -137 -1 -271t-1 -254v-218v-166h158q-18 98 -24.5 240.5t-7.5 309.5v67q0 136 3 279q4 179 8.5 350t6.5 321q1 75 1 140.5t-1 121.5q-41 -2 -68 -5t-68 -3v-142.5t-1 -199t-2 -218t-1 -200.5v-2q-163 -1 -318 -1h-153h-35q-210 0 -425 -11l10 782 q-41 -2 -67.5 -5t-67.5 -3q0 -88 -1 -232.5t-1 -317.5t-2.5 -360.5t-2.5 -360.5t-1 -317.5t-1 -232.5z" />
<glyph unicode="I" horiz-adv-x="325" d="M20 12v4v1870q4 16 35 22.5t68 8.5q18 1 35.5 1t33.5 -1q32 -2 44 -2q1 -41 1 -94q1 -67 -1 -154q-2 -156 -4.5 -341t-3.5 -386v-99q0 -147 2 -285q3 -183 11.5 -333.5t24.5 -234.5q-96 4 -141 4t-64.5 1t-23.5 4t-17 15zM61 29h158q-18 98 -25.5 242.5t-9.5 314.5 q-1 68 -1 138q0 105 2 214q3 182 6.5 354t5.5 324q1 76 1 140t-1 118q-41 -2 -68 -5t-68 -3v-1837z" />
<glyph unicode="J" horiz-adv-x="1093" d="M-23 193q18 25 28.5 38t31.5 35q0 2 9 10.5t20.5 17.5t21.5 17t14 13q-2 0 44.5 -24t114 -49.5t141.5 -39.5q33 -6 63 -6q38 0 72 10q78 25 126 97.5t75.5 164.5t36.5 191.5t11 177.5q-8 242 -13 414t-9 288.5t-6 186t-2 106.5v49.5t2 16.5q27 12 62 13h18q26 0 51 -2 q33 -3 57.5 -6t26.5 -1q2 -4 4 -65.5t2 -157v-210v-223t1 -197.5t3 -134q3 -41 3 -98q0 -28 -1 -60q-2 -98 -14.5 -201.5t-36 -198t-62.5 -151.5q-78 -109 -193.5 -160t-241.5 -52h-5q-123 0 -242 48q-122 49 -213 142zM41 186q57 -59 148.5 -93t190.5 -42q29 -2 57 -2 q70 0 139 13q96 20 167 69q31 20 58.5 54t36.5 53q37 78 59.5 163.5t34.5 174t14 176.5v44q0 64 -4 126q-2 41 -3 113.5t-1 163.5t1 189.5t2 191.5t1 170v124q-20 -2 -41 -2q-16 0 -33 1q-39 3 -73 13l32 -1098q0 -4 -2 -6q-4 -63 -11 -135t-21.5 -141.5t-42 -132 t-72.5 -110.5t-112 -75q-61 -26 -147 -26h-13q-43 2 -74 10t-63.5 21.5t-69.5 33t-93 41.5z" />
<glyph unicode="K" horiz-adv-x="1210" d="M27 1901q14 -6 53 -5.5t79 1.5q20 0 38 1q17 0 33 -1q32 -1 34 -9v-4q-1 -83 -1 -169.5t1 -176.5q2 -180 2 -350q2 2 45 49t108.5 120t144.5 160t155 168.5t137.5 147t93.5 96.5q7 14 17 14q8 -1 18 -9q23 -20 46.5 -56.5t44 -75.5t30.5 -53q-4 6 -40 -32t-90 -98 t-117.5 -132t-120 -134.5t-96.5 -104.5t-48 -44q6 -10 37 -66.5t75 -141.5t98 -190.5t109.5 -215t107.5 -213t92 -185.5q41 -80 65 -132q23 -48 22 -53q0 -6 -38 -10q-34 -3 -78 -4t-87.5 -1t-66.5 -2l-24 44q-23 44 -60 116.5t-85 167t-97.5 191.5t-96.5 191.5t-84 169 t-59.5 121.5t-22.5 49l-21 -20q-20 -19 -43.5 -43.5t-42.5 -44.5l-20 -19q-4 -4 -4 -46t1 -107.5t4.5 -147.5t6.5 -168t6 -166.5t3 -143t-3 -99.5t-9 -35l-234 -2q-4 0 -5 60.5t-1 165v243.5t1 295v158v160q-1 162 -2 313t-4 283t-7 225zM74 1860q2 -201 4 -435.5t2.5 -475 t2 -475t5.5 -435.5l154 2q0 2 -1 43t-2 105.5t-1 146.5t-1 167q0 42 -0.5 84t0.5 83q1 82 1 144.5t2 98t4 33.5q2 -4 27.5 20.5t55 55.5t55.5 56l26 26q2 0 25.5 -46t62.5 -122t87 -172t98 -197.5t98 -198t85 -172t59.5 -120.5t20.5 -45q-4 2 20.5 1t58.5 -1q33 0 67 2 q51 3 51 10q1 3 -23 49q-26 49 -68 131t-95.5 186.5t-110 214t-110.5 214t-96 186.5t-68 132l-27 50l499 557l7 4q-16 20 -39 56.5t-58 44.5q-41 -33 -107.5 -102.5t-142 -153.5t-154.5 -172t-144.5 -160t-111.5 -115q-40 -38 -55 -38q-2 0 -4 1q-4 82 -6 175.5t-3 189.5 v95.5v95.5q1 94 3 178q-29 0 -77 -2q-24 -1 -43 -1t-33 1z" />
<glyph unicode="L" horiz-adv-x="1150" d="M18 1096.5q0 158.5 1 304t1 256t1.5 178.5t1.5 72q6 6 31.5 7t58 2t67.5 1t58 2q0 -70 -1 -199t-3.5 -290.5t-3.5 -340t-1 -346.5t2 -309t9 -227q199 4 401.5 7t400.5 7q14 -4 23.5 -26.5t15.5 -52t9.5 -60.5t5.5 -51q-2 -10 -15.5 -19.5t-23.5 -11.5q-254 -2 -514 -3 h-58q-231 0 -458 7q-2 76 -4.5 197t-2.5 267t-1 308t-1 320.5zM63 1646.5q0 -139.5 1.5 -309.5t1.5 -356t1 -362.5t1 -329v-252.5q99 -1 198 -1q148 0 294 2q244 3 493 3q-4 41 -12.5 69.5t-10.5 69.5q-201 -6 -406.5 -12t-406.5 -10q-2 -2 -13 3t-11 17q-4 47 -4.5 91 t-0.5 71v182t1 271.5t2.5 315.5t3.5 315.5t3 271.5t1 182q-41 -2 -68 -5t-68 -3v-223.5z" />
<glyph unicode="M" horiz-adv-x="1597" d="M4 1913h70.5t103.5 -1t100.5 -2t65.5 -1q10 -23 32.5 -72t53.5 -116.5t69 -146.5t77.5 -160t80.5 -159.5t78 -144.5q4 2 30 51t64.5 124t85 167t90.5 180t82 162t58 113q16 0 66.5 1t107.5 2t109.5 2t72.5 1q1 -48 1 -110.5t-1 -139.5q-2 -154 -4 -334q-2 -179 -3 -375 q0 -65 -1 -129q0 -127 2 -247q2 -180 10 -333t27 -249h-44h-81t-78 2t-37 6l-22 1645q-33 -63 -77 -150.5t-91 -181.5t-93 -185.5t-82 -165t-59 -118.5l-24 -45q-6 -6 -33 -9t-58.5 -5.5t-60 -1.5t-39.5 6q0 -2 -30.5 59t-76.5 154.5t-100.5 204t-100.5 206.5t-79 162 t-37 70q0 -104 1 -245.5t3.5 -299.5t5.5 -322t4 -312q0 -74 0.5 -142t-0.5 -129q-1 -123 -3 -199l-4 -4q-2 0 -7.5 -1t-27 -1t-66.5 -1t-127 -1q2 0 3 60.5t1 165v242.5t-1 293.5t-1 318.5t-1 316.5t-2 288.5t-3 236zM43 1872q0 -61 2 -158.5t4 -212.5t4 -238.5t3 -238.5 t2 -212t1 -159v-69.5v-122t-1 -144t-1 -138t-1 -103.5l-1 -41l150 -6q0 76 -1 201.5t-2 277t-2 319.5t-2 328t-2 301t-1 242q0 2 9 1l18 -2t17.5 -2t8.5 3q117 -242 211 -430q39 -80 77.5 -158t68.5 -139.5t49 -98.5l18 -38h24.5t45 -1.5t45 -2.5t24.5 -3l-2 -2q6 0 4 2 q-2 0 22.5 51.5t63.5 131.5t88 179t97.5 196.5t91.5 183.5t71 139l53 2l27 -1673h158q-16 100 -23.5 243.5t-9.5 310.5q-1 67 -1 135q0 103 2 210q3 178 6 349t4 323v96q0 92 -1 168q-16 0 -58 -2t-89 -3t-89.5 -3t-56.5 -2q-23 -43 -61.5 -119t-83.5 -164t-91 -178 t-84 -163t-62.5 -119t-26.5 -44q-25 -8 -36 -8t-17 10q-55 94 -117 212t-115 231.5t-94 208t-59 141.5h-54.5h-84.5t-84 1t-56 1z" />
<glyph unicode="N" horiz-adv-x="1325" d="M4 3q-2 4 -2 9q0 7 4 13v81q0 80 -1 212.5t-1 301v345v345.5t1 302t1 214v81q4 4 46 6t94.5 2t99.5 -1t59 -3q0 2 31 -60.5t80 -167t111.5 -237.5t129 -272.5t130 -274.5t113.5 -240.5t83 -172t35 -70.5q0 102 -1 230t-1 266.5t-1 279.5t-1 271v239.5v185.5q6 6 10 13.5 t29 11.5l202 -4q-2 0 -3 -60.5t-3 -165t-3 -242.5t-2 -294t-1 -318.5v-316.5v-289t2 -235h-63.5t-85.5 1t-84.5 2t-57.5 1q-8 16 -36.5 81.5t-73.5 164t-101.5 220.5t-117 252t-122 260t-115.5 244.5t-99 204.5t-74 140q-3 -2 -3 -46v-25q1 -69 4 -178.5t8 -250.5 t11.5 -286.5t11.5 -285t9 -249t7 -175t1 -63.5l-8 -4q-2 -2 -31.5 -2t-69.5 1t-79 1h-58q-10 -4 -14 7zM43 37q41 2 78 4q31 0 59.5 -1t40.5 -5q1 0 1 17q0 16 -1 50q-2 68 -5 178.5t-7 251t-8 287t-9.5 286.5t-8.5 248.5t-5 174.5q-1 33 -1 49.5t1 15.5q24 9 40 9 q18 0 26 -11q29 -47 72.5 -134t98 -197.5t115 -238.5t120 -257t114.5 -251t99 -221t75 -168.5t39 -92.5q14 0 46 -1t66.5 -1h67.5h49q2 80 2 201.5t1 267t1 303v309.5t-1 290t-1 241.5v164.5v60l-153 6v-189.5t-1 -248t-1 -280.5v-287.5v-270.5v-229q-10 -18 -18.5 -24.5 t-17.5 1.5t-23.5 31.5t-37.5 62.5q-186 399 -333 715q-63 133 -124 262t-108 229.5t-75 163.5l-29 62h-41t-81 1t-81 2t-39 3l2 2q-5 0 -5 -1l1 -1l1 -80q1 -80 1 -209v-295v-338v-336.5v-293.5t-1 -208z" />
<glyph unicode="O" horiz-adv-x="1779" d="M10 733q-12 74 -12 156q0 97 16 207q35 233 126 389.5t214 252.5q124 95 266 135q130 36 256 36h25q100 -4 210 -30t212 -79t190.5 -136t147.5 -203q59 -119 81 -277q9 -66 8 -140q0 -103 -17 -221q-35 -233 -119 -395t-198 -264q-114 -100 -250 -144q-125 -40 -250 -40 h-23q-100 4 -214 31.5t-221.5 84t-201.5 144.5t-157 210.5t-89 282.5zM41 1036q-6 -65 -6 -125q0 -176 54 -316q73 -187 201 -312t288.5 -188.5t312.5 -69.5q121 0 254 39.5t248.5 137t201.5 262.5t111 419q7 75 7 144q1 164 -41 294q-60 184 -176 304t-271.5 178.5 t-321.5 60.5q-23 2 -47 2q-48 0 -104 -8q-84 -12 -174.5 -47t-179.5 -96.5t-162.5 -157t-126 -224.5t-68.5 -297zM146 859q-3 34 -4 70q0 85 18 179q29 154 103.5 271.5t176 197.5t220 121t239.5 41q152 -4 289 -64.5t237.5 -174.5t149.5 -278q32 -106 31 -232 q0 -69 -9 -144q-29 -154 -98 -283t-164.5 -223t-210 -146.5t-233.5 -52.5q-23 0 -82 12.5t-128 33t-131.5 48t-90.5 58.5q-90 76 -156.5 163t-106.5 187t-50 216zM188 853q12 -151 83 -291t214 -240q84 -59 194 -93.5t210 -38.5h22q98 0 192 32q105 36 202 120 q90 78 151 182q60 104 88 218q27 107 27 219v16q-2 121 -36 232.5t-100.5 207.5t-162.5 166q-166 115 -369 121q-172 -6 -309 -84t-232 -198q-94 -118 -140 -268q-37 -120 -37 -241q1 -30 3 -60z" />
<glyph unicode="P" horiz-adv-x="1134" d="M4 1888q182 25 319.5 25t232.5 -11.5t149.5 -25.5t68.5 -18q72 -25 143.5 -63t122.5 -97q54 -63 72 -143q11 -49 10 -97q0 -32 -4 -64q-12 -81 -54 -154t-110 -118q-92 -63 -181 -108t-177 -75t-178 -46t-185 -25q0 -111 1.5 -231.5t3.5 -239t4 -224t2 -185.5 q-57 0 -97.5 4t-95.5 4q-4 0 -6 2q-12 0 -16 18q0 90 -2 240t-4.5 327t-6.5 368.5t-6 369.5t-4 326.5t-2 240.5zM37 1855q0 -88 2 -232t6 -317t8 -359.5t8.5 -359.5t6.5 -317.5t2 -232.5q41 0 67.5 -3t67.5 -5q0 102 -1 212.5t-2 223.5t-2 223.5t-3 210.5q90 4 190 24.5 t198.5 55.5t190.5 82t170 102q90 81 125 177q21 58 21 115q0 36 -8 71q-22 90 -102.5 170t-217.5 133q-70 27 -172.5 37t-206.5 10t-198.5 -7t-149.5 -14zM190 1741q104 0 210 2h24q95 0 192 -14q92 -12 174 -54.5t125 -106.5q34 -51 34 -111q0 -15 -2 -31 q-11 -80 -105 -169q-55 -53 -131 -87.5t-162 -58.5t-176 -42t-176 -39zM227 1079q25 4 100.5 18.5t168 40t181.5 63.5t140 91q78 80 88 148q2 15 2 28q1 50 -27 92q-36 52 -108 85.5t-158 48.5q-37 6 -85 8t-98 2t-99 -1t-86 -1h-4h-9v-77v-94t-1 -103.5t-1 -102.5 q-2 -117 -4 -246z" />
<glyph unicode="Q" horiz-adv-x="1826" d="M10 735q-12 74 -12 156q0 97 16 207q35 233 126 390t214 252t266 135q129 36 256 36h25q100 -4 210 -30t212 -79t190.5 -136t147.5 -203t81 -277q8 -66 8 -140q0 -103 -17 -221q-27 -176 -76 -325.5t-125 -241.5q39 -43 73.5 -78t68.5 -67.5t69 -64.5t76 -71q8 -7 8 -16 q0 -15 -15 -20q-6 -2 -27.5 -21.5t-45 -43t-44 -46.5t-22.5 -31q-63 43 -107 88t-78 87t-62.5 78t-61.5 59q-57 -41 -111.5 -67t-111 -41t-117.5 -21q-39 -3 -83 -3q-23 0 -48 1q-100 4 -214 31.5t-221.5 85t-201.5 144.5t-157.5 210.5t-88.5 283.5zM41 1038q-6 -65 -6 -125 q0 -177 54 -316q73 -187 201 -313t288.5 -189.5t312.5 -69.5q123 2 236.5 33.5t236.5 107.5q29 -20 50.5 -45t51 -59.5t74.5 -85t119 -123.5q8 12 23.5 28.5t32 33.5t32.5 31.5t29 20.5q-47 35 -85 69t-74 67.5t-72 69.5l-77 77q39 45 78 113.5t71 151.5t55.5 177t33.5 193 q7 75 7 144q0 164 -41 294q-60 184 -176 304t-271.5 178.5t-321.5 60.5q-26 3 -54 3q-45 0 -97 -7q-84 -13 -174.5 -48.5t-179.5 -97t-162.5 -157t-126 -224.5t-68.5 -297zM146 861q-4 34 -4 70q0 85 18 179q29 154 103.5 271.5t176 197.5t220 121t239.5 41 q152 -4 289 -64.5t237.5 -174t149.5 -278.5q32 -106 32 -232q0 -69 -10 -144q-12 -61 -33.5 -131t-50 -136.5t-62.5 -126t-69 -98.5q-37 39 -67.5 71t-60 60.5t-61.5 59.5t-71 71q-16 -27 -41.5 -50t-50.5 -46l244 -254q-76 -57 -173 -92t-210 -35q-23 0 -82 12.5t-128 33 t-131.5 48t-90.5 58.5q-90 76 -156.5 164t-106.5 188t-50 216zM188 854q11 -152 82.5 -292t214.5 -240q84 -59 193.5 -93t210.5 -39q23 -1 44 -1q26 0 49 1q42 3 79 12t72.5 25t72.5 43q-88 94 -133 144.5t-65.5 73t-21.5 25.5l-1 3q-4 6 17.5 30.5t49 52.5t49 50.5 t17.5 26.5q68 -66 101.5 -98.5t56 -54t44 -42t64.5 -57.5q106 123 152 284q36 122 36 246q0 39 -4 78q-14 164 -87.5 310.5t-208.5 242.5q-166 115 -369 121q-172 -8 -309 -85t-231.5 -196.5t-140.5 -268.5q-37 -120 -37 -241q0 -31 3 -61z" />
<glyph unicode="R" horiz-adv-x="1212" d="M7 1640v93q0 86 1 147q68 14 157 22q72 7 150 7h37q98 -2 198.5 -15.5t192 -40t169 -69.5t128.5 -105q80 -95 83 -197v-12q0 -96 -49 -185q-52 -95 -147 -177t-212 -137q6 -10 31.5 -56.5t61.5 -115t79 -153.5t87 -172t85 -170t73 -148q30 -66 50 -107q18 -37 18 -42 q0 -6 -38 -10q-34 -3 -78 -4t-88 -1t-66 -2q-4 -2 -34 63.5t-72 164.5t-89 216t-88 218.5t-69.5 170t-30.5 72.5q-33 -8 -73 -17.5t-82 -16.5t-83 -14t-76 -9q0 -111 4.5 -226.5t8.5 -226.5t8 -210t4 -179h-53t-77 2t-69.5 6t-29.5 12q0 92 -2 241t-4.5 325t-6.5 366.5 t-6 367t-3 324.5zM45 1853q0 -88 2 -232t4 -316t6 -359.5t6.5 -359.5t4.5 -316.5t2 -232.5q40 0 74 1h24q24 0 51 -1q0 205 -9 423t-13 421q31 0 70.5 4t82.5 10t85 14.5t73 18.5l49 16q2 0 19.5 -39t45 -103.5t62.5 -146.5t72 -168t71.5 -168.5t61 -146t42 -102.5t13.5 -39 q-4 2 20.5 1t58.5 -1q33 0 67 2q51 3 51 10q-1 3 -19 40q-20 40 -53 106.5t-76 151.5t-89 174t-89 175t-76.5 152.5t-44.5 87.5l-32 61q98 33 182 92.5t140 133t80 156.5q12 43 12 86q0 39 -10 77q-22 80 -94.5 150.5t-207.5 123.5q-70 27 -168 40.5t-189.5 17.5t-155 4 h-65.5zM190 1722q104 0 210 2h24q95 0 192 -14q92 -12 174 -54t125 -106q34 -51 34 -111q0 -16 -2 -32q-11 -80 -105 -168q-55 -53 -131 -88t-162 -58.5t-176 -42t-176 -38.5zM231 1536.5q0 -78.5 2.5 -159.5t4.5 -160.5t2 -147.5q51 0 132 16.5t166 44t161.5 64.5t117.5 80 q78 80 88 148q2 15 2 28q1 50 -27 91q-36 52 -108 86t-158 48q-37 6 -85 8.5t-100 2.5t-103.5 -1.5t-94.5 -1.5v-146.5z" />
<glyph unicode="S" horiz-adv-x="1208" d="M-2 1319q2 59 13.5 124.5t37.5 117.5q88 168 222.5 251.5t288.5 99.5q38 4 78 3q118 0 238 -35q160 -47 300 -139q6 -10 -8.5 -44t-37 -68t-48 -56.5t-40.5 -9.5q-140 83 -260 109q-80 18 -150 17q-36 -1 -68 -5q-98 -14 -170 -57.5t-115 -98.5q-51 -70 -71 -124 q-10 -27 -10 -52q0 -24 10 -44q20 -42 80 -73t171 -51q88 -16 157.5 -29.5t134 -34t129 -50.5t138.5 -81q70 -47 110 -117q40 -71 54 -153q9 -49 8 -99q0 -35 -4 -71q-10 -88 -41 -169t-80.5 -149.5t-110.5 -111.5q-104 -59 -222 -87t-236 -33q-33 -1 -66 -1q-85 0 -168 9 q-115 13 -213 36q-8 10 -7 48t10 78t25.5 68.5t41.5 22.5q59 -29 151 -41q58 -8 120 -8q36 0 72 3q100 7 198 37t170.5 83t108.5 132q22 48 22 106q0 37 -9 79q-18 86 -69.5 139.5t-123 85t-156.5 49t-170 34t-165 37t-140 59.5t-96 101q-34 59 -34 153v10zM38 1302 q5 -64 32.5 -123t87.5 -100q61 -39 144 -59.5t172 -36.5t177 -33.5t161 -51.5t122 -91t59 -150q4 -38 4 -73q0 -64 -14 -114q-22 -78 -69.5 -129.5t-114 -82.5t-142 -48t-155.5 -23.5t-154 -10.5q-14 0 -44 3t-63.5 9.5t-68 16.5t-61.5 22q-10 -35 -20.5 -78t-16.5 -71 q72 -31 182 -42q64 -6 131 -6q49 0 99 3q118 8 229.5 34.5t187.5 67.5q59 33 108.5 94.5t82 137t48.5 160.5q10 56 10 110q0 28 -3 55q-8 80 -41 148.5t-94 113.5q-74 49 -139.5 78t-131 48.5t-136 33.5t-154.5 37q-4 2 -41 6t-83 17.5t-92.5 39t-68.5 69.5q-13 27 -13 62 q-1 23 5 47q14 64 86 156q80 104 186 144q93 36 189 36h27q110 -6 218.5 -44.5t194.5 -90.5h2q10 6 31.5 45t44.5 76q-129 90 -279 132q-111 31 -220 31q-38 0 -76 -4q-146 -15 -273 -95t-207 -236q-25 -48 -38 -112q-9 -46 -9 -93q0 -17 1 -35z" />
<glyph unicode="T" horiz-adv-x="811" d="M6 1696v213h123h178.5h208h211.5t188 1t142 1q0 -27 -1 -60.5t-2 -65.5t-2 -55.5t-3 -29.5l-15 -4h-79.5h-38h-23.5h-34.5h-72h-135.5q-4 -207 -9 -422t-7 -432v-96q0 -168 5 -336q7 -215 32 -422q-88 2 -134 3t-69 2t-28 2t-9 5q-2 0 -2 2q-2 90 -2 223v290t1 325 t3 326.5t2 295.5v234q-23 3 -62 3q-20 0 -44 -1q-70 -2 -141.5 -4t-126 -3t-54.5 5zM47 1735q74 0 184.5 1t239.5 1q2 -90 2 -226.5v-296t-1 -329.5t-3 -330t-2 -297v-229h158q-16 100 -23.5 235t-8.5 288v77q0 117 2 239q3 162 8 318q5 154 8 296q2 85 2 160q0 50 -1 95 h125h82h53.5h41h45h63.5v141q-238 0 -488.5 -3t-486.5 -5q1 -27 1 -48v-20q-1 -26 -1 -67z" />
<glyph unicode="U" horiz-adv-x="1357" d="M2 1182.5v306t1 258.5t3 162q61 0 106.5 2t86.5 2h2l8 -4l2 -2q2 -49 2 -169v-274.5t2 -327.5t9 -327t18.5 -272.5t31.5 -165.5q20 -49 49 -81t68 -50.5t88 -28.5t113 -16q31 -3 59 -3q62 0 112 15q73 22 122 60t77.5 81t38.5 76q20 66 36 173.5t25 238.5t14 276 q5 144 8 288q2 108 2 209v67q-1 132 -3 237q14 0 48 3t69 4h14q28 0 50 -3q28 -4 34 -19q0 -33 -2 -121.5t-3 -206.5t-3 -249t-4 -249t-4 -207t-4 -122q-4 -90 -16.5 -194.5t-49 -201.5t-107.5 -180t-192 -130q-152 -59 -308 -67q-21 -1 -42 -1q-131 0 -243 42 q-130 48 -213.5 151.5t-92.5 263.5q-4 59 -6 179t-4 268.5t-2 309zM43 1446q0 -141 1 -297t2 -298t3 -255t6 -168q10 -152 88 -246t194 -136q97 -35 213 -36q22 0 44 2q141 8 278 62q88 33 154 80t109 123.5t67.5 190.5t34.5 280q2 31 4 117.5t4 201.5t4 244t3 244.5 t3 202.5t2 118q-35 0 -70.5 -2t-70.5 -2q4 -98 6 -238q1 -70 1 -144q0 -76 -1 -154q-2 -156 -9 -316t-19.5 -297t-32 -238.5t-45.5 -140.5q-35 -49 -72 -84t-87 -58.5t-117.5 -34.5t-159.5 -11q-35 0 -88.5 12t-104.5 32.5t-93 48t-54 58.5q-25 57 -39.5 178t-22.5 274.5 t-10 324.5q-1 86 -1 167t1 159q2 155 4 277.5t4 184.5q-33 -2 -64.5 -3t-64.5 -1q-2 -55 -3 -168t-1 -254z" />
<glyph unicode="V" horiz-adv-x="1566" d="M-9 1793q0 9 13 17q43 12 89 48t75 65q4 2 28.5 -54.5t62.5 -152.5t87 -223t103.5 -265t111.5 -280.5t110.5 -269.5t101.5 -229.5t83 -161.5q2 2 38 72.5t92 184t127 259t144.5 297t143 296t125 256t89.5 180.5t36 66l8 5q16 16 40.5 2.5t47 -39t40 -55t21.5 -44.5 l-36 -75q-35 -74 -95.5 -198t-136.5 -280.5t-155.5 -321.5t-156.5 -322.5t-137.5 -280.5t-97.5 -199l-37 -76q-6 -6 -32 -9t-58 -5q-21 -1 -41 -1h-20q-29 1 -39 5q-35 57 -87 162.5t-111.5 239t-124 286t-127 303t-119 288.5t-99.5 245.5t-69.5 174t-28.5 71.5q-9 9 -9 19z M47 1782l25 -62q24 -61 65 -162.5t94.5 -235.5t114 -279.5t122.5 -296t120.5 -284.5t109 -242.5t86.5 -174.5q2 -4 22.5 -5t45.5 -1t46.5 1t25.5 -1l-2 -2q6 0 4 2l34 75q35 74 93.5 196t132.5 277.5t152.5 317.5t153.5 316.5t133 276.5t95 196l37 73v9q-16 25 -34.5 51 t-41.5 37q-2 0 -36.5 -70t-91 -184.5t-128 -259t-145.5 -296t-145.5 -297t-128 -258t-90 -181t-35.5 -66.5q-25 -8 -36 -8t-18 10q-33 53 -77.5 150.5t-96 219t-106.5 260t-107.5 275.5t-100.5 262t-85 222.5t-59.5 156t-26.5 62.5q-23 -20 -57.5 -45t-63.5 -35z" />
<glyph unicode="W" horiz-adv-x="2336" d="M-9 1787q0 10 13 17q43 12 88 45t74 62q14 6 26.5 -3.5t10.5 -25.5q2 -2 25.5 -60.5t60.5 -155.5t84 -223t100 -263.5t108.5 -276.5t105.5 -262t94 -220t75 -153q10 10 40 67.5t67.5 137.5t80.5 169t80 165t65 125t34 49q18 8 28 -6q41 -82 79 -166t78 -172t86 -180 t103 -189q2 2 38 74t92.5 187.5t127 263t144.5 301t143.5 301t124.5 261t89 183.5t36 68q10 9 22 9q4 0 7 -1q12 -4 32.5 -15.5t40 -29t35 -41t21.5 -53.5l-36 -76t-96.5 -199t-136 -281.5t-155.5 -323.5t-157 -322.5t-137 -281.5t-97 -200l-37 -76q-6 -6 -35 -9t-62.5 -4 t-61.5 0t-32 3q-37 59 -74.5 129t-74.5 142.5t-72 143.5t-65 132q-43 -86 -90.5 -180t-86.5 -174q-45 -94 -88 -183q-8 -6 -34 -10q-28 -4 -58 -5q-15 0 -29.5 -0.5t-28.5 0.5q-28 1 -40 5q-35 57 -87 161.5t-111.5 238t-124 285t-127 301t-119 287.5t-99.5 245.5t-69.5 173 t-28.5 69.5q-9 9 -9 20zM47 1776l25 -60q24 -61 65 -162.5t94.5 -234.5t114 -278.5t122.5 -294t120.5 -282.5t109 -242.5t86.5 -174.5q2 -4 22.5 -5t45.5 -1t46.5 1t25.5 -1l-2 -2q6 0 4 2q2 -2 24.5 42t54 112.5t69.5 149.5t70 150.5t54 115.5l21 46h2q0 2 2 5h6 q53 -139 132 -300t165 -315q2 -4 22.5 -5t45 -1t46 1t25.5 -1l-2 -2q6 0 4 2l35 75q35 74 93 197t132 279t153 318.5t153.5 318t133 277.5t95.5 196l37 74v8q-16 25 -35 51.5t-41 36.5q-2 0 -37 -70.5t-91.5 -187.5t-128 -264.5t-145 -301t-145.5 -301t-128 -262t-90 -184.5 t-36 -68q-25 -8 -36 -8t-17 11q-59 94 -101.5 182t-79 173t-74.5 166t-87 165q-23 -43 -56.5 -110t-70.5 -141.5t-74 -150.5t-67.5 -137t-52 -102t-25.5 -48q-25 -8 -36 -8t-18 11q-33 53 -77.5 151t-96 221t-106.5 262.5t-107.5 276.5t-100.5 264t-85 224.5t-59.5 156.5 t-26.5 63q-23 -20 -57.5 -44.5t-63.5 -34.5z" />
<glyph unicode="X" horiz-adv-x="1648" d="M-16 1747l180 162q57 -96 114.5 -185.5t126 -185.5t154.5 -207.5t201 -251.5l649 830q5 4 13 4q10 1 25 -7q26 -14 53.5 -35.5t53 -45t37.5 -33.5q-39 -47 -109.5 -139t-162.5 -211t-200.5 -254t-221.5 -270q113 -135 221.5 -261.5t200.5 -233t162.5 -189t109.5 -130.5 q-39 -33 -75.5 -65.5t-81.5 -54.5q-158 172 -269.5 297t-186.5 211t-119 138t-66.5 79.5t-27.5 36.5l-5 8q-217 -262 -367.5 -461t-228.5 -305l-174 157q0 4 -1 4.5t-1 2.5l635 763q-4 2 -50.5 67t-128.5 176.5t-198.5 262t-261.5 326.5zM33 152l121 -103q-2 0 42 56.5 t110.5 140.5t144 182t145.5 182t112 141.5t44 59.5t2 0t19.5 -22.5t58 -67.5t115.5 -134t191.5 -222.5t288.5 -333.5q31 27 53.5 41t55.5 39q-154 188 -263.5 318t-184 217t-119.5 137.5t-71 77t-37 37.5t-17 20q2 2 6 7t23.5 28.5t61.5 75.5t117.5 147.5t193.5 244 t290 365.5q-33 25 -55.5 39t-53.5 41q-41 -47 -107.5 -136.5t-153.5 -203t-190.5 -245.5t-213.5 -263q2 4 0 4t0 -4l-2 -2q-174 207 -287 356.5t-180.5 248.5t-98 153.5t-40.5 72.5l-121 -102l649 -827z" />
<glyph unicode="Y" horiz-adv-x="1167" d="M-10 1763l174 158q27 -45 81 -124t118.5 -172t133 -188.5t126 -173t95.5 -129t42 -55.5l649 842q8 6 18 6q11 0 25 -7q27 -13 54.5 -35.5t51 -46t33.5 -34.5q-27 -41 -91 -124t-144 -182t-166 -205.5t-156.5 -191.5t-117.5 -139q-46 -53 -48 -53q-3 0 -5 -40 q-3 -48 -5 -130t-4 -186t-3 -208.5t-2 -198t-1 -154.5q-10 0 -46 1t-76 2t-74 3t-36 4q0 10 1 56t3.5 118t5.5 162t5 186.5t3 192.5v63q0 62 -1 119q-162 197 -272.5 337t-181 236.5t-109.5 152.5t-56.5 87t-20.5 40t-3 11zM33 1757q4 -10 52 -73.5t117.5 -154.5 t149.5 -194.5t148.5 -192.5t116 -151.5t51.5 -68.5q0 -125 -1 -229.5t-2 -207t-2 -209t-1 -235.5q41 0 73.5 -3t73.5 -5l20 889l707 876q-33 25 -55.5 39t-53.5 41q-41 -47 -107.5 -138t-153.5 -208t-190.5 -250t-213.5 -264l-2 -2l-606 844z" />
<glyph unicode="Z" horiz-adv-x="1400" d="M2 286q0 38 2 40q4 2 53 60t129 153.5t179.5 217.5t202 249t200.5 248.5t174 218t120 157t40 64.5q0 -2 -76 -8.5t-189.5 -12.5t-245.5 -14t-248 -16.5t-195.5 -14.5t-86.5 -10q-4 14 -11 54t-12 86t-7 88t2 59q137 0 248.5 1t211 3t191.5 4t190.5 4t210 2h250.5 q15 -58 15 -118v-11q-1 -28 -1 -56q0 -37 1 -75q0 -6 -48.5 -71.5t-129 -168t-185 -231.5t-213 -264.5t-214 -264.5t-188.5 -230t-136.5 -165.5t-57.5 -68.5q174 8 314.5 13t272.5 9t268 6t306 2q-8 -35 -6 -62.5t5 -53t3 -51t-12 -54.5q-145 -4 -260 -4h-213t-188 2 t-186.5 2h-207t-251.5 -4q-6 35 -10.5 89t-7.5 106.5t-3 90.5zM33 238.5q0 -31.5 3 -67.5t9 -70.5t10 -59.5q143 4 252 4t199 -1t172 -3t172 -3h94.5h103.5q108 1 250 5q0 33 -2 48t-3 26.5t-1 27t2 48.5h-2q-127 -4 -225 -7.5t-183 -6.5t-163 -5t-163 -5t-184.5 -6 t-223.5 -7q-10 2 -14.5 11t-4.5 20.5t4 20.5t15 13q2 0 54 61.5t134 162t185.5 228.5t211 261t211 262t184 229.5t130 163t49.5 64.5q-1 33 -1 66v51q0 8 1 15q0 51 -9 99q-141 -2 -248.5 -4t-198.5 -4t-173 -4t-172 -3t-195.5 -3t-240.5 -2q4 -18 3 -43t-2 -50.5t0 -51 t7 -44.5q86 2 219 8.5t282.5 15.5t301 19.5t274.5 20.5h2q4 -2 12.5 -14.5t10.5 -8.5l-1143 -1423q-6 -23 -6 -54.5z" />
<glyph unicode="[" horiz-adv-x="550" d="M39 33q0 108 1 242.5t2 288t2 310t2 309t2 287t1 244v176.5q4 18 17 19q2 2 6 2q27 0 85 1t119.5 3t116 5t74.5 5q10 -23 14 -55.5t6 -64t1 -57.5t-3 -34q-41 -12 -105.5 -11t-119.5 -9q-2 -115 -4 -261.5t-4 -306t-3 -322.5t-1 -306.5t2 -260t8 -184.5q12 2 48 11.5 t75 13.5t71.5 1t39.5 -22q-6 -55 -2 -118.5t-9 -102.5q-170 4 -258 3t-128 -1t-46 2t-10 13v4v176zM80 -131q131 4 203.5 6t106.5 4t42 3t12 1q6 82 7 160q-20 -2 -53 -8t-68 -12.5t-65 -9.5t-44 3q-8 76 -11 197t-3 268.5t3 313.5t6 330.5t6 321.5t5 288q20 0 54 2l68 4 t59.5 2t31.5 -4q0 8 -1 30.5t-2 47t-3 44t-6 23.5q-20 0 -67.5 -3t-100.5 -5t-101 -4t-69 -2q0 -88 -1 -246t-2 -351.5t-2 -403.5t-2 -403.5t-2 -351t-1 -245.5z" />
<glyph unicode="\" horiz-adv-x="1144" d="M26.5 1640.5q-6.5 12.5 8.5 26.5q27 18 48 28.5t41.5 18.5t40 15.5t44.5 19.5h6q12 4 25 -8q43 -82 111.5 -212t152.5 -284.5t173 -321.5t173 -322t152.5 -285t111.5 -210l2 -4v-10v-2q2 -2 -2 -6q-2 -2 -12 -8l-8 -13l-185 -96q-18 -4 -24 8.5t4 24.5q-10 14 2 27 q-8 37 -24.5 69.5t-30.5 67.5q-29 70 -88.5 186.5t-135 258t-158.5 294t-161 291.5t-142.5 254t-99.5 180q-18 0 -24.5 12.5zM88 1649q29 -53 86 -158t128 -233t147.5 -268t147.5 -269t126 -232.5t84 -158.5q12 -23 31.5 -60t39 -80t35 -86t19.5 -77l141 71 q-41 78 -109.5 206t-150.5 280.5t-171 316.5t-171 316.5t-149.5 280.5t-108.5 206q-37 -20 -62.5 -29.5t-62.5 -25.5z" />
<glyph unicode="]" horiz-adv-x="559" d="M37 57q6 18 39 21.5t71.5 -0.5t74.5 -13.5t48 -11.5q4 68 7.5 184.5t3.5 260t-1 306.5t-3.5 322.5t-4.5 306t-4 261.5q-55 10 -119.5 9t-105.5 11q-2 8 -3 34t1 57.5t6 64t14 55.5q20 -2 74.5 -5t116 -5t119 -3t86.5 -1q4 0 6 -2q12 0 16 -19v-177t1 -243.5t2 -287 t2 -309t2 -310t2 -288t1 -243v-175.5v-4q-4 -10 -10 -12.5t-46 -2.5t-129 1t-257 -3q-12 39 -8 102.5t-2 118.5zM78 43q0 -78 6 -160q4 0 12 -1t42 -3t105.5 -4t205.5 -6q0 88 -1.5 245.5t-2.5 351t-2 403.5t-2 403.5t-2 351.5t-1 246q-20 0 -68 2t-101.5 4t-100.5 5t-68 3 q-4 -4 -6 -23.5t-3 -44t-2 -47t-1 -30.5q6 4 31.5 4t59.5 -2l68 -4t54 -2q2 -131 5 -288t6 -321.5t6.5 -330.5t3.5 -313.5t-3.5 -268.5t-11.5 -197q-14 -6 -44 -3t-64.5 9.5t-67.5 12.5t-53 8z" />
<glyph unicode="^" horiz-adv-x="886" d="M10 1284q-16 12 4.5 37t66.5 77t113.5 139t147.5 222q4 0 30.5 -1t58.5 -3t59.5 -8t37.5 -14l22 -30q23 -30 57 -75t73 -96t72.5 -95t55.5 -74l21 -30q6 -12 -7 -30.5t-33.5 -37t-44 -33.5t-37.5 -20q-10 -4 -31 16.5t-46.5 52.5t-54 72t-54 75.5t-46.5 64.5t-31 37 q2 -2 -17 -27.5t-49 -63.5t-67 -82t-69.5 -82t-55 -63.5t-24.5 -25.5q-29 29 -69 57.5t-83 40.5zM47 1317q29 -10 62.5 -35t56.5 -45q4 4 25.5 31.5t51 66.5t63.5 82t63.5 80t50 61.5t24.5 24.5q8 0 28 -23.5t45.5 -58.5t54 -77t55 -78.5t48 -62.5t32.5 -30q23 8 47.5 24.5 t40.5 47.5q-2 0 -24.5 27.5t-55.5 70.5t-72 93.5t-71.5 93.5t-54 71.5t-19.5 28.5q2 2 -4 2l2 -2q-4 -2 -25.5 -1t-46.5 1h-45.5t-22.5 -4q-104 -147 -164.5 -226t-92 -115t-41 -41t-11.5 -7z" />
<glyph unicode="_" d="M6 -2q0 57 5 97t5 95q0 18 21 23q274 -4 550.5 2t553.5 2q14 -6 17 -14t7 -25l-2 -180q2 0 -64.5 1t-173 1t-238.5 1t-261 0t-240.5 -1t-179.5 -2zM47 37h164.5h223.5h242t221 -1t162 -1h62l2 141q-266 4 -533 -2t-534 -2q0 -41 -3 -67.5t-7 -67.5z" />
<glyph unicode="`" horiz-adv-x="630" d="M10 1614q-10 18 13.5 40.5t57.5 44t66.5 39t40.5 21.5q6 4 18.5 -2t51.5 -43t117 -116.5t215 -225.5q4 -12 -14.5 -34.5t-44 -44t-50 -37t-32.5 -11.5q-10 12 -43 41t-79 66t-97.5 77.5t-97.5 77.5t-80 66t-42 41zM63 1628q6 -8 36 -34.5t72 -61.5t89 -75t88 -74.5 t71 -62.5t38 -36q27 20 46 37.5t46 38.5l-356 362q-29 -16 -65 -46.5t-65 -47.5z" />
<glyph unicode="a" d="M2 201q-1 17 -1 33q0 77 30 151q37 90 101.5 166t148.5 131t170 78q51 14 109 19t116.5 5t114 -6t104.5 -14q-37 68 -91 99.5t-121 38.5q-23 2 -47 2q-46 0 -92 -8q-72 -13 -142 -35.5t-135.5 -50.5t-116.5 -50q-12 18 -19.5 31.5t-12.5 28t-12.5 31.5t-19.5 44 q-8 12 -5 21.5t13 11.5q68 45 157 88t185 70.5t194 32.5q15 1 30 0q82 0 153 -23q98 -33 162.5 -99.5t103.5 -154.5t55 -192q17 -104 18 -214v-25q0 -97 -7 -195q-8 -110 -19 -208q-2 -8 -28 -11q-20 -2 -44 -2h-16q-32 1 -62 5t-36 10q-2 43 -5 83q-1 13 -1 27q0 28 4 60 q-35 -35 -71 -57.5t-77.5 -38.5t-88 -29.5t-99.5 -27.5q-39 -10 -97.5 -18.5t-124.5 -9.5h-16q-58 0 -116 6q-66 7 -119 30.5t-89 62.5t-38 103zM45 207q6 -33 25.5 -60.5t46 -49t56.5 -35t54 -17.5q47 -7 100 -6q43 0 91 4q106 10 211.5 39t198 71t151.5 91q6 -2 5 -30 t-4 -62.5t-4 -67.5t5 -45q6 0 19.5 -1t28.5 -1t31.5 2t26.5 8q6 72 13.5 157t9.5 175v45q0 67 -4 134q-6 89 -25.5 171t-57.5 150.5t-97 115.5q-84 68 -190 80q-38 4 -76 4q-68 1 -138 -13q-110 -22 -212.5 -66t-182.5 -87q4 -8 9 -22t9.5 -29.5t9.5 -29t9 -21.5 q51 25 120.5 54.5t147.5 51t158 28.5q22 2 43 1q57 0 107 -12q70 -18 125 -68.5t83 -144.5q-118 23 -238 27h-29q-105 0 -203 -24q-112 -28 -208 -91.5t-161 -175.5q-29 -51 -51 -121q-16 -48 -16 -92q0 -19 3 -37zM168 322q10 52 48 101.5t89 86.5q63 47 149.5 80t177.5 42 q32 3 64 3q58 -1 116 -11q89 -16 163 -65q-1 -18 -1 -36q0 -27 2 -54q1 -19 1 -39q0 -26 -2 -51q-39 -51 -125 -98.5t-188 -80.5q-102 -32 -202 -46q-44 -6 -82 -5q-47 0 -83 9q-81 24 -109 68q-20 32 -21 69q0 13 3 27zM209 311q-1 -8 -1 -15q0 -40 20 -64q22 -28 56 -38 q32 -10 71 -9h7q44 1 84 8q35 4 94.5 17t128 36.5t139.5 58.5t128 84q1 33 1 57v22v21q0 22 1 46q-44 35 -114 48q-51 9 -106 9q-21 0 -44 -1q-80 -5 -162 -26.5t-148.5 -58.5t-109.5 -86t-45 -109z" />
<glyph unicode="b" horiz-adv-x="1488" d="M63 4q7 226 7 451q0 169 -4 337q-4 161 -4 322q0 232 8 463q2 13 28 19q21 4 47 4h15q35 -2 68.5 -3.5t50.5 2.5h26t9 -14t-3 -49t-10 -106.5t-11 -187.5t-7 -290q35 35 91 62.5t113.5 48t106.5 33t74 18.5q62 15 126 15q34 -1 70 -5q100 -12 190.5 -52t164 -103.5 t117.5 -146.5t54 -181q2 -19 1 -39q0 -80 -31 -166q-43 -119 -120 -205t-174 -142t-210 -84t-229 -28h-58.5t-89.5 8.5t-99 27t-89 57.5q-2 -2 -1 -16.5t2 -31t0 -29.5t-7 -13q-4 -2 -32 -2.5t-61.5 -0.5t-64.5 1.5t-39 1.5q-20 4 -25 24zM104 20q33 0 73 1h26q25 0 45 -1 q0 43 2 70t3 41t3 19l2 6q100 -86 232 -116q80 -18 159 -18q52 0 105 8q133 20 256 81t206 157q82 98 112 222q11 46 11 95q0 83 -32 175q-43 109 -118 179.5t-167 105t-196 38.5q-15 1 -31 1q-89 0 -177 -20q-102 -24 -197 -72t-171 -113q-2 2 -3 8t-1 27.5t1 63.5t3 115.5 t7 186.5t13 276q-21 -2 -42 -2q-19 0 -39 2q-23 2 -43 1q-18 0 -35 -1q-6 -228 -6 -453q0 -157 3 -315q3 -148 3 -298q0 -234 -7 -470zM245 638q0 23 -0.5 42.5t0.5 35.5q1 32 7 36q55 55 140 100t181.5 70.5t195.5 28.5h20q88 1 167 -23q88 -26 154 -88t94 -166 q13 -46 13 -90q0 -60 -25 -113q-43 -92 -129 -158.5t-203 -104.5q-116 -38 -232 -41h-19q-105 -1 -199 31q-102 34 -158 115q2 6 2 41t-2 82t-4 101.5t-3 100.5zM281 711l14 -379q55 -63 146 -95t193 -33h6l196 28q102 30 181 86.5t123 139.5q34 64 34 142q0 23 -3 47 q-10 92 -67 149.5t-139 83.5q-79 26 -173 26h-8q-98 -1 -193 -24.5t-178 -67.5t-132 -103z" />
<glyph unicode="c" horiz-adv-x="1388" d="M10 445q-6 33 -6 67q0 139 98 285q115 166 265.5 252t365.5 86q121 -2 226.5 -28t216.5 -67q14 -14 20 -19t2 -26q-12 -18 -26.5 -47.5t-28 -58.5t-24.5 -48.5t-19 -15.5q-61 43 -141 63q-73 18 -150 17h-16q-86 -2 -171 -21.5t-157 -55t-123 -84t-68 -105.5 q-23 -77 -23 -139q0 -43 11 -78q27 -86 97.5 -134t172.5 -60q49 -6 99 -7q55 -1 113 7q110 14 216.5 51.5t186.5 91.5q6 14 29 8q18 -14 38.5 -33.5t38 -41t30.5 -42t22 -35.5q-16 -18 -44 -35.5t-61 -33t-64.5 -28.5t-54.5 -24q-106 -47 -215.5 -75.5t-219.5 -29.5h-6 q-106 1 -210 31q-108 32 -209 105q-181 137 -211 308zM49 540q-1 -12 0 -23q0 -99 44 -183q50 -94 150.5 -166t233.5 -107q87 -24 172 -24q53 0 105 9q136 24 266 77q16 6 46 18.5t62.5 27.5t65.5 30.5t55 31.5q-8 14 -31.5 47t-50.5 56q-80 -59 -193 -99q-114 -39 -232 -51 q-44 -4 -86 -5q-73 1 -143 13q-112 20 -190.5 76t-110.5 152q-14 43 -14 96q0 64 21 143q14 49 66.5 104.5t135.5 100.5t193 73q88 22 187 22q25 0 51 -1q66 -4 125 -29.5t113 -47.5q16 33 36.5 60.5t30.5 62.5v2q-106 39 -206.5 61.5t-217.5 26.5h-26q-177 0 -313 -77 q-146 -83 -257 -245q-82 -120 -88 -232z" />
<glyph unicode="d" horiz-adv-x="1439" d="M1 565q9 101 55 188t122 155.5t169 114.5q93 45 199 65q65 12 130 13q40 0 80 -5q25 -4 69.5 -13.5t96 -28t102.5 -44t86 -60.5q-2 174 -7 290t-11.5 187.5t-10.5 106.5t-3 49t9.5 14h26.5q16 -4 50 -2t69 3h11q28 0 50 -4q26 -5 29 -19q7 -223 7 -448q0 -168 -4 -336.5 t-4 -337.5q0 -225 7 -451q-4 -21 -24 -25q-8 0 -39 -1t-65 -1h-61.5t-31.5 2q-6 0 -7 13.5t0 30t2 31t-1 16.5q-63 -43 -126 -63.5t-116 -29t-93 -9.5t-58 -1q-117 0 -220.5 17.5t-191.5 61.5t-155.5 120t-110.5 194q-32 86 -32 169q0 19 2 38zM62 418q30 -119 114 -207 t206 -140.5t256 -62.5q30 -2 59 -2q104 0 206 27q131 35 232 121l2 -6q2 -5 3 -19t3 -41t2 -70q21 1 45 1h26q40 -1 72 -1q-6 226 -6 452q0 158 3 315t3 315q0 226 -6 454q-15 1 -30 1q-23 0 -49 -2q-18 -1 -35 -1q-23 0 -46 2q8 -164 13.5 -276.5t7.5 -186t3 -115.5 t1 -63.5t-1 -27.5t-3 -8q-76 66 -171 107q-94 42 -198 58q-55 8 -111 8q-47 0 -97 -6q-104 -14 -197 -58t-167.5 -118.5t-117.5 -185.5q-32 -92 -33 -173q0 -47 11 -91zM186 596q29 104 95.5 171t153.5 103t187 42q27 2 55 2q72 0 142 -14q96 -18 180 -56.5t142 -93.5 q6 -4 7 -36v-35.5v-42.5q-1 -46 -3 -100.5t-4 -101.5t-2 -82t2 -41q-57 -80 -158.5 -119.5t-218.5 -45.5q-19 -1 -38 0q-98 0 -194 23q-116 28 -203 86t-130 144q-25 51 -25 110q0 41 12 87zM229 559q-1 -14 -1 -27q0 -76 38 -134q45 -68 121 -113t173 -65q77 -16 156 -15 q20 0 40 1q100 5 190 35.5t152 88.5l14 379q-70 68 -160 105.5t-186 48.5q-41 5 -81 5q-55 0 -109 -9q-94 -15 -168 -54t-123 -101.5t-56 -144.5z" />
<glyph unicode="e" horiz-adv-x="1370" d="M4 544.5q0 57.5 10.5 114t30.5 105.5q55 131 165 217q108 86 240 127q117 37 241 37q15 0 30 -1q139 -5 251.5 -57.5t183.5 -151.5q69 -96 69 -239v-8q-111 -20 -236 -45t-254 -50.5t-256 -51t-243 -45.5l-5 -4q16 -96 80 -160t153 -98q88 -34 194 -40q26 -2 53 -1 q78 1 150 15q97 20 178 60.5t124 102.5q8 8 39 -18.5t58.5 -63.5t39.5 -71q4 -11 5 -19q0 -16 -17 -17h-4q-96 -82 -206.5 -133t-225.5 -71q-72 -12 -144 -12q-42 0 -84 4q-114 12 -218.5 55t-193.5 117.5t-153 183.5q-29 49 -42 105t-13 113.5zM59 512q8 -102 49.5 -180 t101.5 -136.5t136 -96.5t156 -60.5t160 -29.5q43 -4 82 -4q34 0 65 3q61 6 134 32t138.5 58.5t113.5 65.5t60 49q0 2 1 2t1 2q-10 29 -34.5 55.5t-44.5 49.5q-61 -66 -154.5 -110t-199.5 -60q-60 -9 -120 -10q-46 0 -92 6q-106 12 -196 56t-153 122.5t-77 195.5 q240 55 494 100.5t496 86.5q-2 115 -52.5 194.5t-130.5 127.5q-80 47 -177 63q-51 8 -102 9q-46 0 -91 -7q-131 -18 -240 -66.5t-184.5 -123.5t-112.5 -174q-29 -78 -29 -170q0 -24 2 -50zM176 706q4 22 15.5 46t19.5 36q31 47 102.5 91.5t161.5 74.5q89 30 187 42 q47 6 91 5q47 -1 90 -7q83 -14 140 -56.5t66 -124.5q2 0 -34 -6t-94.5 -18.5t-133 -28t-152.5 -30.5t-153.5 -30.5t-135 -28t-78.5 -15.5l-55 -9q-27 1 -34 19q-4 11 -4 25q0 7 1 15zM217 688q4 0 62.5 11.5t144.5 28.5t186.5 36.5t186.5 37t144 28t63 10.5 q-31 57 -98.5 84.5t-151.5 30.5h-23q-73 0 -153 -16q-92 -19 -169 -55t-130.5 -86.5t-61.5 -109.5z" />
<glyph unicode="f" horiz-adv-x="808" d="M2 883.5q0 29.5 2 57.5t4 46q8 8 40 13.5t71 6.5t76.5 2t58.5 1q0 127 6 230t39 183t101.5 135.5t191.5 88.5q5 2 10 2q11 0 24 -7q21 -12 42.5 -32.5t41 -46t32 -48t12.5 -39t-15 -16.5q-123 -8 -181 -44t-78 -94q-18 -51 -18 -119v-20q3 -81 3 -179q61 4 122.5 8 t123.5 6q14 4 21 -33t9 -82q1 -15 1 -29q0 -29 -3 -54q-4 -38 -12 -34h-262q-4 -209 -4 -399t-4 -379q-10 0 -41 -3t-66 -5t-63.5 -2t-34.5 4q-6 -2 -9 29.5t-4 118.5v66q0 73 1 176q2 153 6 394q-6 0 -42 -2t-78 -5t-77 -4t-35 1q-8 20 -10 49t-2 58.5zM45 817q8 0 36 1 t62.5 3t69.5 4t59 2q2 -2 3 -58l2.5 -140t1.5 -182.5t1 -184.5t1 -147.5t2 -71.5q35 2 70.5 3t70.5 1q0 193 -3 387v62q0 164 13 331h271q2 -4 2 18.5t-1 50.5t-1 52.5v28.5q-68 -2 -135.5 -7t-135.5 -7q-6 104 -11 197q-1 18 -1 34q0 73 18 131q21 72 81.5 118t185.5 54 q-23 31 -44.5 58.5t-48.5 48.5q-125 -10 -192.5 -77t-97 -159t-32.5 -198q-1 -45 -1 -87q0 -57 2 -108q-6 0 -34 -1t-64.5 -3t-76.5 -4t-71 -4q-1 -17 -1 -35.5t1 -37.5q1 -13 1 -25q0 -25 -3 -48z" />
<glyph unicode="g" horiz-adv-x="1378" d="M28 378q-17 57 -17 121q0 67 18 142q10 41 27.5 77t37.5 68q66 102 186.5 175t261.5 102q79 16 157 16q62 0 123 -9q139 -23 239 -112q0 25 -4 55.5t-6 59.5t-1 52.5t7 35.5q53 -2 111.5 -9t111.5 -9q0 -33 1 -68t1 -74q2 -113 4 -243q1 -86 1 -174v-90q-1 -134 -4 -265 t-13 -244.5t-26.5 -201.5t-43.5 -137q-49 -90 -130 -149.5t-177 -91.5t-203 -37q-20 -1 -40 -1q-85 0 -168 17q-101 22 -192 67t-157 115q2 10 22.5 39.5t47 60.5t50 54.5t30.5 23.5q86 -78 182 -115t187 -38h5q88 0 167 33q81 34 138.5 97.5t85.5 154.5q17 58 17 125 q0 39 -6 81q-104 -63 -231 -87q-80 -15 -161 -15q-45 0 -91 4q-125 14 -240 63t-195 132t-113 199zM63 479q14 -127 69.5 -215t137.5 -142t186 -76q80 -16 165 -16q24 0 47 1q110 6 220 37t206 82q8 -31 9 -90v-13q0 -54 -7 -113q-9 -65 -27 -125.5t-47 -93.5 q-78 -86 -168 -131t-186 -49h-18q-88 0 -177 35q-98 39 -192 121q-6 -8 -18.5 -24.5t-27 -35t-26.5 -35t-21 -22.5q96 -86 217 -124q115 -36 232 -36h12q123 2 234.5 38t191.5 99q45 37 76 98.5t49.5 134.5t27.5 146.5t9 132.5q2 98 3 224.5t1 264.5t-2 280.5t-4 271.5 q-2 4 -22.5 5t-45 0t-46 0t-25.5 5q0 -53 3 -116.5t3 -116.5q0 -4 -25.5 14t-63.5 44t-81 50.5t-78 32.5q-61 12 -129 12q-21 0 -43 -1q-92 -5 -183 -31.5t-175 -73.5t-145.5 -112.5t-94.5 -150.5q-24 -62 -24 -133q0 -26 3 -53zM184 549q10 104 68.5 178t145.5 117t190 54 q38 4 75 4q65 0 127 -12q99 -20 181 -70t127 -130l4 -383q-57 -49 -129 -83t-151 -52t-160 -24q-36 -2 -72 -2q-45 0 -90 4q-61 6 -124 46t-110 97t-72 125q-15 43 -15 85q0 23 5 46zM225 543q4 -115 48 -188.5t114 -113.5t158 -51q37 -4 74 -4q52 0 105 8q91 15 179 48.5 t158 81.5q-2 137 -3 211.5t-3 109.5t-3 42l-1 7q-55 61 -132 100.5t-162 54.5q-51 9 -102 9q-35 0 -69 -4q-86 -10 -159 -47t-127.5 -102.5t-74.5 -161.5z" />
<glyph unicode="h" horiz-adv-x="1298" d="M33 -12q4 55 6 154.5t2 222t-1 262t-2 276.5t-3 262t-2 222.5v156t4 62.5q12 -1 24 -1q30 0 60 4q41 5 75 7h11q25 0 43 -8q22 -10 26 -37q0 -4 -1 -53.5t-2 -120t-2 -153.5t-3 -152.5t-4 -115.5t-4 -46q78 88 171 147.5t214 75.5q55 8 104 7q99 0 171 -32 q106 -48 165.5 -139.5t82 -216.5t26.5 -258q2 -59 2 -118q0 -73 -3 -145t-3 -135q0 -51 2 -96v-4q-4 -14 -33 -17q-22 -2 -48 -2h-17q-36 1 -71.5 5t-51.5 4q0 41 2 111.5t4 154.5t2 175.5t-6 174.5t-20.5 151.5t-39.5 107.5q-23 37 -67 51q-42 13 -91 13h-7 q-52 -1 -106 -12t-93 -28q-92 -37 -146.5 -104.5t-95.5 -167.5q-6 -16 -8 -42t-2 -53.5v-53v-42.5q0 -164 -1 -255t-3 -136t-4 -55t-4 -12q-4 -1 -12 -1q-12 0 -32 2q-34 3 -75 5t-79 3t-54 -5zM76 29q41 2 85 3h12q37 0 71 -5v153.5t1 160.5t6 159t17 147q14 76 60.5 136.5 t110 103.5t138 67.5t145.5 29.5q17 1 32 1q52 -1 98 -13q59 -16 94 -54q23 -25 37 -82.5t23.5 -134t12.5 -164.5t3 -177.5t-4 -171.5t-8 -143q12 -4 33.5 -5t43 -1h39h25.5q4 124 4 235q0 138 -6 256q-10 212 -61.5 349t-155.5 197q-73 43 -182 43q-45 0 -97 -7 q-51 -6 -100 -20.5t-100.5 -45t-107.5 -83t-124 -132.5q0 2 1 55.5t3 132.5t4 172t3 174t1 138.5t-2 65.5h-153q-3 -194 -3 -386.5t3 -383.5q3 -164 3 -329q0 -220 -5 -441z" />
<glyph unicode="i" horiz-adv-x="395" d="M41 27q27 129 35 262q6 97 6 195q0 37 -1 73q-3 135 -9 269.5t-6 267.5q-4 23 27.5 34t71.5 12h8q36 0 69 -8q37 -8 41 -26q0 -274 4 -546t4 -548q-8 -8 -41 -16t-73 -10h-16q-32 0 -62 6q-38 8 -58 35zM50 1480v9q0 18 3 31q2 8 34 12t71 4t73.5 -6t40.5 -14v-181 q-10 -4 -42 -8q-26 -3 -55 -3h-14q-36 1 -65.5 9t-34.5 29q-2 8 -4 27.5t-4 43t-3 47.5zM92 29h158q0 266 -4 528t-4 528q-41 0 -68 3.5t-68 5.5v-57q0 -107 6 -213q8 -132 11 -263q2 -58 2 -117q0 -73 -3 -146q-5 -132 -30 -269zM94 1495q2 -41 5 -66.5t3 -64.5h129v131 h-137z" />
<glyph unicode="j" horiz-adv-x="370" d="M-723 -459q6 8 25.5 36t43 53.5t46 41t33.5 0.5q47 -31 91 -57.5t93 -43.5t105 -21q10 -1 21 -1q47 0 101 15q98 25 149.5 97.5t73 165.5t23.5 191.5t4 176.5l-20 878q-2 25 32 33q24 6 52 6q11 0 22 -1q41 -3 76 -13.5t35 -18.5q2 -45 2 -111.5t-1 -142t-2 -155.5 t-2 -155v-72v-67q1 -63 3 -104q3 -41 3 -98q0 -28 -1 -60q-2 -98 -14.5 -201t-36 -197.5t-62.5 -151.5q-84 -109 -200.5 -160t-240.5 -52h-5q-121 0 -240 48q-121 49 -209 141zM-662 -455q94 -84 212 -119q96 -29 190 -29q21 0 42 1q114 8 209 56t146 132q45 74 68.5 159 t34.5 174q9 81 9 163v16q-1 90 -7 172q-4 61 -4 167t2 223.5t3 227.5v70q0 64 -1 111q-22 8 -57 8h-14q-44 -2 -65 -6q6 -233 9.5 -394t5.5 -265.5t3 -160.5t2 -83t0 -32l-1 -5q-2 -111 -14.5 -223.5t-55.5 -201.5t-126 -144q-76 -51 -201 -51h-23q-43 2 -92 19t-92 37.5 t-74 38t-35 21.5zM50 1480v9q0 17 3 31q2 8 34 12t71 4t73.5 -6t40.5 -14v-181q-10 -4 -42 -8q-26 -3 -55 -3h-14q-36 1 -65.5 9t-34.5 29q-2 8 -4 27.5t-4 43t-3 47.5zM94 1495q2 -41 5 -66.5t3 -64.5h129v131h-137z" />
<glyph unicode="k" horiz-adv-x="1024" d="M37 1599q27 -4 60.5 -4t66.5 1t61.5 -1t46.5 -8v-4q0 -166 -12 -336t-12 -340l32 33q33 33 83.5 80t109.5 101.5t110.5 102.5t85 79.5t33.5 33.5q18 -16 43 -45.5t47.5 -59.5t39.5 -54l16 -23q-4 -2 -33 -31.5t-72 -72.5t-92 -93.5t-93 -93.5t-75.5 -72.5t-40.5 -31.5 q6 -12 48 -57.5t102.5 -111t133.5 -144t143.5 -157.5t131 -153t95.5 -127q-4 -6 -40 -9t-83 -4t-94 -1t-70 -2q-16 6 -18 14q-14 10 -50 47t-82.5 88.5t-100.5 112.5t-107.5 120.5t-100.5 113t-80 90.5q0 -72 5.5 -165t8.5 -179t3 -153t-8 -83h-128.5t-70 2t-28.5 10t-5 25 v790.5t-10 771.5zM82 1559q2 -201 3 -389v-186v-186q-1 -184 -1 -371t4 -388l154 2q0 2 -2 51t-3 120t-2.5 152.5t-1.5 151.5v116t3 46q2 2 46 -45t109.5 -119t141 -157t140 -156.5t107.5 -119.5t43 -46h25h58t66 2t48 10l-46 55q-46 54 -117 133.5t-151.5 172t-150.5 172 t-93 106.5l-69 80l28 28q28 29 69.5 71t92 92.5t94.5 95.5t75.5 77.5t38.5 43.5q-16 20 -38 53t-38 53q-47 -37 -102.5 -86t-111 -99.5t-106.5 -98.5t-90 -86t-63.5 -59.5t-26.5 -19.5q-3 55 -3 114q0 29 1 61q2 94 6 189t9 188.5t8 177.5q-29 -1 -77 -3q-22 -1 -40 -1 q-21 0 -37 2z" />
<glyph unicode="l" horiz-adv-x="374" d="M20 12v4q0 90 1.5 216t1.5 268.5t2 295t2 296t1 268.5t1 217q4 16 34.5 22.5t67.5 8.5q18 1 35.5 1t33.5 -1q32 -2 44 -2q1 -37 1 -80q0 -64 -2 -144q-3 -132 -6.5 -284t-5.5 -312q-1 -80 -1 -158t1 -152q2 -148 10.5 -276t24.5 -212q-96 4 -141 4t-64.5 1t-23.5 4 t-17 15zM61 29h158q-18 98 -24.5 220t-7.5 257v60q1 106 3 218q4 142 8.5 280t6.5 266q1 64 1 123t-1 112q-41 -2 -67.5 -5.5t-67.5 -3.5q0 -88 -1 -210.5t-1 -263t-2.5 -290t-2.5 -290t-1 -263t-1 -210.5z" />
<glyph unicode="m" horiz-adv-x="1736" d="M25 421q0 118 1 238.5t4 237.5t9 207q6 12 36.5 18t66.5 8q13 1 25 1q22 -1 41 -3q30 -4 36 -12q0 -39 -4 -78q-3 -26 -3 -52q0 -13 1 -25q57 61 140 111t173 66q32 5 63 5q58 -1 115 -19q88 -28 158 -125q70 57 153.5 96.5t171.5 47.5q18 2 37 2q69 -1 137 -25 q86 -30 160 -112q43 -47 67.5 -129t38 -180.5t16.5 -204.5q2 -63 2 -123q0 -40 -1 -78q-2 -96 -7 -174t-9 -119q-86 2 -132 2h-68.5t-27 1t-4.5 5q7 90 17 198q7 82 8 167q0 26 -1 53q-3 111 -22.5 216.5t-64.5 191.5q-23 41 -54 60q-32 20 -68 22h-11l-61 -12 q-36 -14 -64 -38q-43 -39 -66.5 -117.5t-34 -175t-10.5 -198t3 -184t6 -137t-1 -54.5l-211 2q-3 29 -3 83q0 27 1 61q1 51 1 107.5t-1 117.5q-2 123 -14 245.5t-45 206.5q-25 61 -66 82q-29 15 -62 15q-13 0 -28 -2q-49 -8 -100 -38t-97 -69t-81 -80t-49 -72 q6 -240 9 -370.5t4 -194.5v-36q0 -32 -1 -42q-2 -14 -8 -18l-2 -2q-27 6 -48.5 8t-45 2t-52 -2t-67.5 -4q-2 4 -3 61.5t-2 149.5t-1 210zM67 570v-34q0 -237 13 -493q31 2 60.5 2t64.5 -4q-1 67 -1 132q0 98 2 190.5t2 190.5q0 65 -1 132q18 41 56 88t86 87t103.5 71 t108.5 39q16 2 32 2q35 -1 69 -13q48 -18 81 -71q39 -63 57.5 -162.5t24.5 -215.5t6 -238.5v-233.5h113l2 4q-4 111 -6 227v52q0 90 5 174q7 108 26.5 201.5t60.5 156.5q42 64 106 90q33 14 74 14q39 0 86 -12q51 -12 86 -56t55.5 -106.5t31 -136.5t13.5 -145.5t3 -134 v-103.5q0 -10 -1 -37.5t-4 -61.5t-7.5 -68t-10.5 -56h156q0 86 4 213q2 51 2 103q0 78 -4 159q-6 135 -29.5 260t-79.5 207q-55 83 -147 107q-52 14 -106 13q-40 1 -80 -7q-94 -18 -175 -69.5t-118 -119.5q-57 94 -119 137q-63 42 -129 50q-17 2 -34 2q-47 0 -95 -16 q-64 -22 -121 -55.5t-105 -72.5t-81 -67v29.5t-1 61.5t-1 65.5v43.5q-35 -2 -60.5 -4t-60.5 -2q-12 -256 -13 -509z" />
<glyph unicode="n" horiz-adv-x="1259" d="M33 25q-1 96 -1 193q0 170 4 346q7 274 7 542q-3 27 29 37q26 8 60 8h13q41 -2 78 -11.5t45 -21.5q-2 -51 -2 -90t-6 -88q20 55 74.5 96t126 65.5t153.5 32.5q32 3 64 2q48 0 95 -6q77 -12 142.5 -42.5t104.5 -81.5q47 -63 75.5 -162t44 -210.5t19.5 -223.5q3 -90 3 -167 v-37q-1 -91 -4 -150.5t-3 -63.5l-14 6h-166q-6 94 -8 213t-12.5 240.5t-37 234.5t-83.5 193q-23 33 -67 45q-41 11 -85 11h-8q-49 -1 -94 -14.5t-68 -33.5q-80 -66 -129 -138.5t-76.5 -147.5t-38 -151.5t-13.5 -152.5t-3 -147.5t-6 -137.5q-16 0 -42 -5t-54.5 -7t-59.5 2 t-57 23zM77 574q-1 -112 -1 -224q0 -151 2 -303q29 -10 60.5 -7t64.5 7q4 106 8 177t7 121t8 84t12.5 64.5t17.5 66.5t27 87q14 47 46.5 99.5t78 99.5t101.5 81q57 34 117 45q23 4 45 4q39 0 79 -12q64 -18 122 -77q57 -78 86 -183q30 -104 40 -218q10 -105 9 -211v-20 q-1 -116 -3 -216h108q0 57 2 136q1 53 1 110v58q-1 89 -6 181t-19.5 178t-38 158t-62.5 119q-55 65 -143 95q-77 26 -162 26h-24q-98 -4 -188.5 -40t-149.5 -97q-23 -23 -40.5 -51.5t-29.5 -51t-18.5 -34t-6.5 -1.5q0 43 -1 76t-3 63.5t-2 63.5t2 74q-8 4 -26.5 4h-40 t-41 -1t-31.5 -1q-4 -268 -7 -530z" />
<glyph unicode="o" horiz-adv-x="1366" d="M18 614q8 131 70 232.5t161 167.5t227 94q90 20 190 20q42 0 84 -4h8q105 0 212 -50q111 -52 198 -138q88 -86 136 -198q36 -83 36 -168q0 -30 -5 -60q-12 -84 -61 -162t-121 -141.5t-162 -110.5t-184 -72q-93 -24 -189 -25h-7q-92 0 -171 28q-109 33 -191.5 91 t-136.5 135t-78 168q-18 69 -18 143q0 25 2 50zM59 606q-2 -27 -2 -53q1 -156 83 -266q96 -129 321 -224q63 -26 142 -26q5 1 9 1q84 2 172 25t175.5 68t158 104.5t117.5 132t59 152.5q3 20 3 40q-1 60 -23 124q-30 86 -87 163t-133.5 136t-160.5 86q-95 25 -199 25 q-32 0 -66 -2q-140 -10 -262 -66.5t-208 -161t-99 -258.5zM198 533q0 92 29 178q20 61 71.5 111t120 85t148.5 53q72 16 142 16q8 0 16 -1q78 -2 147.5 -25.5t116.5 -70.5q90 -75 136 -181q24 -56 24 -120q0 -57 -19 -119q-25 -78 -88 -137.5t-149 -98.5q-85 -39 -183 -52 q-51 -7 -100 -7q-45 0 -89 6q-91 12 -164.5 55t-112.5 119q-46 93 -46 189zM243 530q3 -48 12 -91.5t26 -73.5q37 -72 112.5 -113t167.5 -50q29 -3 58 -3q65 0 131 14q96 20 176 69.5t131 125t51 176.5q0 96 -37.5 151.5t-105.5 110.5q-83 72 -185 90q-43 8 -86 8 q-58 0 -114 -14q-98 -24 -181.5 -87t-132.5 -151q-16 -30 -21 -72q-3 -27 -4 -55q1 -17 2 -35z" />
<glyph unicode="p" horiz-adv-x="1363" d="M30 1101v21q0 18 1 19q10 0 43 1h33h35q36 -1 67 -7.5t37 -20.5v-156q94 51 189 98.5t191 69.5q64 15 130 15q33 0 66 -3q100 -12 202 -77q57 -35 109.5 -91.5t92.5 -124t63.5 -144t23.5 -152.5q0 -74 -38 -154t-97.5 -151.5t-133 -129t-149.5 -85.5q-103 -36 -229 -36 h-6q-130 1 -246 54q-14 6 -35 20.5t-44.5 32t-45 35t-35.5 29.5q-2 -56 -2 -115q0 -44 1 -89q3 -107 5 -213.5t2 -210t-8 -191.5h-34.5t-54.5 1t-57.5 1h-44.5q-6 0 -9 61.5t-5 159.5t-2 220t-1 240.5t-2 221.5t-1 164q0 63 -2 141t-3 158t-3 155.5t-2 135t-1 97.5zM72 1100 q0 -109 2 -212.5t4 -204.5t4 -203.5t2 -211.5q0 -39 1 -113.5t2 -164.5t2 -186.5t2 -180.5t3 -144.5t4 -78.5q31 0 60.5 -1t60.5 -5q1 58 1 117q0 147 -4 299t-4 299q0 58 1 116q10 23 24.5 11.5t26.5 -23.5q16 -18 45 -42t61.5 -46.5t65.5 -40.5t56 -25q72 -18 146 -23 q22 -2 45 -2q50 0 99 8q70 11 135.5 42t124.5 84q86 78 142.5 154.5t77.5 157.5q10 42 10 85q0 42 -10 86q-19 90 -82 193q-49 82 -124 144t-167 91q-66 25 -134 25q-28 0 -55 -4q-96 -15 -185 -51.5t-169 -82.5t-141 -73v201q-37 0 -66.5 2t-66.5 4zM213 727 q63 33 126.5 72t129.5 71.5t136.5 54t146.5 21.5q131 -20 213 -71.5t120.5 -120t38.5 -146.5t-30.5 -151.5t-88 -138t-135.5 -103.5q-86 -45 -176 -45t-175 31.5t-161 89t-137 129.5q0 45 -1 83t-2 72.5t-2 71.5t-3 80zM260 442q57 -49 100 -90t88.5 -69.5t101.5 -45 t142 -18.5h16q109 0 188 49q85 54 131 133.5t51 172.5q1 9 1 19q0 81 -39 149q-43 75 -136 120q-70 34 -174 34q-32 0 -68 -3q-55 -6 -125 -36t-131.5 -63.5t-102.5 -61t-41 -30.5q-2 -2 -2 -26.5v-62.5v-83v-88z" />
<glyph unicode="q" horiz-adv-x="1443" d="M-1 542q-3 29 -3 56q0 85 26 158q33 96 106 169.5t175.5 119t228.5 60.5q53 6 110 6q75 0 155 -11q94 -14 179 -64.5t157 -115.5q4 53 5 89t1 89q0 12 8 18q0 14 18 21h170q12 -4 17 -9q12 -4 14 -18q-4 -162 -7 -303t-5 -275.5t-5 -268.5t-8 -279v-32q0 -53 5 -108 q6 -71 23 -135.5t48 -118t79 -83t114 -32.5h11q63 0 146 33q10 -18 26.5 -43.5t34 -50t34 -47t26.5 -35.5q-61 -33 -140 -51q-68 -15 -138 -15h-23q-82 3 -156.5 28.5t-130.5 80.5q-68 66 -100.5 159t-44.5 198q-10 91 -10 183v31q2 107 6 199q-70 -61 -163 -99t-196 -50 q-53 -6 -108 -6q-50 0 -102 5q-107 11 -203 48t-175 98.5t-128 147.5q-66 135 -77 253zM47 583q4 -126 64 -274q51 -104 149 -164.5t215 -86.5q98 -21 198 -21q20 0 40 1q121 5 219 32q35 10 79 35.5t83 53t66.5 48t31.5 18.5q-2 -86 -6 -199q-1 -35 -1 -71q0 -79 6 -159 q9 -115 39 -219.5t97 -170.5q49 -45 107 -70q25 -8 70.5 -15t101 -7t115 8t108.5 29q-16 23 -30.5 47t-31.5 47q-4 0 -35.5 -8t-79.5 -11q-12 -1 -24 -1q-38 0 -80 7q-55 11 -106 50q-68 63 -99.5 145t-42.5 173q-8 71 -8 146q0 22 1 44q3 98 5 196l7 213l12 215 q2 102 3 166t1 103v60.5v41v44t2 67.5h-143q0 -68 -3 -130.5t-8 -131.5q-27 29 -69.5 62.5t-94 66t-107.5 58.5t-110 38q-49 11 -99 11h-8q-54 -1 -110 -9q-182 -27 -298.5 -92.5t-172.5 -162.5q-53 -91 -53 -206v-17zM156 614.5q0 81.5 43 153.5q45 76 121.5 121t167.5 61 q59 11 120 11q35 0 71 -3q99 -10 190.5 -41.5t166 -83t117.5 -116.5q6 -45 7 -99v-16q0 -47 -5 -94q-6 -55 -22.5 -106.5t-45.5 -88.5q-80 -98 -207 -138q-96 -30 -195 -30q-33 0 -67 3q-133 14 -248.5 80.5t-170.5 179.5q-43 125 -43 206.5zM203 628q-2 -15 -2 -31 q0 -69 35 -153q37 -86 104.5 -140t149 -79.5t170.5 -27.5h19q79 0 149 15q79 17 139.5 50t87.5 78q49 80 54 165q2 39 2 80q0 50 -3 105q-39 47 -102.5 98.5t-118.5 77.5q-76 35 -166 46q-43 6 -86 6q-46 0 -91 -6q-87 -13 -162 -49t-122 -95t-57 -140z" />
<glyph unicode="r" horiz-adv-x="1054" d="M38 942q1 123 5 160t8 16q2 2 24.5 4t51.5 4t56.5 2h37.5q4 0 6 -2q12 0 17 -18q0 -18 -1 -45t-1 -55.5v-56v-48.5q98 100 218 158.5t236 62.5h16q62 0 114 -13q60 -15 103.5 -36.5t70 -41t30.5 -25.5q-6 -14 -24.5 -45t-38 -61t-34.5 -52.5t-13 -20.5q-66 63 -150 80 q-36 7 -72 7q-47 0 -94 -12q-82 -22 -152.5 -78t-107.5 -136q-37 -78 -55.5 -163t-25.5 -172t-10 -173t-9 -166q-4 -6 -10.5 -9t-26 -3t-55.5 1t-95 5q-12 358 -16 584q-3 180 -3 295v53zM88 51h115q0 104 8 219t29.5 222.5t60.5 201.5t105 159t162 93q53 16 118 16 q52 0 113 -10q45 -8 73.5 -30.5t36.5 -32.5l9 9q10 9 22 24.5t24.5 35t18.5 41.5q-23 6 -48.5 19.5t-59 27t-77.5 24.5t-102 13h-10q-62 1 -130 -23q-74 -26 -141 -67t-122 -90t-82 -96q-2 4 -4 41t-3 83t-2 91v27q0 24 1 38l-115 -8v-1028z" />
<glyph unicode="s" horiz-adv-x="1079" d="M8 129q0 18 16.5 42t41 44.5t52 33.5t50.5 13q14 4 27 -8q10 -16 15 -31.5t19 -25.5q43 -33 117 -47q54 -10 109 -10q19 0 41 2q76 5 142.5 29t90.5 67q22 38 22 69q-1 11 -3 19q-10 36 -40 62t-72 40t-77 18q-109 14 -205 38t-190 89q-102 70 -120 156q-6 29 -7 58 q-1 55 23 109q36 81 114 145.5t170 88.5q88 25 188 28h20q88 0 171 -22q92 -26 167 -85.5t116 -157.5q0 -8 -2 -12q-10 -16 -36 -31.5t-51.5 -27t-46 -16.5t-16.5 3q-14 43 -63.5 76t-115 51t-137.5 22q-12 1 -23 0q-57 0 -107 -14q-60 -18 -98 -57q-36 -37 -36 -97v-6 q0 -20 25 -37.5t56.5 -32t60 -23.5t39.5 -11q45 -10 77.5 -13t63.5 -8.5t63.5 -12.5t79.5 -21q133 -70 195 -149q62 -78 66 -154v-14q0 -68 -42 -130q-46 -68 -126 -119t-188 -81q-95 -26 -198 -25h-28q-74 2 -131.5 6t-104.5 20.5t-88 51.5t-86 98zM51 147q35 -57 82 -87.5 t96.5 -46t95.5 -19.5t81 -6q18 -1 37 -1q61 0 131 14q92 19 173.5 57t142.5 94q60 56 72 124q3 14 3 28q0 56 -39 117q-49 77 -183 159q-25 16 -69.5 24t-98 16.5t-109.5 17.5t-104.5 26.5t-83 44t-45.5 69.5v8q0 71 36 115q38 47 98.5 70.5t136.5 24.5h9q71 0 139 -15 q72 -16 131 -50t89 -79q25 6 55.5 21.5t41.5 31.5q-23 29 -51.5 60.5t-62.5 59.5t-72 49.5t-78 27.5q-49 10 -114 11h-13q-60 0 -122 -8q-70 -9 -137 -30.5t-120.5 -57.5t-88 -88t-36.5 -120q0 -47 14 -84t43 -72q70 -78 159 -109.5t187 -45.5q49 -6 103.5 -14.5t101.5 -27 t81 -55t40 -100.5v-5q0 -52 -39 -92q-41 -42 -106 -68q-66 -26 -146 -34q-38 -4 -74 -4q-40 0 -78 6q-72 10 -126 38t-68 79l-4 4h-2q-10 0 -27.5 -11t-36 -25.5t-32 -26.5t-13.5 -15z" />
<glyph unicode="t" horiz-adv-x="872" d="M12 966.5q0 30.5 1 63.5t3 59.5t9 30.5q4 4 10 7t24.5 3t52 -1t93.5 -5q0 2 -1 3t-1 3v9q6 86 8 174t2 174q0 14 8 20q5 4 11 4q4 0 8 -2q14 -2 46.5 -4t66.5 -6t60.5 -11t30.5 -18q-4 -86 -7 -168.5t-5 -168.5v-3q16 0 59.5 1.5t88.5 3.5t82.5 2t46.5 -4q12 -4 16 -27 t4 -51.5t-3 -56t-3 -42.5q0 -4 -2 -6q0 -18 -21 -20q-66 0 -133 -2t-133 -6l-2 -2q0 -2 -1 -3.5t-1 -3.5v-4q1 -5 1 -21q0 -18 -1 -46q-2 -56 -2 -132.5t5 -164.5t17.5 -163t37 -127t63.5 -56q10 -2 35.5 0t54.5 7t52.5 13.5t29.5 18.5q4 8 11 8q29 0 100 -162q1 -4 1 -8 q0 -20 -24 -35q-29 -18 -67.5 -28.5t-77.5 -16.5t-54 -6q-21 -1 -41 -1q-71 0 -123 11q-68 14 -113.5 52t-73.5 105.5t-42 172.5q-8 61 -11 111.5t-3 113.5t1 149v63q0 68 -1 157q-12 0 -41 -4.5t-60.5 -5.5t-57.5 0t-32 12q-2 10 -2 40.5zM53 952l8 4q37 4 73 4t73 5 q23 -2 32 -8.5t7 -26.5q0 -106 -3 -208q-2 -51 -1.5 -100.5t1.5 -99.5q3 -98 17 -193.5t49 -187.5q16 -45 80 -71q65 -25 141 -33q34 -4 67 -4q42 0 82 6q73 10 109 39l3 2q-10 23 -23.5 60.5t-32.5 54.5q-39 -21 -84 -31q-30 -7 -60 -7q-14 0 -27 2q-42 5 -76.5 28.5 t-53.5 72.5q-25 68 -36 155t-14 180q-2 46 -2 93q0 46 2 94q3 94 7 174q70 2 129 7q51 4 98.5 6t63.5 2q2 23 3 60.5t-3 60.5q-72 -2 -142 -4h-34q-52 0 -105 4q-16 4 -13 16t3 29q2 78 4 156.5t6 156.5q-33 2 -74.5 7t-72.5 11q-4 -96 -6 -191t-10 -194h-179z" />
<glyph unicode="u" horiz-adv-x="1193" d="M10 780q6 180 10 332q6 0 43 2t77 2t70 -6t23 -23l-2 -2q3 -34 3 -76q0 -49 -4 -109q-7 -112 -9 -230q0 -17 -1 -34q0 -98 10 -190q12 -108 54 -174t122 -74q7 -1 16 0q78 0 203 76q72 43 113.5 116t62 178.5t24.5 243.5q2 69 2 147.5t-2 166.5q47 0 103.5 4.5t103.5 4.5 h2q3 1 5 1q14 0 20 -20q-4 -26 -5 -102v-54q0 -56 1 -126q2 -104 5 -224.5t5 -234t3 -211.5v-38q0 -72 -3 -118q-3 -10 -31 -12q-14 -1 -29.5 -1t-32.5 1q-34 2 -67 4t-45 2q-12 4 -17 23.5t-5 48t3 61.5t5 62q-84 -86 -176 -135.5t-184 -62.5q-34 -5 -67 -5q-55 0 -107 14 q-83 22 -147.5 75.5t-105.5 139.5t-45 203q-6 109 -6 220q0 66 2 134zM51 750q-2 -58 -2 -119q0 -100 6 -203q8 -121 53.5 -204t113 -129t150.5 -56q25 -3 50 -3q58 0 117 16q84 24 163.5 79t139.5 139q10 16 25.5 12.5t19.5 -20.5q0 -55 -2 -110.5t-2 -108.5q35 -2 69 -4 h14q28 0 60 6l-8 1049q-35 0 -77 -2t-77 -2q4 -104 4 -197t-4 -173q-8 -161 -54 -275.5t-139 -184.5t-253 -94q-19 -3 -36 -3q-60 0 -100 38q-50 49 -75 135t-30 194q-3 60 -3 120q0 46 2 94q4 106 10 195q4 61 5 102q0 19 -1 34q-33 -2 -64.5 -3t-64.5 -1q-4 -165 -10 -321 z" />
<glyph unicode="v" horiz-adv-x="1206" d="M27 1032q43 12 88 45t73 62q5 2 11 2q7 1 15 -5q12 -10 11 -26q4 -2 19.5 -44t41 -109.5t58.5 -153.5t70 -176t77.5 -179.5t81.5 -160.5q4 2 37 65.5t80 155.5t101.5 199.5t101.5 198.5t78 150.5t33 57.5q14 12 28 8q12 -4 36 -21.5t46.5 -40t37.5 -44.5q11 -15 11 -25 q0 -4 -2 -8l-21 -41q-20 -41 -53.5 -107.5t-77.5 -151.5t-90.5 -173t-89.5 -174t-77.5 -152.5t-55.5 -107.5l-22 -41q-8 -7 -43 -13q-30 -5 -61 -5h-12q-38 1 -66.5 8.5t-22.5 21.5q-47 80 -98.5 179.5t-99.5 202.5t-91 202.5t-75.5 176.5t-53 125t-20.5 50q-16 19 -16 32 q0 11 12 17zM70 1004q2 -2 20.5 -47.5t50 -121t74.5 -172t90 -201t97.5 -207.5t99.5 -189q2 -4 22.5 -5.5t45 -1.5t46 1t25.5 -1l-2 -2q6 0 4 2l19 40q20 40 51.5 105.5t73.5 148.5t86.5 170t86 169t74.5 147.5t54 104.5l22 39v8q-16 25 -34.5 51.5t-41.5 36.5 q-2 0 -34.5 -62.5t-81 -154.5t-103.5 -199.5t-103 -199.5t-80 -152.5t-34 -58.5q-25 -8 -36 -8t-17 10q-43 72 -85 160t-80 179t-71 177t-57.5 154.5t-40.5 111.5t-21 47q-23 -20 -57.5 -44.5t-62.5 -34.5z" />
<glyph unicode="w" horiz-adv-x="1730" d="M2 981q-1 0 -1 1q1 2 15 16q18 16 45 39.5t58 49t49 41.5q4 0 32.5 -52t68.5 -131t86 -170t86 -169t69 -130t33 -52q0 -2 22.5 26.5t55 72.5t70.5 95.5t71 95.5l54 72l22 29h2q0 2 22.5 -30.5t55 -81t70.5 -106.5t70 -106.5t54.5 -81t24.5 -30.5l4 6t18.5 30.5t42 73 t73.5 130t114.5 204.5t166.5 297q2 -4 29 -21.5t58.5 -37t59.5 -34.5l32 -13q-1 -3 -21 -42q-22 -42 -59 -113t-85 -161t-99.5 -184t-100.5 -185t-87 -163t-61.5 -116t-23.5 -46q0 -4 -10 -5t-23 -1q-14 0 -30 2q-2 -4 -20.5 20.5t-45.5 64.5t-58.5 92t-62 102.5t-57.5 95.5 t-41 71q-53 -106 -122 -213.5t-126 -209.5q0 -10 -12 -15.5t-28.5 -6.5t-31 3t-18.5 12q-39 72 -91 170.5t-107.5 204t-109.5 210t-98.5 187t-73 136t-30.5 57.5zM53 973q2 0 23.5 -40t57.5 -106.5t80 -149.5t90 -171t90 -171t77 -146.5t51.5 -102.5t14.5 -35q8 -4 11 -3 t11 1q35 39 72 95.5t72.5 118t69.5 124t63 115.5q4 6 11 6t15 -4t12.5 -10.5t2.5 -8.5q6 -16 25.5 -52t47 -81t58 -94t58.5 -93t49.5 -78t29.5 -48q4 2 11 2t11 4l23 41q22 41 57 106.5t80 149.5t91 171t90 171t79 150.5t56.5 107.5t21.5 43t-14.5 15.5t-31.5 26.5 t-32.5 23.5t-17.5 10.5t-33 -57.5t-77 -142.5t-99 -183t-99.5 -182t-78 -140.5t-33.5 -56.5q-2 -2 -24.5 29.5t-56.5 80t-74 105.5t-73.5 106.5t-57 82t-25.5 30.5q-2 4 -26 -23.5t-56.5 -70.5t-70.5 -94t-70.5 -94t-53 -73t-18.5 -30q-4 0 -34 50.5t-71 125t-88 162.5 t-89 166t-72.5 134t-36.5 69z" />
<glyph unicode="x" horiz-adv-x="1228" d="M14 166q2 2 49.5 50t112 113.5t133 133t115.5 108.5q-4 8 -35 38t-74 72t-93 89t-91 87t-68.5 68.5t-27.5 35.5q0 6 -1 8t13 16t51 46t109 99q16 -23 49 -60.5t75 -81.5t87 -90t83 -82t62.5 -58.5t28.5 -20.5q0 2 22.5 26.5t60.5 61.5t85 83t93 91t88 86t69 70 q0 2 22.5 -20.5t48 -50t48 -50t22.5 -20.5q0 -2 -33 -36t-80 -82t-100 -103.5t-97 -101.5t-70 -74.5t-17 -22.5l18 -20q19 -19 48.5 -50.5t68.5 -70.5l80 -80q94 -96 215 -217l-18 -20q-19 -21 -43.5 -45.5t-47 -47.5t-31.5 -29q-121 92 -231.5 200t-216.5 230 q-25 -31 -61.5 -69.5t-74.5 -79.5t-76 -80t-65 -68q-14 -16 -32.5 -36.5t-39 -41t-40 -38t-33.5 -27.5q-14 8 -41 33.5t-53.5 54.5t-45.5 52zM124 110q28 -32 52 -55q25 35 55.5 63.5t59.5 57.5q29 31 69.5 72t82.5 84t82 84t67 71h1q7 0 49 -42q46 -46 113.5 -112.5 t143.5 -140t139 -124.5q14 12 41 42.5t56 47.5q-6 6 -41 40.5t-84 81t-105.5 99.5t-103.5 98t-77 76t-28 33q-2 2 26 33.5t71 77.5t93 100.5t95 102.5t75.5 81t37.5 39q-29 18 -44.5 34.5t-35.5 49.5l-69 -69t-89 -88t-94 -93l-85 -85l-62.5 -62.5l-26.5 -26.5 q0 -2 -15.5 13.5l-42 42t-61.5 60t-72 70.5l-196 193l-9 -9l-24 -24t-33.5 -30.5t-40.5 -26.5q0 -2 30 -31t74 -72t94 -93t93 -92t70.5 -70.5t25.5 -28.5q2 -4 -27.5 -35t-75.5 -76t-100.5 -98.5t-100.5 -98.5q-47 -44 -77 -76q-29 -30 -28 -34z" />
<glyph unicode="y" horiz-adv-x="1196" d="M-37 1036q33 25 79 45.5t85 34.5h2q10 6 20.5 2t14.5 -18q4 0 21.5 -42t44 -111.5t62.5 -160t77 -188.5t85 -197.5t87 -187.5q68 127 126 230.5t114.5 199.5t113.5 194.5t119 213.5q23 72 30 83q4 6 11 6q5 0 12 -3q4 -2 26.5 -13.5t51.5 -27t55.5 -32.5t38.5 -32 q-4 -8 -30.5 -57t-63.5 -115.5t-79 -141.5t-77 -134l-465 -832q-49 -82 -96 -164t-84 -145.5t-60 -96.5q-15 -23 -20 -23q-2 0 -2 5h-2q-7 0 -32 14q-29 15 -58 35.5t-50.5 41t-15.5 28.5l25 42t60.5 103.5t77.5 133t78 133t59.5 103.5t23.5 44q-31 57 -79 154.5t-101 211 t-107.5 229.5t-95.5 211t-65 158q-18 49 -18 62q0 3 1 4zM14 1018q0 -20 34 -102t85 -195t110.5 -238t109.5 -231.5t84 -176t34 -71.5q0 -4 -21.5 -46t-55.5 -101.5t-72.5 -129t-72.5 -130t-59.5 -101.5t-29.5 -45q29 -39 58.5 -50t49.5 -19q51 100 109.5 198t111.5 197 q39 70 99.5 175t126 222t130 231.5t113.5 202.5q27 45 62 108.5t68.5 124t60.5 109.5t39 70q-29 10 -57.5 27.5t-51.5 33.5q-6 -14 -10 -21t-9 -14.5t-11.5 -16.5t-16.5 -28q-113 -219 -234.5 -418.5t-234.5 -414.5q-14 -23 -27.5 -20.5t-13.5 16.5q-90 193 -160.5 358.5 t-121 288.5t-79 192.5t-32.5 69.5q-23 -14 -55.5 -29.5t-59.5 -25.5z" />
<glyph unicode="z" horiz-adv-x="1368" d="M15 293v22q0 17 1 17q2 2 43 23.5t105.5 57.5t146.5 82t167 93t165 94t141.5 84t97 61.5t31.5 28.5q4 0 -57 -1t-157.5 -3t-210 -5t-211 -6t-163.5 -5l-67 -2q-12 -2 -18 26q-5 29 -9 67q-3 30 -3 59v18q1 38 6 57q4 12 10 27.5t20 11.5q139 0 242.5 1t188.5 3t161 4 t161 4t189.5 2h247.5q14 -64 14 -133v-17q-1 -22 -1 -44q0 -54 4 -101q0 -4 -42 -31.5t-111 -71.5t-155 -99.5t-176 -111.5t-177 -109.5t-154.5 -95.5t-109.5 -66l-42 -25q119 6 200.5 10t143 7t115 6.5t116 5.5t143.5 5t201 5q25 4 34 -21.5t9 -64.5t-5 -79t-7 -63 q-145 -4 -251.5 -6t-193.5 -3t-164 -1t-162 -1t-188.5 -3t-244.5 -6q-6 35 -11 90t-8.5 109.5t-4.5 93.5zM49 238.5q0 -31.5 3 -67.5t9.5 -70.5t10.5 -59.5q143 4 243.5 6t179 2h147.5t147.5 1t179 3t243.5 6q0 33 -2 48.5t-3 26.5t-1 26.5t2 48.5h-2q-125 -4 -211 -8 t-152.5 -7.5t-121.5 -8.5t-122 -8t-153 -7t-210 -8q-10 2 -14.5 11t-4.5 20.5t4 20.5t15 13l43 25q43 24 112.5 66t157.5 96.5t180 112t180 111.5t157 97t112 71t43 30q-2 57 -2.5 122.5t-10.5 120.5q-139 -2 -240.5 -4t-183.5 -4t-153.5 -4t-151.5 -3t-179 -3t-234 -2 q4 -18 3 -43t-2 -50.5t0 -51t7 -44.5q94 0 205.5 4.5t225 9.5t220 10t187.5 10t130.5 7t47.5 2q0 -2 -44.5 -28.5t-116 -70.5t-163.5 -99.5t-188.5 -112.5t-189.5 -112.5t-165.5 -99.5t-119 -70.5t-48.5 -26.5q-6 -23 -6 -54.5z" />
<glyph unicode="{" horiz-adv-x="811" d="M25 963q-6 12 0 26q25 39 50 66.5t47.5 55.5t38 63.5t19.5 93.5q2 57 -8 112.5t-22.5 107.5t-21.5 101t-4 96.5t30.5 91.5t83.5 85q43 33 106.5 40t134 7t139 -1t119.5 13q10 4 18.5 -2t8.5 -21q-2 -49 -9 -98t-10 -100q-8 -14 -20.5 -16t-22.5 6q-14 23 -68 32 t-116.5 3.5t-118 -21.5t-71.5 -45q-10 -18 -4 -56t18 -78t24 -71l13 -31q29 -104 23.5 -193t-70.5 -171q-8 -10 -18.5 -16.5t-18.5 -16.5q18 -14 38.5 -32.5t24.5 -35.5q14 -55 14.5 -129.5t-1.5 -158.5t-2 -170t12 -163t43 -138.5t88 -96.5q51 -29 113.5 -30.5t117.5 0.5 q12 0 17.5 -4.5t9.5 -8.5q-8 -90 -10 -121.5t-4 -48.5q-6 -31 -26.5 -41t-48.5 -11t-55.5 3t-47.5 4q-147 18 -228.5 75.5t-120.5 141.5t-47 187.5t-8 213t-4 219.5t-35 206q-6 16 -20.5 25.5t-30.5 15.5t-32.5 14t-26.5 21zM68 979q12 -10 28.5 -16.5t31.5 -13.5t27.5 -18 t18.5 -30q27 -92 30 -195.5t4 -208t8 -204.5t43 -182t110.5 -141.5t208.5 -84.5q29 -4 57.5 -6t56.5 -4q16 6 20.5 22.5t2.5 38t-3 46t5 47.5q-59 0 -115.5 5t-112.5 36q-63 35 -99 99t-51 138t-16 147.5t3 129.5q2 33 6 81t5 99t-2 98t-16 80q-6 16 -31.5 35.5t-37.5 32.5 q-4 14 8 32.5t30.5 40t36 42t25.5 36.5q27 68 13.5 132.5t-36 129t-40 129t5.5 127.5q10 33 61.5 54.5t117 28.5t131 1t104.5 -24q4 35 9 69.5t7 71.5q-137 -4 -228.5 -9t-150.5 -15.5t-94 -31t-57 -55.5q-33 -47 -29 -111.5t19.5 -134t30.5 -137t7 -120.5q-8 -41 -12 -68 t-12.5 -49.5t-23.5 -45t-44 -56.5q-14 -16 -31.5 -33t-29.5 -35z" />
<glyph unicode="|" horiz-adv-x="317" d="M51 -150q0 90 1 251t3 356.5t3 409.5t3 410t3.5 357.5t1.5 251.5q4 16 34.5 22.5t67.5 8.5t69.5 0t43.5 -2q2 -70 0 -182.5t-4.5 -253t-5.5 -300t-5 -322.5t-2 -321.5t3 -296t10.5 -246t19.5 -171.5q-96 4 -141 4t-64.5 1t-24 4t-16.5 15v4zM92 -137h158 q-18 98 -24.5 254.5t-6.5 345t4 392.5t9.5 394.5t8.5 354t1 270.5q-41 -2 -68 -5t-68 -3q0 -88 -1 -246t-3 -351.5t-3 -404.5t-3 -404.5t-3 -351t-1 -245.5z" />
<glyph unicode="}" horiz-adv-x="808" d="M-10 59q4 4 9 8.5t17 4.5q55 -2 118 0t114 30q57 35 88 96.5t43 138.5t12 163t-2 170t-2 158.5t14 129.5q4 16 24.5 35t39.5 33q-8 10 -18.5 16.5t-18.5 16.5q-66 82 -71 171t24 193l13 31q12 31 24 71t18 77.5t-4 56.5q-16 29 -71.5 45t-118 21.5t-117 -3.5t-68.5 -32 q-10 -8 -22 -6t-21 16q-2 51 -9 100t-9 98q0 14 8 20.5t19 2.5q51 -14 119.5 -13t139 1t134 -7.5t106.5 -39.5q57 -41 83 -85t31 -91.5t-4 -96.5t-21.5 -101t-24 -107.5t-6.5 -112.5q4 -57 19 -93t37.5 -64t48.5 -55.5t50 -66.5q6 -14 0 -26q-10 -12 -26.5 -20.5t-34 -14.5 t-30.5 -15.5t-19 -25.5q-31 -96 -35 -206t-4 -219.5t-8.5 -213t-47 -187.5t-119.5 -141t-229 -76q-20 0 -48 -4t-55.5 -3t-48 11.5t-26.5 40.5q-4 16 -5 48t-9 122zM37 1880q2 -37 7 -71.5t9 -69.5q39 18 104.5 24t131 -1t117 -28.5t61.5 -54.5q20 -63 4 -127.5t-38.5 -129 t-37 -129t14.5 -132.5q8 -16 25.5 -36.5t35.5 -42t30.5 -40t8.5 -32.5q-12 -12 -38 -32t-32 -36q-12 -33 -15 -80t-2 -98t5 -99.5t6 -80.5q4 -55 3 -129t-16 -148t-51 -138.5t-100 -98.5q-55 -31 -111.5 -36t-115.5 -5q6 -23 5 -47.5t-3 -46t2 -38t21 -22.5q29 2 57.5 4 t56.5 6q133 25 208 84.5t111 141.5t43 182t8 204.5t4 208t30 195.5q6 18 18 29.5t27.5 18.5t32 13.5t28.5 16.5q-12 18 -29.5 34.5t-31.5 33.5q-29 35 -44.5 57t-23.5 44.5t-12 49.5t-12 68q-10 53 6 120.5t31.5 137t19.5 134t-29 111.5q-23 35 -57.5 55.5t-94 31 t-150.5 15.5t-228 9z" />
<glyph unicode="~" horiz-adv-x="1181" d="M-4 750q0 12 6 18q8 31 46 58.5t84 49t92 35t73 13.5t59.5 -13.5t51.5 -23.5q66 -31 122 -67t111 -54t112.5 -10t127.5 63q18 16 43.5 42t33.5 50q4 10 11 13q4 8 14 10t21 -6q6 -14 26.5 -32.5t42 -39t37.5 -40t12 -36.5q-4 -16 -27.5 -49t-97.5 -96q-88 -78 -171 -90.5 t-165.5 8t-166.5 61.5t-175 72q-16 6 -42.5 4t-53 -10t-49 -22.5t-31.5 -32.5q4 -16 -12 -23q-14 -10 -27 8q-16 10 -33.5 27.5t-32.5 37t-26.5 40.5t-15.5 35zM39 750q10 -25 32.5 -47.5t43.5 -45.5q29 41 83 56.5t99 15.5q27 0 59.5 -13.5t51.5 -23.5q66 -31 136 -60.5 t142 -39.5t144.5 5t142.5 71q8 8 24.5 22.5t31.5 31.5t28.5 33.5t17.5 26.5l-86 97q-14 -27 -37.5 -51.5t-46.5 -41.5q-61 -47 -112.5 -63t-96.5 -13t-87 22.5t-86 46t-94 54t-110 48.5q-18 6 -62 -5.5t-91 -31t-84 -45t-41 -45.5q-2 -2 -2 -4z" />
<glyph unicode="&#xa1;" horiz-adv-x="344" d="M37 1733q0 10 8 19t16 11q45 -2 93.5 2t93.5 0q8 0 13 -6t7 -26.5t1 -59.5t-5 -106q-4 -12 -36.5 -19.5t-71.5 -9.5t-72 0t-35 6q-2 47 -6 94.5t-6 94.5zM49 39q0 -10 8.5 -19.5t16.5 -11.5q45 2 93 -2t93 0q16 2 20.5 12.5t-4.5 20.5l-28 1382q-4 10 -28.5 14.5 t-54.5 3.5t-56.5 -5t-34.5 -7q0 -12 -1 -74.5t-3 -158.5l-4.5 -216t-4.5 -245t-4 -244.5t-4 -216t-3 -159t-1 -74.5zM70 1729q2 -35 9 -74t9 -74q33 2 67.5 5t67.5 5l6 138q-35 4 -80 -0.5t-79 0.5zM82 43q0 8 2 68.5t4 154.5t4 211t5 239t5 239.5t4.5 211t4.5 155t2 69.5 q33 -2 47 3t47 3l35 -1354q-35 -4 -80 0t-80 0z" />
<glyph unicode="&#xa2;" horiz-adv-x="1357" d="M9.5 445q-29.5 171 92.5 352q86 127 195 206.5t250 110.5v209q12 12 16 15t23.5 4t65 1.5t141.5 4.5q-10 -43 -16.5 -97.5t-10.5 -117.5q111 -4 209 -29t201 -64q14 -14 20 -19t2 -26q-12 -18 -26.5 -47.5t-28 -58.5t-24.5 -48.5t-19 -15.5q-68 47 -157 65.5t-185 12.5 q-4 -162 -2 -335t6 -337q106 16 206.5 52t178.5 88q6 14 29 8q18 -14 38.5 -33.5t38 -41t30.5 -42t22 -35.5q-16 -18 -44 -35.5t-61 -33t-64.5 -28.5t-54.5 -24q-78 -35 -156.5 -59t-158.5 -37q2 -72 2 -134v-114q-10 0 -43 -2t-70 0t-67.5 8.5t-34.5 22.5v213 q-86 10 -170 42t-162 91q-182 137 -211.5 308zM49 540.5q-6 -112.5 44 -206.5t150.5 -166t233.5 -107q18 -6 42 -10t75 -10q2 -2 3 -38t1 -79t-1 -77.5t-3 -34.5q41 0 67.5 -3.5t67.5 -5.5q0 47 1 98.5t-1 104.5v37q27 2 62.5 10t74.5 18.5t79 24t75 27.5q16 6 46 18.5 t62.5 27.5t65.5 30.5t55 31.5q-8 14 -31.5 47t-50.5 56q-78 -59 -189.5 -97t-252.5 -55q-2 76 -5 180.5t-6 212t-3 208t4 171.5q106 16 197.5 -7t177.5 -66q16 33 36.5 60.5t30.5 62.5v2q-53 31 -120.5 45t-131 21t-115 10t-69.5 12q-2 0 2 31.5t8 69.5t9 71.5t5 40.5h-157 v-224q-156 -35 -262.5 -112.5t-188.5 -198.5q-82 -119 -88 -231.5zM203.5 461q-15.5 84 15.5 198q18 66 110.5 142t258.5 129q2 -29 3 -82t1 -121t-1 -144.5t-1 -150.5v-140.5t2 -111.5q-104 12 -187 46t-134.5 92.5t-67 142.5zM244.5 468q11.5 -75 53.5 -126t108.5 -80 t144.5 -37q0 154 -1 318t-3 319q-100 -35 -180 -89t-103 -128q-31 -102 -19.5 -177z" />
<glyph unicode="&#xa3;" horiz-adv-x="1486" d="M-225 -102q123 4 209 47t141 111.5t85 159.5t41 193.5t9 211t-8 213.5q-37 0 -91.5 2t-90.5 -9h-21q-12 4 -19 40t-9.5 80t4 84t20.5 52q16 2 51 1t71 -1t62.5 -1t26.5 1q14 258 82 424t168 258.5t223 120t250 9t244.5 -73t210.5 -127.5q-12 -16 -23.5 -46t-25 -56.5 t-30 -45t-38.5 -12.5q-180 106 -314.5 133t-229.5 -2t-156.5 -99.5t-97.5 -157.5t-50 -179t-16 -162q51 -6 101 -2t99 9t98.5 8t98.5 -3q12 -4 19.5 -33.5t9.5 -66.5t-2.5 -68.5t-16.5 -40.5q-20 -12 -80.5 -16t-129 -4t-127 2t-74.5 4q6 -18 1.5 -76.5t3 -134.5t33 -159 t91 -151.5t179 -109.5t296.5 -32q14 2 55 10t87 18t86 22.5t50 20.5q8 -10 26.5 -32.5t37 -50t32 -54.5t11.5 -41q-53 -39 -135 -62.5t-178.5 -30.5t-198 1t-195.5 34.5t-175 69.5t-132 105q-23 -92 -81 -176t-133 -153t-155 -116t-143 -65q-6 25 -20.5 52.5t-34 56t-42 53 t-40.5 43.5zM-164 -133q10 -6 26.5 -18.5t32 -30t27.5 -37t15 -37.5q63 23 135.5 72t137 114.5t115 143.5t68.5 157q2 6 9.5 12.5t15.5 0.5q88 -66 189.5 -119t220 -79t258 -16.5t303.5 68.5q-18 33 -43 59.5t-39 57.5q-35 -25 -95.5 -37t-126 -18t-123 -5t-83.5 5 q-51 8 -109 24q-8 0 -14 2q-121 45 -194 114t-109.5 158t-44 196.5t5.5 228.5l420 22q0 43 1 72t-10 70q20 4 -3 0.5t-69 -6.5t-105.5 -7t-112 -4t-88 6t-35.5 21q0 33 6 93t24.5 131t49 144.5t78.5 136t117 106.5t161 53.5t210 -23.5t267 -121q23 10 39 37.5t33 60.5 q-252 160 -457 184.5t-349.5 -64.5t-222 -281.5t-77.5 -462.5q4 -4 -24.5 -7.5t-67.5 -5.5t-77 -4t-50 -4v-2q0 -23 1 -48.5t1 -48t1 -40t3 -21.5q20 2 50 3t61.5 1t61.5 -1t48 -3q0 -121 1 -236.5t-8 -220t-34 -194.5t-76 -160.5t-135 -120t-211 -71.5z" />
<glyph unicode="&#xa4;" horiz-adv-x="1431" d="M17 1112q-1 2 13.5 16.5t51.5 46t108 99.5q16 -25 54.5 -67t85.5 -91q76 39 165 62.5t181 26.5t184 -14t174 -56q37 37 69 68.5t54 53.5q0 2 22.5 -20.5t48 -50t48 -50t22.5 -20.5l-100 -104q88 -86 137 -198t33 -230q-16 -94 -71.5 -178t-141.5 -150q47 -49 78 -78 l31 -31l-18 -21q-19 -20 -43.5 -44.5l-47 -47t-31.5 -28.5q-33 25 -72.5 68t-72.5 73q-154 -68 -318.5 -71.5t-330.5 74.5q-14 -16 -32.5 -37t-39 -41.5t-40 -38t-34.5 -27.5q-14 8 -40.5 34t-53.5 54.5t-46 51.5l-19 22l135 139q-61 78 -90 175.5t-19 205.5q4 82 31 150.5 t70 126.5q-57 53 -95.5 93t-38.5 46t-1 8zM78 1112q0 2 19.5 -18.5t44 -47t47 -50t26.5 -27.5q-72 -66 -102.5 -156t-25.5 -183t40 -180.5t94 -146.5q-143 -131 -139 -137q23 -23 51.5 -54.5t52.5 -54.5q12 14 29.5 35t37 42.5t39 41t32.5 31.5q74 -53 162.5 -77t180 -21.5 t175.5 29t147 73.5q12 -14 30.5 -36.5t37 -45.5t35 -42t26.5 -28q14 12 40.5 43.5t55.5 47.5q-43 33 -67.5 52t-38.5 30.5t-20.5 15.5t-10.5 6q98 66 167 153t83 187q8 59 -4 119.5t-37.5 115t-62.5 101.5t-76 78l94 114q-29 18 -44 35t-36 49q-37 -39 -57.5 -62.5 t-32.5 -35.5t-16 -17.5t-6 -7.5q-66 45 -159 63.5t-193.5 14.5t-198 -29.5t-166.5 -66.5q-4 4 -26.5 25.5t-49.5 46t-48.5 45t-23.5 20.5l-9 -9l-23.5 -23.5t-34 -31t-39.5 -26.5zM231 603q0 93 29 181q20 61 71.5 111.5t120 85.5t148.5 52.5t158 15.5t147.5 -26t116.5 -71 q90 -74 136 -180t5 -240q-23 -78 -87 -137t-150 -98t-183.5 -52.5t-188.5 -1t-165 55.5t-113 119q-45 92 -45 185zM275.5 604q3.5 -47 12.5 -91t25 -75q37 -72 113 -112.5t168 -50t188.5 11t176 70t131 125t51.5 175.5q0 96 -38 152t-106 111q-84 72 -185 90t-198.5 -6.5 t-181.5 -87t-133 -150.5q-16 -29 -21.5 -72t-2 -90z" />
<glyph unicode="&#xa5;" horiz-adv-x="1568" d="M-10 1763l174 158q27 -45 81 -124t118.5 -172t133 -188.5t126 -173t95.5 -129t42 -55.5l649 842q16 12 43 -1t54.5 -35.5t51 -46t33.5 -34.5q-6 -4 -39.5 -45t-86 -106.5t-117 -146.5t-132 -165t-131 -163.5t-112.5 -142t-79 -100.5l-30 -38h175t145 2q0 -57 -5 -97 t-5 -95q0 -18 -21 -23q-94 0 -163.5 1t-133.5 1q-2 -25 -2 -49.5v-50.5q66 0 139.5 -1t173.5 -1q14 -6 17.5 -14.5t7.5 -24.5l-2 -180l-26 1q-27 1 -73.5 2t-108.5 2t-132 1q-2 -111 -2 -212.5v-166.5q-10 0 -46 1t-76 2t-74 3t-36 4q-2 16 2.5 120.5t8.5 252.5h-176 t-146 -2q0 57 5 97t5 95q0 18 21 23q92 -2 161.5 -2h133.5q2 25 2 50.5v49.5h-137.5t-169.5 2q-10 4 -16.5 7t-6.5 18l-4 194q-2 0 23.5 -1t71.5 -3t106.5 -3t130.5 -1q-170 221 -292 384t-200 268.5t-113.5 157.5t-35.5 54zM33 1757q4 -8 33.5 -48t74.5 -101.5t101.5 -138 t116 -155.5t114.5 -154t99 -133t72 -94t28 -38q2 -20 4 -27.5t3 -8.5t-1 2t-10 3q-12 -4 -44 -4t-72 2t-81 4t-72.5 4t-49 2t-9.5 -2l-2 -141q2 -2 26.5 -3t61.5 -1t79 1t77.5 1h59.5h24q0 -16 1 -47t1 -61.5t-1 -52t-3 -21.5h-153t-155 2q0 -41 -3 -67.5t-7 -67.5 q0 -2 24.5 -2h59.5t75 1t74.5 1t58.5 -1l24 -1l1 -27q1 -27 1 -68v-89v-89t-1 -69l-1 -27q41 0 73.5 -3t73.5 -5q-2 4 -2 32.5t1 70.5t2 89t3 88t3 68l1 27q12 2 45 2t72 -2t81 -3.5t73.5 -3.5t50 -2t10.5 2l2 142q-109 2 -188.5 1t-141.5 1l4 182q16 6 47 5t72 -4t89 -5 t100 2q0 41 3 67.5t7 67.5q-55 -2 -133 -1t-183 1q-6 0 -5 15.5t-1 48.5l715 874q-33 25 -55.5 39t-53.5 41q-41 -47 -107.5 -138t-153.5 -208t-190.5 -250t-213.5 -264l-2 -2l-606 844z" />
<glyph unicode="&#xa6;" horiz-adv-x="360" d="M43 -584q0 135 2 244t5 211t6 210.5t3 246.5q4 16 35 22t68 8t69.5 0t42.5 -2q2 -92 3.5 -199.5t2.5 -215t2 -207t2 -176t2 -123.5t3 -47q-96 4 -141.5 4t-65 1t-23.5 4t-16 15v4zM57 672v4q0 135 1 290.5t3 314.5t3.5 313.5t1.5 291.5q4 16 34.5 22.5t67.5 8.5t69.5 0 t43.5 -2q2 -92 2 -221v-268.5t-1 -275.5t-1 -244.5v-175v-68.5q-96 4 -138.5 2t-57.5 -4.5t-15 -1.5t-13 14zM84 -571h158q-2 2 -1 80.5t1 204.5t-1 284t-5 317q-41 -2 -68 -5t-68 -3q0 -133 -3 -236.5t-6 -202.5t-5 -203.5t-2 -235.5zM98 688l142 8q-2 2 -2 60.5t1 154 t2 217t2 251.5t1 259t-2 236q-41 -2 -68 -5t-68 -3q0 -133 -1 -283.5t-3 -305.5t-3 -306.5t-1 -282.5z" />
<glyph unicode="&#xa7;" horiz-adv-x="1208" d="M-2 776q2 59 13.5 125t37.5 117q8 16 17.5 33.5t19.5 33.5q-41 39 -65.5 95.5t-22.5 138.5q2 59 13.5 124.5t37.5 117.5q88 168 222.5 251.5t289 99t315 -31.5t300.5 -139q6 -10 -8.5 -44t-37 -68t-48 -56.5t-40.5 -9.5q-139 82 -259.5 108.5t-219 13t-170 -57.5 t-114.5 -99q-51 -70 -71 -124t-0.5 -96t80 -73t171.5 -51q88 -16 157.5 -29.5t134 -34t129 -50.5t138.5 -81q74 -49 113.5 -127t51 -167t-5 -182t-53.5 -177q53 -86 62.5 -194.5t-16 -216t-82 -201t-134.5 -148.5q-104 -59 -222 -87t-236.5 -33t-233.5 8.5t-213 35.5 q-8 10 -7 48t10 78t25.5 69t41.5 22q59 -31 151 -42t192.5 -4t198 37t170 83t108.5 132t13 186q-18 86 -69.5 139t-123 85t-156.5 49t-170 33.5t-165 37t-140 59.5t-96 101.5t-34 162.5zM34 1301.5q3 -64.5 30.5 -119t89.5 -74.5q-41 -49 -70 -109q-25 -49 -38 -112.5 t-8 -128t32.5 -122.5t87.5 -99q61 -39 144 -59.5t172 -37t177 -34t161 -51t122 -91t59 -149.5q12 -109 -10 -187t-69.5 -130t-114 -82.5t-142 -48t-155.5 -23.5t-154 -11q-14 0 -44 3.5t-63.5 9.5t-68.5 16t-61 23q-10 -35 -20.5 -78t-16.5 -72q72 -31 182.5 -42t229 -3 t230 34.5t187.5 67.5q82 45 142.5 137.5t89 202t17 219t-74.5 189.5q41 82 59.5 172t11.5 174t-40 154.5t-94 113.5q-74 49 -139.5 78t-131 48.5t-136 33.5t-154.5 37q-4 2 -41 6t-83 17.5t-92.5 39t-68 69.5t-8 108.5t85.5 156.5q80 104 185.5 144.5t216 35t219 -44 t194.5 -90.5h2q10 6 31.5 45t44.5 76q-129 90 -279.5 132t-296 27t-272.5 -95t-207 -236q-23 -45 -38 -110.5t-12 -130zM169 752q-17 47 4.5 117.5t102.5 172.5q113 -37 234 -59t224.5 -56t175 -94.5t83.5 -175.5q2 -18 4 -48.5t1 -62.5t-7 -62t-18 -46q-66 39 -126.5 63.5 t-121.5 41t-128 31t-144 34.5q-8 2 -47 7.5t-86.5 19.5t-90.5 42t-60 75zM207.5 765q19.5 -42 80 -72.5t171.5 -51.5q76 -14 139.5 -26.5t120.5 -28t112.5 -38t116.5 -59.5q22 72 4 162q-23 106 -94.5 162.5t-166.5 87.5t-203.5 47.5t-204.5 40.5l-4 -4q-51 -70 -71 -124 t-0.5 -96z" />
<glyph unicode="&#xa8;" horiz-adv-x="765" d="M14 1552q2 47 6.5 94.5t6.5 94.5q2 4 34.5 6t71.5 0t72 -9t37 -20q4 -68 5 -106.5t-1 -59t-7.5 -26.5t-13.5 -6q-45 -4 -93 0t-93 2q-8 2 -16.5 11t-8.5 19zM47 1556q35 4 80 0t80 0l-6 138q-33 2 -67.5 5t-67.5 5q-2 -35 -9.5 -74t-9.5 -74zM485 1552q2 47 6.5 94.5 t6.5 94.5q2 4 34.5 6t71.5 0t72 -9t37 -20q4 -68 5 -106.5t-1 -59t-7 -26.5t-14 -6q-45 -4 -93 0t-93 2q-8 2 -16.5 11t-8.5 19zM518 1556q35 4 80 0t80 0l-6 138q-33 2 -67.5 5t-67.5 5q-2 -35 -9.5 -74t-9.5 -74z" />
<glyph unicode="&#xad;" horiz-adv-x="954" d="M-2 647q0 57 5 97t5 96q0 4 2 6q0 12 19 16q137 -2 232 -2h182h182.5t230.5 -2h4q4 -2 6 -2t4 -2l2 -2l5 -4q2 -4 2 -14l6 -15l-2 -180q-2 0 -42 1t-106.5 3t-153.5 3t-180.5 2t-186.5 0t-175 -3q-8 -16 -22.5 -16t-18.5 18zM39 686h145t173 -1t175 -3t155 -3t112 -2 l43 -1l2 141q-88 2 -157 2h-128h-112.5h-113h-128t-156.5 2q0 -41 -3 -67.5t-7 -67.5z" />
<glyph unicode="&#xb0;" horiz-adv-x="851" d="M10 1371q-6 83 27.5 166t103.5 142q63 51 142 72t159 15.5t152 -35t121 -79.5t65.5 -119t-12.5 -153q-25 -72 -83 -138t-135 -109t-167 -54.5t-180 25.5q-92 39 -139.5 111.5t-53.5 155.5zM52 1379.5q5 -72.5 46 -137t121 -101.5q70 -33 151 -25t153.5 45t128 97.5 t75.5 132.5q23 80 5.5 142t-62.5 106t-108.5 68t-133.5 27t-138.5 -17.5t-119.5 -65.5q-63 -55 -93 -127t-25 -144.5zM160.5 1382q-13.5 43 3.5 82q18 45 34.5 71t39 41t51 23.5t71.5 16.5h7q2 0 3 1t3 1l8 -4q53 4 103.5 -16.5t81 -55.5t33.5 -82t-36 -96 q-23 -29 -44 -47.5t-44.5 -30.5t-52.5 -21.5t-64 -19.5q-41 -12 -83 6.5t-71.5 53t-43 77.5zM200.5 1436.5q-1.5 -41.5 17 -76.5t54 -57.5t80.5 -18.5q59 6 102.5 34t66 62.5t25.5 73.5t-15.5 68.5t-58.5 45t-103 5.5q-10 -4 -13 0q-41 -6 -67.5 -13.5t-57.5 -46.5 q-29 -35 -30.5 -76.5z" />
<glyph unicode="&#xb1;" horiz-adv-x="1024" d="M-2 305q0 57 5 97t5 96q0 4 2 6q0 12 19 16q137 -2 232 -2h182h182.5t230.5 -2h4q4 -2 6 -2t4 -2l2 -2l5 -4q2 -4 2 -14l6 -15l-2 -180q-2 0 -42 1t-106.5 3t-153.5 3t-180.5 2t-186.5 0t-175 -3q-8 -16 -22.5 -16t-18.5 18zM-2 917.5q0 20.5 1 68.5t3 147q39 -6 92 -9.5 t100.5 -3.5t81 2t33.5 8q-4 2 -4 28v68t1 95t-1 113q-2 2 29 2h69.5h70.5t30 2q0 -2 2 -28t4 -62.5t4 -77.5t4 -74t4 -51.5t4 -7.5q0 -2 48.5 -1t105.5 1q68 0 151 2l3 -31q2 -31 3 -70t1 -75.5v-44.5q-6 -10 -51.5 -13.5t-98.5 -3.5t-102 2t-64 2q2 -31 6 -70.5t7.5 -82.5 t3.5 -85t-2 -75q-16 -4 -53.5 -6t-76 -2t-68.5 1t-30 3v27.5v66.5t1 96.5t5 116.5q-12 4 -60 2t-101.5 -5t-97.5 -5t-50 4q-4 4 -6 5t-2 21.5zM39 344h145t173 -1t175 -3t155 -3t112 -2l43 -1l2 141q-88 2 -157 2h-128h-112.5h-113h-128t-156.5 2q0 -41 -3 -67.5t-7 -67.5z M41 940h25.5t58.5 1t74 2t71.5 1h53.5h22q4 0 5 -23.5t0 -58.5t-2 -76t-2 -75.5t-1 -58t4 -25.5q25 6 72 2t80 0q-6 37 -7 78t-1 81.5v79.5t-2 72q0 6 17 5t54 -1t95.5 2t138.5 12q0 8 -1 27t-2 40.5t-1 41.5t4 37q-14 2 -63.5 -2t-104 -8t-96 -6.5t-41.5 2.5q-4 2 -7.5 45 t-5.5 96t-4 101t-2 59q-6 2 -23.5 2h-39t-41 -1t-25.5 -1q2 -57 3 -110.5t1 -94.5v-66.5v-29.5q2 -2 -43 -3.5t-102 -3.5q-68 -2 -154 -4l-1 -3q-1 -3 -2 -16t-2 -42t-3 -78z" />
<glyph unicode="&#xb8;" horiz-adv-x="589" d="M25 35q-6 8 27.5 11t74.5 4t78 -1l37 -2q-4 -47 1 -81t-1 -64q63 -2 130.5 -43t113.5 -102.5t56.5 -132t-40.5 -132.5q-43 -53 -97.5 -77.5t-116 -34t-125 -9.5t-122.5 -4l6 184q2 2 30.5 -1t68.5 -3t85 9.5t84 40.5l2 2q14 45 -5 74.5t-56 45t-82 19.5t-78 -2 q-10 2 -21.5 1t-21.5 0t-17 7t-7 27q0 63 -2 132.5t-2 131.5zM59 6q0 -59 5.5 -114.5t5.5 -114.5q33 8 88 2t105 -29.5t80.5 -66t12.5 -101.5q-8 -25 -44 -41t-81 -25.5t-89 -11.5t-66 2v-96q53 2 107.5 2t105.5 8.5t98 30t84 68.5q45 55 31.5 115.5t-57.5 110.5t-109.5 82 t-124.5 26q-2 4 -3 27.5t-2 51t-1 51v29.5q-8 -2 -35 -1t-54.5 2t-46 0t-10.5 -7z" />
<glyph unicode="&#xbf;" horiz-adv-x="962" d="M11.5 631.5q23.5 113.5 100 200t207 132.5t316.5 23q-2 31 -3 91.5t-1 129t1 132t3 100.5q63 2 102 3t58.5 -2t25.5 -8.5t6 -13.5v-137t2 -177t6.5 -174t8.5 -130q0 -14 4 -30.5t-17 -20.5q-55 18 -121.5 27t-134 5t-131 -21.5t-112.5 -52t-79 -90t-32 -133.5 q-2 -72 31 -120t86 -75.5t120.5 -37.5t136.5 -8t134.5 14t114.5 31q2 -6 24.5 -32t44 -55.5t28.5 -56t-19 -36.5q-80 -31 -162 -52.5t-159 -30t-148.5 -2t-133.5 30.5q-125 51 -201.5 146.5t-103 206t-3 224zM35 538.5q-4 -98.5 39 -195.5t143 -175q123 -96 291 -99t397 76 q-8 4 -18 17.5t-20.5 29t-21.5 30t-20 22.5q-90 -20 -193.5 -33.5t-196.5 1.5t-162.5 70.5t-92.5 170.5q-6 29 1 74.5t33 95t72 94.5t116.5 73.5t170 32.5t230.5 -30v4q-8 82 -12.5 154.5t-5.5 143t-1 144.5t2 158q-14 -2 -33.5 0t-38 3t-30.5 2t-12 -1v-36v-78t-1 -100 t-1 -104.5t-1 -89.5t-3 -55q-135 37 -249 16.5t-197 -81t-132 -148.5t-53 -186.5zM612 1573v180q10 4 43 8t69 3t65.5 -9t33.5 -29q2 -8 4 -27.5t4.5 -43t2.5 -48t-3 -38.5q-2 -10 -33.5 -13.5t-70.5 -3.5t-74 5.5t-41 15.5zM647 1593h148q-2 41 -2 67v64h-144z" />
<glyph unicode="&#xc0;" horiz-adv-x="1671" d="M39 -16q14 0 53 -3.5t80 -5.5t72.5 3.5t31.5 21.5q16 35 31 73t31 68q10 23 33.5 83.5t52.5 137t60.5 162.5t59 162t48 132t26.5 73q57 14 112.5 18t109 4t107.5 -1t108 3q10 -10 32.5 -70.5t53 -147.5t66.5 -190.5t70 -199.5t63.5 -176t50.5 -121q-4 -20 20 -20 q12 2 46 1t72 0t70.5 9t40.5 29q-47 96 -101 226t-108.5 276.5t-108.5 302t-103.5 304t-91.5 282.5t-73.5 236.5t-50 166t-20.5 73.5q-6 23 -25 19q-2 2 -6 2q-16 0 -39.5 -2t-48 -2h-48t-42.5 2q-16 4 -21 -5t-1 -20q-10 -23 -47 -116t-89.5 -229t-116 -303t-128 -338 t-125 -333.5t-107.5 -290.5t-74.5 -209t-25.5 -87zM94 20q0 4 28 80t73 200t102 281.5t119.5 324.5t124 330t111.5 296t86 225t48 115q14 -2 36 -2t44.5 1t44 3t35.5 2q10 -35 42 -143.5t81 -265t110.5 -346t130 -381t139.5 -374t140 -323.5h-37.5t-44 -2t-43 -4t-34.5 -4 q-20 43 -53.5 129t-71 188.5t-76.5 211t-70 196.5t-50 144.5t-17 58.5t-13.5 2h-39t-50 -2.5t-47.5 -2.5q-53 -2 -107.5 -4t-100.5 -4t-79.5 -5t-46.5 -5q-10 -2 -34.5 -59.5t-57.5 -144.5t-70.5 -193.5t-75.5 -208t-73 -185t-59 -129.5q-31 -4 -73 -2t-71 2zM606 2351 q-10 18 13.5 41t57.5 44.5t66.5 39t40.5 21.5q6 4 18.5 -2.5t51.5 -43t117 -116.5t215 -226q4 -12 -14.5 -34.5t-44 -44t-50 -37t-33.5 -11.5q-10 12 -42.5 41t-78.5 66t-97.5 78t-97.5 77.5t-80 65.5t-42 41zM651 1083q59 -2 110.5 -3t97.5 -1t92 3t96 10q-2 -4 -14.5 44 t-32 122.5t-41 161.5t-42 162t-36 125t-21.5 50q-2 0 -20.5 -52t-44 -130t-55 -168t-52 -165t-34 -121t-3.5 -38zM659 2365q6 -8 36 -34.5t72 -61.5t89 -75t88 -74.5t71 -62.5t38 -36q27 20 46 38t46 38l-357 363q-29 -16 -64.5 -47t-64.5 -48zM700 1114q0 2 11.5 42 t28 99.5t37 128t37.5 129t29.5 101.5t14.5 47q0 -2 10.5 -42t26.5 -98.5t34.5 -126t34 -127t24.5 -100.5t7 -45q-49 -4 -82.5 -6t-63.5 -3t-63.5 0t-85.5 1z" />
<glyph unicode="&#xc1;" horiz-adv-x="1671" d="M39 -16q-2 6 25.5 87t74.5 209t107.5 290.5t125 333.5t128 338t116 303t89 229.5t47.5 115.5q-4 10 1 19.5t21 5.5q18 -2 42 -2h48.5t48 2t39.5 2q4 0 6 -2q18 4 25 -19q2 -10 20.5 -73.5t50 -166t73.5 -236.5t91.5 -282.5t103.5 -304t108.5 -302t108.5 -276.5t101 -226 q-8 -20 -40.5 -28.5t-70.5 -9.5t-72 0t-46 -1q-25 0 -20 20q-20 41 -50 121t-64 176t-70 199.5t-66.5 190.5t-53 147.5t-32.5 70.5q-53 -4 -107.5 -3t-108 1t-108.5 -4t-113 -18q-6 -16 -26.5 -72.5t-48 -132.5t-59 -162t-60.5 -162.5t-52.5 -137t-33.5 -83.5 q-16 -31 -30.5 -68.5t-31.5 -72.5q0 -16 -31.5 -21.5t-72.5 -3.5t-80 5.5t-53 3.5zM94 20q29 0 71 -2t73 2q25 45 59.5 129t72.5 185.5t75.5 208t70.5 193.5t57.5 144.5t34.5 59.5q12 2 46 5t80 5t100.5 4t107.5 4q20 0 47 2.5t50.5 2.5h39t13.5 -2t17 -58.5t50 -144.5 t70 -196.5t76.5 -211t70.5 -188.5t54 -129q14 2 34.5 4t43 4t44 2h37.5q-70 141 -140.5 323.5t-139 374t-130 381t-110.5 346t-81 265t-42 143.5q-14 0 -35.5 -2t-44 -3t-44 -1t-36.5 2q-12 -23 -48 -115t-86 -225t-111.5 -296t-124 -330t-119.5 -324.5t-102 -281.5 t-73 -199.5t-28 -80.5zM557 2109q137 145 215 225.5t117 117t51 43t18 2.5q8 -4 41 -21.5t67 -39t57.5 -44t13.5 -41.5q-10 -12 -43 -41t-79 -65.5t-97.5 -77.5t-97.5 -78t-79.5 -65.5t-42.5 -41.5q-8 -4 -32.5 11.5t-50 37t-44 44t-14.5 34.5zM598 2097q27 -20 46 -38 t46 -38q6 8 37 36t72 62.5t88 74.5t89 75t71.5 61.5t35.5 34.5q-29 16 -64.5 47t-64.5 48zM651 1083q-8 -8 3.5 38t34 121t52 165t55 168t44 130t20.5 52q6 0 21.5 -50t36 -125t42 -162t41 -161.5t31.5 -123t15 -43.5q-49 -6 -95.5 -9.5t-92.5 -3.5t-97.5 1t-110.5 3z M700 1114q51 0 85 -1t64 0t63.5 3t82.5 6q2 4 -7 45t-24.5 100.5t-34 127t-34.5 126t-26.5 98.5t-10.5 42q-2 -6 -14.5 -47t-29.5 -101.5t-37.5 -129t-37 -128t-28 -99.5t-11.5 -42z" />
<glyph unicode="&#xc2;" horiz-adv-x="1671" d="M39 -16q14 0 53 -3.5t80 -5.5t72.5 3.5t31.5 21.5q16 35 31 73t31 68q10 23 33.5 83.5t52.5 137t60.5 162.5t59 162t48 132t26.5 73q57 14 112.5 18t109 4t107.5 -1t108 3q10 -10 32.5 -70.5t53 -147.5t66.5 -190.5t70 -199.5t63.5 -176t50.5 -121q-4 -20 20 -20 q12 2 46 1t72 0t70.5 9t40.5 29q-47 96 -101 226t-108.5 276.5t-108.5 302t-103.5 304t-91.5 282.5t-73.5 236.5t-50 166t-20.5 73.5q-6 23 -25 19q-2 2 -6 2q-16 0 -39.5 -2t-48 -2h-48t-42.5 2q-16 4 -21 -5t-1 -20q-10 -23 -47 -116t-89.5 -229t-116 -303t-128 -338 t-125 -333.5t-107.5 -290.5t-74.5 -209t-25.5 -87zM94 20q0 4 28 80t73 200t102 281.5t119.5 324.5t124 330t111.5 296t86 225t48 115q14 -2 36 -2t44.5 1t44 3t35.5 2q10 -35 42 -143.5t81 -265t110.5 -346t130 -381t139.5 -374t140 -323.5h-37.5t-44 -2t-43 -4t-34.5 -4 q-20 43 -53.5 129t-71 188.5t-76.5 211t-70 196.5t-50 144.5t-17 58.5t-13.5 2h-39t-50 -2.5t-47.5 -2.5q-53 -2 -107.5 -4t-100.5 -4t-79.5 -5t-46.5 -5q-10 -2 -34.5 -59.5t-57.5 -144.5t-70.5 -193.5t-75.5 -208t-73 -185t-59 -129.5q-31 -4 -73 -2t-71 2zM422 2050 q-16 12 4 36.5t66.5 77t114 139.5t147.5 222q4 0 30.5 -1t58 -3t59.5 -8t38 -14l22 -30q23 -30 57 -75t72.5 -96t72.5 -95t56 -74l21 -30q6 -12 -7 -30.5t-33.5 -37t-44 -34t-38.5 -19.5q-10 -4 -30.5 16.5t-46 52.5t-54.5 72t-54.5 75.5t-46 64.5t-30.5 37 q2 -2 -17.5 -27.5t-49 -63.5t-66.5 -82t-69.5 -82t-55.5 -63.5t-25 -25.5q-29 29 -68.5 57.5t-82.5 40.5zM459 2083q29 -10 62.5 -35t56.5 -45q4 4 25.5 31.5t51 66.5t63.5 82t63.5 80t50 61.5t24.5 24.5q8 0 27.5 -23.5t45 -58.5t54.5 -77t55.5 -78.5t48 -62.5t31.5 -30 q23 8 47.5 24.5t40.5 47.5q-2 0 -24.5 27.5t-55 70.5t-71.5 93.5t-72 93.5t-53 72l-21 28q2 2 -4 2l2 -2q-4 -2 -25.5 -1t-46 1h-45t-22.5 -4q-104 -147 -164.5 -226t-92.5 -115t-41 -41t-11 -7zM651 1083q59 -2 110.5 -3t97.5 -1t92 3t96 10q-2 -4 -14.5 44t-32 122.5 t-41 161.5t-42 162t-36 125t-21.5 50q-2 0 -20.5 -52t-44 -130t-55 -168t-52 -165t-34 -121t-3.5 -38zM700 1114q0 2 11.5 42t28 99.5t37 128t37.5 129t29.5 101.5t14.5 47q0 -2 10.5 -42t26.5 -98.5t34.5 -126t34 -127t24.5 -100.5t7 -45q-49 -4 -82.5 -6t-63.5 -3t-63.5 0 t-85.5 1z" />
<glyph unicode="&#xc3;" horiz-adv-x="1671" d="M39 -16q-2 6 25.5 87t74.5 209t107.5 290.5t125 333.5t128 338t116 303t89 229.5t47.5 115.5q-4 10 1 19.5t21 5.5q18 -2 42 -2h48.5t48 2t39.5 2q4 0 6 -2q18 4 25 -19q2 -10 20.5 -73.5t50 -166t73.5 -236.5t91.5 -282.5t103.5 -304t108.5 -302t108.5 -276.5t101 -226 q-8 -20 -40.5 -28.5t-70.5 -9.5t-72 0t-46 -1q-25 0 -20 20q-20 41 -50 121t-64 176t-70 199.5t-66.5 190.5t-53 147.5t-32.5 70.5q-53 -4 -107.5 -3t-108 1t-108.5 -4t-113 -18q-6 -16 -26.5 -72.5t-48 -132.5t-59 -162t-60.5 -162.5t-52.5 -137t-33.5 -83.5 q-16 -31 -30.5 -68.5t-31.5 -72.5q0 -16 -31.5 -21.5t-72.5 -3.5t-80 5.5t-53 3.5zM94 20q29 0 71 -2t73 2q25 45 59.5 129t72.5 185.5t75.5 208t70.5 193.5t57.5 144.5t34.5 59.5q12 2 46 5t80 5t100.5 4t107.5 4q20 0 47 2.5t50.5 2.5h39t13.5 -2t17 -58.5t50 -144.5 t70 -196.5t76.5 -211t70.5 -188.5t54 -129q14 2 34.5 4t43 4t44 2h37.5q-70 141 -140.5 323.5t-139 374t-130 381t-110.5 346t-81 265t-42 143.5q-14 0 -35.5 -2t-44 -3t-44 -1t-36.5 2q-12 -23 -48 -115t-86 -225t-111.5 -296t-124 -330t-119.5 -324.5t-102 -281.5 t-73 -199.5t-28 -80.5zM389 2228q0 12 6 19q8 31 46 58.5t84 49t92.5 34.5t72.5 13q27 0 59.5 -13t51.5 -24q66 -31 105.5 -61.5t71.5 -45.5t65.5 -8t86.5 48q18 16 44 41.5t34 50.5q4 10 11 12q4 8 14 10.5t20 -6.5q6 -14 26.5 -32.5t42 -39t38 -40t12.5 -35.5t-27.5 -49 t-97.5 -96q-88 -78 -155.5 -93.5t-128 4t-120 60.5t-130.5 80q-16 8 -45 3t-57.5 -19.5t-53.5 -33t-33 -34.5q-14 -10 -26 8q-16 10 -34 27.5t-33 37t-26.5 40t-15.5 34.5zM432 2228q10 -25 32.5 -47t43.5 -45q8 8 29.5 23.5t48 28t54.5 19.5t50 1q55 -14 98 -40t80 -49.5 t73 -42t77 -20.5t90 17.5t115 72.5q8 8 24.5 22.5t31.5 32t28.5 34t17.5 26.5l-86 96q-14 -27 -37.5 -51.5t-46.5 -40.5q-74 -55 -119 -58t-86 20.5t-94 62.5t-143 69q-18 6 -62.5 -5t-91.5 -30.5t-84 -45.5t-41 -46q-2 -2 -2 -4zM651 1083q-8 -8 3.5 38t34 121t52 165 t55 168t44 130t20.5 52q6 0 21.5 -50t36 -125t42 -162t41 -161.5t31.5 -123t15 -43.5q-49 -6 -95.5 -9.5t-92.5 -3.5t-97.5 1t-110.5 3zM700 1114q51 0 85 -1t64 0t63.5 3t82.5 6q2 4 -7 45t-24.5 100.5t-34 127t-34.5 126t-26.5 98.5t-10.5 42q-2 -6 -14.5 -47 t-29.5 -101.5t-37.5 -129t-37 -128t-28 -99.5t-11.5 -42z" />
<glyph unicode="&#xc4;" horiz-adv-x="1671" d="M39 -16q-2 6 25.5 87t74.5 209t107.5 290.5t125 333.5t128 338t116 303t89 229.5t47.5 115.5q-4 10 1 19.5t21 5.5q18 -2 42 -2h48.5t48 2t39.5 2q4 0 6 -2q18 4 25 -19q2 -10 20.5 -73.5t50 -166t73.5 -236.5t91.5 -282.5t103.5 -304t108.5 -302t108.5 -276.5t101 -226 q-8 -20 -40.5 -28.5t-70.5 -9.5t-72 0t-46 -1q-25 0 -20 20q-20 41 -50 121t-64 176t-70 199.5t-66.5 190.5t-53 147.5t-32.5 70.5q-53 -4 -107.5 -3t-108 1t-108.5 -4t-113 -18q-6 -16 -26.5 -72.5t-48 -132.5t-59 -162t-60.5 -162.5t-52.5 -137t-33.5 -83.5 q-16 -31 -30.5 -68.5t-31.5 -72.5q0 -16 -31.5 -21.5t-72.5 -3.5t-80 5.5t-53 3.5zM94 20q29 0 71 -2t73 2q25 45 59.5 129t72.5 185.5t75.5 208t70.5 193.5t57.5 144.5t34.5 59.5q12 2 46 5t80 5t100.5 4t107.5 4q20 0 47 2.5t50.5 2.5h39t13.5 -2t17 -58.5t50 -144.5 t70 -196.5t76.5 -211t70.5 -188.5t54 -129q14 2 34.5 4t43 4t44 2h37.5q-70 141 -140.5 323.5t-139 374t-130 381t-110.5 346t-81 265t-42 143.5q-14 0 -35.5 -2t-44 -3t-44 -1t-36.5 2q-12 -23 -48 -115t-86 -225t-111.5 -296t-124 -330t-119.5 -324.5t-102 -281.5 t-73 -199.5t-28 -80.5zM530 2105q2 47 6.5 94.5t6.5 94.5q2 4 34.5 6t71.5 0t72 -9t37 -20q4 -68 5 -106.5t-1 -59t-7 -26.5t-14 -6q-45 -4 -93 0t-93 2q-8 2 -16.5 11t-8.5 19zM563 2109q35 4 80 0t80 0l-6 138q-33 2 -67.5 5t-67.5 5q-2 -35 -9.5 -74t-9.5 -74zM651 1083 q-8 -8 3.5 38t34 121t52 165t55 168t44 130t20.5 52q6 0 21.5 -50t36 -125t42 -162t41 -161.5t31.5 -123t15 -43.5q-49 -6 -95.5 -9.5t-92.5 -3.5t-97.5 1t-110.5 3zM700 1114q51 0 85 -1t64 0t63.5 3t82.5 6q2 4 -7 45t-24.5 100.5t-34 127t-34.5 126t-26.5 98.5t-10.5 42 q-2 -6 -14.5 -47t-29.5 -101.5t-37.5 -129t-37 -128t-28 -99.5t-11.5 -42zM1001 2105q2 47 6.5 94.5t6.5 94.5q2 4 34.5 6t71.5 0t72 -9t37 -20q4 -68 5 -106.5t-1 -59t-7 -26.5t-14 -6q-45 -4 -93 0t-93 2q-8 2 -16.5 11t-8.5 19zM1034 2109q35 4 80 0t80 0l-6 138 q-33 2 -67.5 5t-67.5 5q-2 -35 -9.5 -74t-9.5 -74z" />
<glyph unicode="&#xc5;" horiz-adv-x="1671" d="M39 -16q-2 6 25.5 87t74.5 209t107.5 290.5t125 333.5t128 338t116 303t89 229.5t47.5 115.5q-4 10 1 19.5t21 5.5q18 -2 42 -2h48.5t48 2t39.5 2q4 0 6 -2q18 4 25 -19q2 -10 20.5 -73.5t50 -166t73.5 -236.5t91.5 -282.5t103.5 -304t108.5 -302t108.5 -276.5t101 -226 q-8 -20 -40.5 -28.5t-70.5 -9.5t-72 0t-46 -1q-25 0 -20 20q-20 41 -50 121t-64 176t-70 199.5t-66.5 190.5t-53 147.5t-32.5 70.5q-53 -4 -107.5 -3t-108 1t-108.5 -4t-113 -18q-6 -16 -26.5 -72.5t-48 -132.5t-59 -162t-60.5 -162.5t-52.5 -137t-33.5 -83.5 q-16 -31 -30.5 -68.5t-31.5 -72.5q0 -16 -31.5 -21.5t-72.5 -3.5t-80 5.5t-53 3.5zM94 20q29 0 71 -2t73 2q25 45 59.5 129t72.5 185.5t75.5 208t70.5 193.5t57.5 144.5t34.5 59.5q12 2 46 5t80 5t100.5 4t107.5 4q20 0 47 2.5t50.5 2.5h39t13.5 -2t17 -58.5t50 -144.5 t70 -196.5t76.5 -211t70.5 -188.5t54 -129q14 2 34.5 4t43 4t44 2h37.5q-70 141 -140.5 323.5t-139 374t-130 381t-110.5 346t-81 265t-42 143.5q-14 0 -35.5 -2t-44 -3t-44 -1t-36.5 2q-12 -23 -48 -115t-86 -225t-111.5 -296t-124 -330t-119.5 -324.5t-102 -281.5 t-73 -199.5t-28 -80.5zM520 2266q-6 83 27.5 166t103.5 142q63 51 142 71.5t159 15.5t152 -34.5t121 -79.5t65.5 -119t-12.5 -153q-25 -72 -83 -138t-135 -109t-167 -54.5t-180 25.5q-92 39 -139.5 111.5t-53.5 155.5zM562 2274.5q5 -72.5 46 -137t121 -101.5 q70 -33 151 -25t153.5 45t128 97.5t75.5 132.5q23 80 5.5 142t-62.5 106t-108.5 68t-133.5 27t-138.5 -17.5t-119.5 -65.5q-63 -55 -93 -127t-25 -144.5zM651 1083q-8 -8 3.5 38t34 121t52 165t55 168t44 130t20.5 52q6 0 21.5 -50t36 -125t42 -162t41 -161.5t31.5 -123 t15 -43.5q-49 -6 -95.5 -9.5t-92.5 -3.5t-97.5 1t-110.5 3zM670.5 2277q-13.5 43 3.5 82q18 45 34.5 71t39 41t51 23.5t71.5 16.5h7q2 0 3 1t3 1l8 -4q53 4 103 -16.5t81 -55.5t34 -82t-36 -96q-23 -29 -44 -47.5t-44.5 -30.5t-52.5 -21.5t-64 -19.5q-41 -12 -83 6.5 t-71.5 53t-43 77.5zM700 1114q51 0 85 -1t64 0t63.5 3t82.5 6q2 4 -7 45t-24.5 100.5t-34 127t-34.5 126t-26.5 98.5t-10.5 42q-2 -6 -14.5 -47t-29.5 -101.5t-37.5 -129t-37 -128t-28 -99.5t-11.5 -42zM710.5 2331.5q-1.5 -41.5 16.5 -76.5t54 -57.5t81 -18.5 q59 6 102.5 34t66 62.5t25.5 73.5t-15.5 68.5t-58.5 45t-103 5.5q-10 -4 -13 0q-41 -6 -67.5 -13.5t-57.5 -46.5q-29 -35 -30.5 -76.5z" />
<glyph unicode="&#xc6;" horiz-adv-x="1816" d="M39 -16q-2 6 25.5 87t74.5 209t107.5 290.5t125 333.5t128 338t116 303t89 229.5t47.5 115.5q-4 10 1 19.5t21 5.5q4 0 14.5 -2t41 -3t88 -3t157 -2h249t362.5 2q14 4 26 -26t17.5 -66.5t1 -70.5t-22.5 -36q-100 0 -176 -3t-147.5 -6t-147.5 -6t-174 -3q0 -57 -1 -133 t-1 -156v-156v-133q76 2 141.5 5t127 5t125 5t136.5 8q14 4 21.5 -23t10.5 -59.5t3 -61v-30.5q-2 -2 -44 -8.5t-104.5 -13.5t-134 -14t-134 -13.5t-104.5 -9.5t-44 -3v-42v-103.5v-142.5v-157.5v-150.5v-121q68 -2 143.5 -1t150.5 4t143.5 6.5t122.5 6.5t88 3t40 -4 q12 -10 17.5 -40t6.5 -63t-3.5 -62.5t-12.5 -37.5q-2 0 -4 -1t-4 -1h-2q-98 0 -198.5 1t-200.5 -3q-14 0 -58.5 -1t-100.5 -1h-117.5t-112 1t-81 3t-26.5 4l1 79t2 207t2 292.5t1 338.5q-59 0 -118.5 -3t-121.5 -19q-6 -16 -26.5 -72.5t-48 -132.5t-59 -162t-60.5 -162.5 t-52.5 -137t-33.5 -83.5q-16 -31 -30.5 -68.5t-31.5 -72.5q0 -16 -31.5 -21.5t-72.5 -3.5t-80 5.5t-53 3.5zM94 20q29 0 71 -2t73 2q25 45 59.5 129t72.5 185.5t75.5 208t70.5 193.5t57.5 144.5t34.5 59.5q4 -4 47 -1t94.5 7t95.5 6t48 0q-2 -270 -2 -494.5v-426.5 q70 2 125 1t105 -2t104.5 -1t124.5 2q98 4 196.5 3t196.5 -1q-4 41 -9 65.5t-8 65.5q-100 -4 -181 -6t-159.5 -5t-159.5 -6.5t-182 -5.5h-2q-23 0 -22 25l10 774q76 2 144.5 8t135 12.5t135 12.5t144.5 10q-4 23 -7 56.5t-7 54.5q-18 -2 -66.5 -5.5t-110 -5.5t-128 -4 t-122.5 -3t-92 -1t-36 2v95.5v124v135t1 129t2 104.5t3 66q2 -2 68.5 -1t167 4t218 7t220.5 8l-14 117l-900 6q-12 -23 -48 -115t-86 -225t-111.5 -296t-124 -330t-119.5 -324.5t-102 -281.5t-73 -199.5t-28 -80.5zM651 1083q-6 -4 7.5 44.5t36 122t51 160.5t53 163t42 126 t17.5 52q6 0 5 1t0 1t6 -1t24 -3q0 -78 1 -154.5t2 -156.5t1 -166v-185q-2 0 -27.5 -2t-62.5 -4t-79 -2t-77 4zM700 1114q55 -2 90 -2t68 2q0 164 1 312.5t3 259.5q-35 -143 -85 -284.5t-77 -287.5z" />
<glyph unicode="&#xc7;" horiz-adv-x="1439" d="M22.5 753.5q-18.5 147.5 12.5 331.5q35 201 109.5 347.5t178 245t227.5 153.5t257 71.5t268 -1t260 -62.5q33 -12 48.5 -22.5t21.5 -18.5t6 -16t4 -21q-12 -16 -24.5 -40.5t-25.5 -46t-30.5 -36t-40.5 -8.5q-94 39 -195.5 58.5t-203.5 12.5t-201.5 -42t-191.5 -105 q-100 -78 -168 -180t-99.5 -217t-28.5 -234.5t41 -231t110.5 -208t181.5 -164.5q111 -66 235.5 -101.5t253.5 -24.5q14 2 55 10t87.5 18t86 22.5t50.5 20.5q6 -6 20 -26.5t30.5 -45t30 -47t17.5 -30.5q10 -8 8 -29q-18 -35 -109.5 -58.5t-226.5 -25.5v-20.5t-2 -20.5 q63 -2 131 -43t114 -102.5t56 -132t-41 -132.5q-43 -53 -97 -77.5t-115.5 -33.5t-125 -9t-123.5 -4l7 184q2 2 30.5 -1t68.5 -3t85 9t84 40l2 2q14 45 -5.5 74.5t-56 45t-81.5 19.5t-78 -2q-10 2 -21.5 1t-21.5 0t-17.5 7.5t-7.5 26.5q0 45 -1 92t-3 94q-109 14 -221.5 49 t-213.5 91.5t-186 139.5t-140.5 196.5t-74 261zM63 1026q-16 -158 7.5 -288t80 -234.5t138.5 -185t180 -136t206.5 -88.5t217.5 -41q4 -74 7 -122t3 -95q33 8 88.5 2t105.5 -29.5t80.5 -65.5t12.5 -101q-8 -25 -44 -41.5t-81 -25.5t-89 -11t-67 2v-96q53 2 107.5 2t106 8 t98.5 29.5t84 68.5q45 55 31.5 117.5t-58.5 115t-110.5 82t-123.5 19.5q0 2 -1 22.5t-2 43t-2 43t-1 24.5q84 -2 171 12.5t155 40.5q-18 33 -43 59.5t-39 57.5q-35 -25 -95.5 -37t-126 -18t-122.5 -5t-84 5q-82 14 -174 42.5t-170 88.5q-201 152 -294 352.5t-40 462.5 q29 133 92.5 241.5t151.5 189.5t194.5 133t222 70.5t234.5 2t232 -69.5q23 10 39 38t32 61q-27 27 -91 50t-154.5 35.5t-199 9.5t-219 -31t-217 -85t-194.5 -154.5t-150.5 -237.5t-85.5 -333z" />
<glyph unicode="&#xc8;" horiz-adv-x="1126" d="M23 4q-4 -2 35.5 -4t104 -3t141.5 -1h147.5t123 1t68.5 1q100 4 200.5 3t198.5 -1h2q2 0 4.5 1t4.5 1q8 8 12 38t3 62.5t-6 62.5t-18 40q-6 4 -49 4t-111.5 -3t-153.5 -6t-173 -6.5t-173 -4.5t-153 1v125v161v171v155.5v114v46.5q2 0 53.5 3t127 9t165 13t165 14.5 t127 13.5t53.5 8v30.5t-3.5 61.5t-10.5 59.5t-21 22.5q-74 -4 -157 -7t-168 -5t-170 -5t-161 -5v124.5v136t1 136t1 125.5q199 2 384.5 10t386.5 8q18 2 22 36t-1 71t-17.5 66.5t-26.5 25.5q-225 -2 -470 -2t-472 -2q-2 -2 -3 -85t-3 -217t-2 -305t-1 -349.5t-2 -348.5 t-2 -304t-1 -216t-2 -82zM61 39q0 125 1 274.5t1 312t2.5 330.5t2.5 331t1 312.5t1 274.5q223 2 454.5 0t456.5 0l14 -117q-68 -4 -153.5 -6t-173.5 -5t-172 -5t-150.5 -3t-107.5 -1t-41 2q-4 -29 -5.5 -104.5t-1.5 -167v-180.5v-146q0 -2 45.5 -2t115 1t152.5 3t158.5 4 t133 5t75.5 5q4 -20 7.5 -54t7.5 -56q-76 -4 -164 -10.5t-178 -12.5t-178.5 -12t-163.5 -8l-11 -830q0 -25 23 -24h2q201 4 403.5 10t403.5 12q2 -41 7 -65.5t9 -65.5q-98 0 -196.5 1t-196.5 -3q-141 -4 -291.5 0t-292.5 0zM240 2351q-10 18 13 41t57 44.5t67 39t41 21.5 q6 4 18.5 -2.5t51 -43t116.5 -116.5t215 -226q4 -12 -14.5 -34.5t-44 -44t-50 -37t-32.5 -11.5q-10 12 -43 41t-79 66t-97 78t-97.5 77.5t-80 65.5t-41.5 41zM293 2365q6 -8 35.5 -34.5t71.5 -61.5t89.5 -75t88 -74.5t70.5 -62.5t38 -36q27 20 46.5 38t45.5 38l-356 363 q-29 -16 -64.5 -47t-64.5 -48z" />
<glyph unicode="&#xc9;" horiz-adv-x="1126" d="M23 4q2 0 2 82t1 216t2 304t2 348.5t1 349.5t2 305t3 217t3 85q227 2 472 2t470 2q14 4 26.5 -25.5t17.5 -66.5t1 -71t-22 -36q-201 0 -386.5 -8t-384.5 -10q0 -57 -1 -125t-1 -136.5v-136v-124.5q76 2 161 5t170 5t168 5t157 7q14 4 21 -22.5t10.5 -59.5t3.5 -61.5 v-30.5q-2 -2 -53.5 -8t-127 -13.5t-165 -14.5t-165 -13t-127 -9t-53.5 -3v-46.5v-114v-155.5v-171v-160.5v-125.5q68 -2 153 -1t173 4.5t173 6.5t153.5 6t111.5 3t49 -4q12 -10 17.5 -40t6.5 -62.5t-3 -62.5t-12 -38q-2 0 -4 -1t-5 -1h-2q-98 0 -198.5 1t-200.5 -3 q-16 0 -68.5 -1t-123 -1h-147.5t-141.5 1t-104.5 3t-35 4zM61 39q141 4 292 0t292 0q98 4 196.5 3t196.5 -1q-4 41 -9 65.5t-7 65.5q-201 -6 -403.5 -12t-403.5 -10h-2q-23 0 -23 24l11 830q76 2 164 8t178 12t178 12t164 11q-4 23 -7.5 56.5t-7.5 53.5q-18 -2 -75.5 -5 t-133 -5t-158.5 -4t-152.5 -3t-115 -1t-45.5 2v146v180.5t1.5 167t5.5 104.5q0 -2 41 -2t107.5 1t150.5 3t172 5t174 5t153 6l-14 117q-225 -2 -456.5 0t-454.5 0q0 -125 -1 -274.5t-1 -312.5t-2.5 -331t-2.5 -330.5t-1 -312t-1 -274.5zM266 2109q137 145 215 225.5t117 117 t51.5 43t18.5 2.5q8 -4 40.5 -21.5t66.5 -39t57.5 -44t13.5 -41.5q-10 -12 -43 -41t-79 -65.5t-97.5 -77.5t-97.5 -78t-79.5 -65.5t-41.5 -41.5q-8 -4 -33 11.5t-50.5 37t-44 44t-14.5 34.5zM307 2097q27 -20 46 -38t46 -38q6 8 37 36t72 62.5t88 74.5t89 75t71.5 61.5 t36.5 34.5q-29 16 -65 47t-64 48z" />
<glyph unicode="&#xca;" horiz-adv-x="1126" d="M23 4q-4 -2 35.5 -4t104 -3t141.5 -1h147.5t123 1t68.5 1q100 4 200.5 3t198.5 -1h2q2 0 4.5 1t4.5 1q8 8 12 38t3 62.5t-6 62.5t-18 40q-6 4 -49 4t-111.5 -3t-153.5 -6t-173 -6.5t-173 -4.5t-153 1v125v161v171v155.5v114v46.5q2 0 53.5 3t127 9t165 13t165 14.5 t127 13.5t53.5 8v30.5t-3.5 61.5t-10.5 59.5t-21 22.5q-74 -4 -157 -7t-168 -5t-170 -5t-161 -5v124.5v136t1 136t1 125.5q199 2 384.5 10t386.5 8q18 2 22 36t-1 71t-17.5 66.5t-26.5 25.5q-225 -2 -470 -2t-472 -2q-2 -2 -3 -85t-3 -217t-2 -305t-1 -349.5t-2 -348.5 t-2 -304t-1 -216t-2 -82zM61 39q0 125 1 274.5t1 312t2.5 330.5t2.5 331t1 312.5t1 274.5q223 2 454.5 0t456.5 0l14 -117q-68 -4 -153.5 -6t-173.5 -5t-172 -5t-150.5 -3t-107.5 -1t-41 2q-4 -29 -5.5 -104.5t-1.5 -167v-180.5v-146q0 -2 45.5 -2t115 1t152.5 3t158.5 4 t133 5t75.5 5q4 -20 7.5 -54t7.5 -56q-76 -4 -164 -10.5t-178 -12.5t-178.5 -12t-163.5 -8l-11 -830q0 -25 23 -24h2q201 4 403.5 10t403.5 12q2 -41 7 -65.5t9 -65.5q-98 0 -196.5 1t-196.5 -3q-141 -4 -291.5 0t-292.5 0zM123 2050q-16 12 4 36.5t66.5 77t114 139.5 t147.5 222q4 0 30.5 -1t58 -3t59.5 -8t38 -14l23 -30q22 -30 56 -75t72.5 -96t72.5 -95t55 -74l22 -30q6 -12 -7 -30.5t-33.5 -37t-44 -34t-38.5 -19.5q-10 -4 -30.5 16.5t-46 52.5t-54.5 72t-54.5 75.5t-46 64.5t-30.5 37q2 -2 -17.5 -27.5t-49 -63.5t-66.5 -82t-69.5 -82 t-55.5 -63.5t-25 -25.5q-29 29 -68.5 57.5t-82.5 40.5zM160 2083q29 -10 62.5 -35t56.5 -45q4 4 25.5 31.5t51 66.5t63.5 82t63.5 80t50 61.5t24.5 24.5q8 0 27.5 -23.5t45 -58.5t54.5 -77t55.5 -78.5t48 -62.5t31.5 -30q23 8 47.5 24.5t40.5 47.5q-2 0 -24.5 27.5t-55 70.5 t-71.5 93.5t-72 93.5t-54 72l-20 28q2 2 -4 2l2 -2q-4 -2 -25.5 -1t-46 1h-45t-22.5 -4q-104 -147 -164.5 -226t-92.5 -115t-41 -41t-11 -7z" />
<glyph unicode="&#xcb;" horiz-adv-x="1126" d="M23 4q2 0 2 82t1 216t2 304t2 348.5t1 349.5t2 305t3 217t3 85q227 2 472 2t470 2q14 4 26.5 -25.5t17.5 -66.5t1 -71t-22 -36q-201 0 -386.5 -8t-384.5 -10q0 -57 -1 -125t-1 -136.5v-136v-124.5q76 2 161 5t170 5t168 5t157 7q14 4 21 -22.5t10.5 -59.5t3.5 -61.5 v-30.5q-2 -2 -53.5 -8t-127 -13.5t-165 -14.5t-165 -13t-127 -9t-53.5 -3v-46.5v-114v-155.5v-171v-160.5v-125.5q68 -2 153 -1t173 4.5t173 6.5t153.5 6t111.5 3t49 -4q12 -10 17.5 -40t6.5 -62.5t-3 -62.5t-12 -38q-2 0 -4 -1t-5 -1h-2q-98 0 -198.5 1t-200.5 -3 q-16 0 -68.5 -1t-123 -1h-147.5t-141.5 1t-104.5 3t-35 4zM61 39q141 4 292 0t292 0q98 4 196.5 3t196.5 -1q-4 41 -9 65.5t-7 65.5q-201 -6 -403.5 -12t-403.5 -10h-2q-23 0 -23 24l11 830q76 2 164 8t178 12t178 12t164 11q-4 23 -7.5 56.5t-7.5 53.5q-18 -2 -75.5 -5 t-133 -5t-158.5 -4t-152.5 -3t-115 -1t-45.5 2v146v180.5t1.5 167t5.5 104.5q0 -2 41 -2t107.5 1t150.5 3t172 5t174 5t153 6l-14 117q-225 -2 -456.5 0t-454.5 0q0 -125 -1 -274.5t-1 -312.5t-2.5 -331t-2.5 -330.5t-1 -312t-1 -274.5zM203 2105q2 47 6 94.5t6 94.5 q2 4 35 6t71.5 0t71.5 -9t37 -20q4 -68 5 -106.5t-1 -59t-7 -26.5t-13 -6q-45 -4 -93.5 0t-93.5 2q-8 2 -16 11t-8 19zM236 2109q35 4 79.5 0t79.5 0l-6 138q-33 2 -67.5 5t-67.5 5q-2 -35 -9 -74t-9 -74zM674 2105q2 47 6 94.5t6 94.5q2 4 35 6t71.5 0t71.5 -9t37 -20 q4 -68 5 -106.5t-1 -59t-7 -26.5t-13 -6q-45 -4 -93.5 0t-93.5 2q-8 2 -16 11t-8 19zM707 2109q35 4 79.5 0t79.5 0l-6 138q-33 2 -67.5 5t-67.5 5q-2 -35 -9 -74t-9 -74z" />
<glyph unicode="&#xcc;" horiz-adv-x="325" d="M-145 2351q-10 18 13 41t57 44.5t67 39t41 21.5q6 4 18 -2.5t51 -43t117 -116.5t215 -226q4 -12 -14.5 -34.5t-44 -44t-50 -37t-32.5 -11.5q-10 12 -43 41t-79 66t-97 78t-97.5 77.5t-80 65.5t-41.5 41zM-92 2365q6 -8 35.5 -34.5t71.5 -61.5t89.5 -75t88 -74.5 t71.5 -62.5t37 -36q27 20 46.5 38t45.5 38l-356 363q-29 -16 -64.5 -47t-64.5 -48zM20 12v4v1870q4 16 35 22.5t68 8.5t69.5 0t43.5 -2q2 -92 -0.5 -248t-4.5 -341t-3 -386t2 -384t11.5 -333.5t24.5 -234.5q-96 4 -141 4t-64.5 1t-23.5 4t-17 15zM61 29h158 q-18 98 -25.5 242.5t-9.5 314.5t1 352t6.5 354t5.5 323.5t0 258.5q-41 -2 -68 -5t-68 -3v-1837z" />
<glyph unicode="&#xcd;" horiz-adv-x="325" d="M-119 2109q137 145 215 225.5t117 117t51.5 43t18.5 2.5q8 -4 40.5 -21.5t66.5 -39t57.5 -44t13.5 -41.5q-8 -12 -42 -41t-80 -65.5t-97.5 -77.5t-97.5 -78t-79.5 -65.5t-41.5 -41.5q-8 -4 -33 11.5t-50.5 37t-44 44t-14.5 34.5zM-78 2097q27 -20 46 -38t46 -38 q6 8 37 36t72 62.5t88 74.5t89 75t71.5 61.5t36.5 34.5q-29 16 -65 47t-64 48zM20 12v4v1870q4 16 35 22.5t68 8.5t69.5 0t43.5 -2q2 -92 -0.5 -248t-4.5 -341t-3 -386t2 -384t11.5 -333.5t24.5 -234.5q-96 4 -141 4t-64.5 1t-23.5 4t-17 15zM61 29h158q-18 98 -25.5 242.5 t-9.5 314.5t1 352t6.5 354t5.5 323.5t0 258.5q-41 -2 -68 -5t-68 -3v-1837z" />
<glyph unicode="&#xce;" horiz-adv-x="325" d="M-303 2050q-16 12 4 36.5t66.5 77t114 139.5t147.5 222q4 0 30.5 -1t58.5 -3t59.5 -8t37.5 -14l23 -30q22 -30 56 -75t73 -96t72.5 -95t54.5 -74l22 -30q6 -12 -7 -30.5t-33.5 -37t-44 -34t-38.5 -19.5q-10 -4 -30.5 16.5t-46 52.5t-54.5 72t-54.5 75.5t-46 64.5 t-30.5 37q2 -2 -17.5 -27.5t-49 -63.5t-66.5 -82t-69.5 -82t-55.5 -63.5t-25 -25.5q-29 29 -68.5 57.5t-82.5 40.5zM-266 2083q29 -10 62.5 -35t56.5 -45q4 4 25.5 31.5t51 66.5t63.5 82t63.5 80t50 61.5t24.5 24.5q8 0 27.5 -23.5t45 -58.5t54.5 -77t55.5 -78.5t48 -62.5 t31.5 -30q23 8 47.5 24.5t40.5 47.5q-2 0 -24.5 27.5t-55 70.5t-71.5 93.5t-72 93.5t-54 72l-20 28q2 2 -4 2l2 -2q-4 -2 -25.5 -1t-46 1h-45t-22.5 -4q-104 -147 -164.5 -226t-92.5 -115t-41 -41t-11 -7zM20 12v4v1870q4 16 35 22.5t68 8.5t69.5 0t43.5 -2q2 -92 -0.5 -248 t-4.5 -341t-3 -386t2 -384t11.5 -333.5t24.5 -234.5q-96 4 -141 4t-64.5 1t-23.5 4t-17 15zM61 29h158q-18 98 -25.5 242.5t-9.5 314.5t1 352t6.5 354t5.5 323.5t0 258.5q-41 -2 -68 -5t-68 -3v-1837z" />
<glyph unicode="&#xcf;" horiz-adv-x="325" d="M-137 2105q2 47 6 94.5t6 94.5q2 4 35 6t71.5 0t71.5 -9t37 -20q4 -68 5 -106.5t-1 -59t-7 -26.5t-13 -6q-45 -4 -93.5 0t-93.5 2q-8 2 -16 11t-8 19zM-104 2109q35 4 79.5 0t79.5 0l-6 138q-33 2 -67.5 5t-67.5 5q-2 -35 -9 -74t-9 -74zM20 12v4v1870q4 16 35 22.5 t68 8.5t69.5 0t43.5 -2q2 -92 -0.5 -248t-4.5 -341t-3 -386t2 -384t11.5 -333.5t24.5 -234.5q-96 4 -141 4t-64.5 1t-23.5 4t-17 15zM61 29h158q-18 98 -25.5 242.5t-9.5 314.5t1 352t6.5 354t5.5 323.5t0 258.5q-41 -2 -68 -5t-68 -3v-1837zM190 2105q2 47 6.5 94.5 t6.5 94.5q2 4 34.5 6t71.5 0t72 -9t37 -20q4 -68 5 -106.5t-1 -59t-7 -26.5t-14 -6q-45 -4 -93 0t-93 2q-8 2 -16.5 11t-8.5 19zM223 2109q35 4 80 0t80 0l-6 138q-33 2 -67.5 5t-67.5 5q-2 -35 -9.5 -74t-9.5 -74z" />
<glyph unicode="&#xd0;" horiz-adv-x="1269" d="M-244 999q29 -2 75 -3t90 0t76 2l32 1q2 233 4 463t6 447q57 2 165.5 -3t237.5 -31t266.5 -81t252 -155.5t192.5 -252t90 -368.5q12 -207 -41 -371t-149.5 -286.5t-222 -204.5t-261 -127t-268.5 -52.5t-240 19.5l-10 6q-10 -8 -18 -3t-8 21v364.5t2 393.5h-111.5 t-132.5 2q-10 4 -16.5 7.5t-6.5 17.5zM-205 821q72 -2 132 -2t136 2q-2 -215 -3 -406.5t-1 -377.5h2q100 -33 229.5 -27t261.5 51t256 126t217 200t143.5 273.5t35.5 345.5q0 164 -48 291.5t-130 224t-193.5 164t-237.5 108.5t-262 59.5t-267 16.5v-442.5t-3 -473.5 q-63 2 -112 3t-84 4q-39 2 -70 2zM176 172q2 4 3 58.5t2 143.5t1 205.5v245.5q51 -2 98.5 -3t95.5 -2t100 -2t114 -1q0 41 3 67.5t7 67.5q-72 -2 -180.5 0t-237.5 6q0 147 -1 284.5t-1 244t1 171t5 64.5q88 -4 185.5 -24.5t191.5 -60.5t180 -101t153 -144t107.5 -188.5 t43.5 -236.5q2 -111 -36 -219.5t-103.5 -205t-152.5 -174t-184.5 -129t-199 -70.5t-195.5 3zM211 201q84 -10 175 11t180 68.5t170 118t141.5 158.5t95.5 190.5t35 215.5q-2 172 -73 301t-183.5 218t-254 138t-282.5 61q-2 -127 -1 -311t1 -379q119 -2 232.5 -3t193.5 3 q0 -57 -5 -97t-5 -95q0 -18 -21 -23q-131 2 -221 2h-174q0 -119 1 -223t0 -183t-2 -125t-3 -46z" />
<glyph unicode="&#xd1;" horiz-adv-x="1325" d="M4 3q-4 11 2 22v81q0 80 -1 212.5t-1 301v345v345.5t1 302t1 214v81q4 4 46 6t94.5 2t99.5 -1t59 -3q0 2 31 -60.5t80 -167t111.5 -237.5t129 -272.5t130 -274.5t113.5 -240.5t83 -172t35 -70.5q0 102 -1 230t-1 266.5t-1 279.5t-1 271v239.5v185.5q6 6 10 13.5t29 11.5 l202 -4q-2 0 -3 -60.5t-3 -165t-3 -242.5t-2 -294t-1 -318.5v-316.5v-289t2 -235h-63.5t-85.5 1t-84.5 2t-57.5 1q-8 16 -36.5 81.5t-73.5 164t-101.5 220.5t-117 252t-122 260t-115.5 244.5t-99 204.5t-74 140q-4 -2 -3 -71t4 -178.5t8 -250.5t11.5 -286.5t11.5 -285 t9 -249t7 -175t1 -63.5l-8 -4q-2 -2 -31.5 -2t-69.5 1t-79 1h-58q-10 -4 -14 7zM43 37q41 2 78 4q31 0 59.5 -1t40.5 -5q2 0 0 67.5t-5 178t-7 251t-8 287t-9.5 286.5t-8.5 248.5t-5 175t0 64.5q51 18 66 -2q29 -47 72.5 -134t98 -197.5t115 -238.5t120 -257t114.5 -251 t99 -221t75 -168.5t39 -92.5q14 0 46 -1t66.5 -1h67.5h49q2 80 2 201.5t1 267t1 303v309.5t-1 290t-1 241.5v164.5v60l-153 6v-189.5t-1 -248t-1 -280.5v-287.5v-270.5v-229q-10 -18 -18.5 -24.5t-17.5 1.5t-23.5 31.5t-37.5 62.5q-186 399 -333 715q-63 133 -124 262 t-108 229.5t-75 163.5l-29 62h-41t-81 1t-81 2t-39 3l2 2q-6 0 -4 -2l1 -80q1 -80 1 -209v-295v-338v-336.5v-293.5t-1 -208zM141 2228q0 12 6 19q8 31 46 58.5t84.5 49t92.5 34.5t72 13q27 0 60 -13t51 -24q66 -31 105.5 -61.5t71.5 -45.5t65.5 -8t87.5 48q18 16 43.5 41.5 t34.5 50.5q4 10 10 12q4 8 14 10.5t21 -6.5q6 -14 26.5 -32.5t42 -39t37.5 -40t12 -35.5t-27.5 -49t-97.5 -96q-88 -78 -155.5 -93.5t-128 4t-119.5 60.5t-131 80q-16 8 -45 3t-57.5 -19.5t-53 -33t-33.5 -34.5q-14 -10 -26 8q-16 10 -33.5 27.5t-33 37t-27 40t-15.5 34.5z M184 2228q10 -25 33 -47t43 -45q8 8 29.5 23.5t48.5 28t54.5 19.5t49.5 1q55 -14 98.5 -40t80 -49.5t72.5 -42t77 -20.5t90 17.5t115 72.5q8 8 24.5 22.5t32 32t28.5 34t17 26.5l-86 96q-14 -27 -37.5 -51.5t-46.5 -40.5q-74 -55 -119 -58t-85.5 20.5t-94 62.5t-143.5 69 q-18 6 -62.5 -5t-91.5 -30.5t-84 -45.5t-41 -46q-2 -2 -2 -4z" />
<glyph unicode="&#xd2;" horiz-adv-x="1779" d="M9 733q26 -160 89.5 -282.5t157.5 -210.5t201.5 -144.5t221.5 -84t214 -31.5q137 -4 273.5 39.5t250 145t197.5 263.5t119 395q31 203 9 360.5t-81 277.5t-147.5 203t-190.5 136t-212 79t-210 30q-139 4 -281.5 -36t-265.5 -135.5t-214 -252t-126 -389.5 q-31 -203 -5 -363zM41 1036q16 168 68.5 297t126 224.5t162.5 157t179.5 97t175.5 47t150 5.5q166 -2 321.5 -60.5t271.5 -178.5t175.5 -304t34.5 -438t-111 -419t-201.5 -262.5t-248.5 -137t-254 -39.5q-152 6 -312.5 69.5t-288.5 188.5t-201 312t-48 441zM145.5 859 q10.5 -116 50.5 -216t106.5 -187t156.5 -163q29 -31 91 -58.5t131 -48t128 -33t82 -12.5q119 0 233.5 52.5t210 146.5t165 223t97.5 283q27 211 -22 375.5t-149.5 278.5t-237.5 174.5t-289 64.5q-121 0 -239.5 -41t-220 -121t-176.5 -197.5t-103 -271.5q-25 -133 -14.5 -249 zM187.5 853q-11.5 151 34.5 300.5t140.5 269t231.5 197.5t309 84q203 -6 369 -121q96 -70 162.5 -166t100.5 -207.5t36 -232.5t-26.5 -235.5t-89 -218t-150.5 -181.5q-96 -84 -201.5 -120t-214.5 -32q-100 4 -210 38t-194 94q-143 100 -214.5 240t-83 291zM606 2351 q-10 18 13.5 41t57.5 44.5t66.5 39t40.5 21.5q6 4 18.5 -2.5t51.5 -43t117 -116.5t215 -226q4 -12 -14.5 -34.5t-44 -44t-50 -37t-33.5 -11.5q-10 12 -42.5 41t-78.5 66t-97.5 78t-97.5 77.5t-80 65.5t-42 41zM659 2365q6 -8 36 -34.5t72 -61.5t89 -75t88 -74.5t71 -62.5 t38 -36q27 20 46 38t46 38l-357 363q-29 -16 -64.5 -47t-64.5 -48z" />
<glyph unicode="&#xd3;" horiz-adv-x="1779" d="M9.5 733q-25.5 160 4.5 363q35 233 126 389.5t214 252t265.5 135.5t281.5 36q100 -4 210 -30t212 -79t190.5 -136t147.5 -203t80.5 -277.5t-8.5 -360.5q-35 -233 -119 -395t-197.5 -263.5t-250 -145t-273.5 -39.5q-100 4 -214 31.5t-221.5 84t-201.5 144.5t-157.5 210.5 t-89 282.5zM41 1036q-25 -254 48 -441t201 -312t288.5 -188.5t312.5 -69.5q121 0 254 39.5t248.5 137t201.5 262.5t111 419t-34.5 438t-175.5 304t-271.5 178.5t-321.5 60.5q-66 6 -150.5 -5.5t-175 -47t-179.5 -97t-162.5 -157t-126 -224.5t-68.5 -297zM145.5 859 q-10.5 116 14.5 249q29 154 103.5 271.5t176 197.5t220 121t239.5 41q152 -4 289 -64.5t237.5 -174.5t149.5 -278.5t22 -375.5q-29 -154 -98 -283t-164.5 -223t-210 -146.5t-233.5 -52.5q-23 0 -82 12.5t-128 33t-131.5 48t-90.5 58.5q-90 76 -156.5 163t-106.5 187 t-50.5 216zM187.5 853q11.5 -151 83 -291t214.5 -240q84 -59 194 -93.5t210 -38.5q109 -4 214 32t202 120q90 78 150.5 181.5t89 218t26.5 235.5t-36 232.5t-100.5 207.5t-162.5 166q-166 115 -369 121q-172 -6 -309 -84t-231.5 -197.5t-140.5 -269t-34.5 -300.5zM662 2109 q137 145 214.5 225.5t116.5 117t51.5 43t18.5 2.5q8 -4 41 -21.5t66.5 -39t57 -44t13.5 -41.5q-10 -12 -43 -41t-79 -65.5t-97 -77.5t-97 -78t-80 -65.5t-42 -41.5q-8 -4 -33 11.5t-50.5 37t-44 44t-13.5 34.5zM702 2097q27 -20 46.5 -38t46.5 -38q6 8 36.5 36t71.5 62.5 t88 74.5t89 75t72 61.5t36 34.5q-29 16 -65 47t-64 48z" />
<glyph unicode="&#xd4;" horiz-adv-x="1779" d="M9 733q26 -160 89.5 -282.5t157.5 -210.5t201.5 -144.5t221.5 -84t214 -31.5q137 -4 273.5 39.5t250 145t197.5 263.5t119 395q31 203 9 360.5t-81 277.5t-147.5 203t-190.5 136t-212 79t-210 30q-139 4 -281.5 -36t-265.5 -135.5t-214 -252t-126 -389.5 q-31 -203 -5 -363zM41 1036q16 168 68.5 297t126 224.5t162.5 157t179.5 97t175.5 47t150 5.5q166 -2 321.5 -60.5t271.5 -178.5t175.5 -304t34.5 -438t-111 -419t-201.5 -262.5t-248.5 -137t-254 -39.5q-152 6 -312.5 69.5t-288.5 188.5t-201 312t-48 441zM145.5 859 q10.5 -116 50.5 -216t106.5 -187t156.5 -163q29 -31 91 -58.5t131 -48t128 -33t82 -12.5q119 0 233.5 52.5t210 146.5t165 223t97.5 283q27 211 -22 375.5t-149.5 278.5t-237.5 174.5t-289 64.5q-121 0 -239.5 -41t-220 -121t-176.5 -197.5t-103 -271.5q-25 -133 -14.5 -249 zM187.5 853q-11.5 151 34.5 300.5t140.5 269t231.5 197.5t309 84q203 -6 369 -121q96 -70 162.5 -166t100.5 -207.5t36 -232.5t-26.5 -235.5t-89 -218t-150.5 -181.5q-96 -84 -201.5 -120t-214.5 -32q-100 4 -210 38t-194 94q-143 100 -214.5 240t-83 291zM463 2050 q-16 12 4 36.5t66.5 77t114 139.5t147.5 222q4 0 30.5 -1t58 -3t59.5 -8t38 -14l23 -30q22 -30 56 -75t72.5 -96t72.5 -95t55 -74l22 -30q6 -12 -7 -30.5t-33.5 -37t-44 -34t-38.5 -19.5q-10 -4 -30.5 16.5t-46 52.5t-54.5 72t-54.5 75.5t-46 64.5t-30.5 37 q2 -2 -17.5 -27.5t-49 -63.5t-66.5 -82t-69.5 -82t-55.5 -63.5t-25 -25.5q-29 29 -68.5 57.5t-82.5 40.5zM500 2083q29 -10 62.5 -35t55.5 -45q4 4 26 31.5t51.5 66.5t63.5 82t63.5 80t50 61.5t24.5 24.5q8 0 27.5 -23.5t45 -58.5t54.5 -77t55.5 -78.5t48 -62.5t31.5 -30 q23 8 47.5 24.5t40.5 47.5q-2 0 -24.5 27.5t-55 70.5t-71.5 93.5t-72 93.5t-54.5 71.5t-19.5 28.5q2 2 -4 2l2 -2q-4 -2 -25.5 -1t-46 1h-45t-22.5 -4q-104 -147 -164.5 -226t-92.5 -115t-41 -41t-11 -7z" />
<glyph unicode="&#xd5;" horiz-adv-x="1779" d="M9.5 733q-25.5 160 4.5 363q35 233 126 389.5t214 252t265.5 135.5t281.5 36q100 -4 210 -30t212 -79t190.5 -136t147.5 -203t80.5 -277.5t-8.5 -360.5q-35 -233 -119 -395t-197.5 -263.5t-250 -145t-273.5 -39.5q-100 4 -214 31.5t-221.5 84t-201.5 144.5t-157.5 210.5 t-89 282.5zM41 1036q-25 -254 48 -441t201 -312t288.5 -188.5t312.5 -69.5q121 0 254 39.5t248.5 137t201.5 262.5t111 419t-34.5 438t-175.5 304t-271.5 178.5t-321.5 60.5q-66 6 -150.5 -5.5t-175 -47t-179.5 -97t-162.5 -157t-126 -224.5t-68.5 -297zM145.5 859 q-10.5 116 14.5 249q29 154 103.5 271.5t176 197.5t220 121t239.5 41q152 -4 289 -64.5t237.5 -174.5t149.5 -278.5t22 -375.5q-29 -154 -98 -283t-164.5 -223t-210 -146.5t-233.5 -52.5q-23 0 -82 12.5t-128 33t-131.5 48t-90.5 58.5q-90 76 -156.5 163t-106.5 187 t-50.5 216zM187.5 853q11.5 -151 83 -291t214.5 -240q84 -59 194 -93.5t210 -38.5q109 -4 214 32t202 120q90 78 150.5 181.5t89 218t26.5 235.5t-36 232.5t-100.5 207.5t-162.5 166q-166 115 -369 121q-172 -6 -309 -84t-231.5 -197.5t-140.5 -269t-34.5 -300.5zM389 2228 q0 12 6 19q8 31 46 58.5t84 49t92.5 34.5t72.5 13q27 0 59.5 -13t51.5 -24q66 -31 105.5 -61.5t71.5 -45.5t65.5 -8t86.5 48q18 16 44 41.5t34 50.5q4 10 11 12q4 8 14 10.5t20 -6.5q6 -14 26.5 -32.5t42 -39t38 -40t12.5 -35.5t-27.5 -49t-97.5 -96q-88 -78 -155.5 -93.5 t-128 4t-120 60.5t-130.5 80q-16 8 -45 3t-57.5 -19.5t-53.5 -33t-33 -34.5q-14 -10 -26 8q-16 10 -34 27.5t-33 37t-26.5 40t-15.5 34.5zM432 2228q10 -25 32.5 -47t43.5 -45q8 8 29.5 23.5t48 28t54.5 19.5t50 1q55 -14 98 -40t80 -49.5t73 -42t77 -20.5t90 17.5t115 72.5 q8 8 24.5 22.5t31.5 32t28.5 34t17.5 26.5l-86 96q-14 -27 -37.5 -51.5t-46.5 -40.5q-74 -55 -119 -58t-86 20.5t-94 62.5t-143 69q-18 6 -62.5 -5t-91.5 -30.5t-84 -45.5t-41 -46q-2 -2 -2 -4z" />
<glyph unicode="&#xd6;" horiz-adv-x="1779" d="M9.5 733q-25.5 160 4.5 363q35 233 126 389.5t214 252t265.5 135.5t281.5 36q100 -4 210 -30t212 -79t190.5 -136t147.5 -203t80.5 -277.5t-8.5 -360.5q-35 -233 -119 -395t-197.5 -263.5t-250 -145t-273.5 -39.5q-100 4 -214 31.5t-221.5 84t-201.5 144.5t-157.5 210.5 t-89 282.5zM41 1036q-25 -254 48 -441t201 -312t288.5 -188.5t312.5 -69.5q121 0 254 39.5t248.5 137t201.5 262.5t111 419t-34.5 438t-175.5 304t-271.5 178.5t-321.5 60.5q-66 6 -150.5 -5.5t-175 -47t-179.5 -97t-162.5 -157t-126 -224.5t-68.5 -297zM145.5 859 q-10.5 116 14.5 249q29 154 103.5 271.5t176 197.5t220 121t239.5 41q152 -4 289 -64.5t237.5 -174.5t149.5 -278.5t22 -375.5q-29 -154 -98 -283t-164.5 -223t-210 -146.5t-233.5 -52.5q-23 0 -82 12.5t-128 33t-131.5 48t-90.5 58.5q-90 76 -156.5 163t-106.5 187 t-50.5 216zM187.5 853q11.5 -151 83 -291t214.5 -240q84 -59 194 -93.5t210 -38.5q109 -4 214 32t202 120q90 78 150.5 181.5t89 218t26.5 235.5t-36 232.5t-100.5 207.5t-162.5 166q-166 115 -369 121q-172 -6 -309 -84t-231.5 -197.5t-140.5 -269t-34.5 -300.5zM555 2105 q2 47 6 94.5t6 94.5q2 4 35 6t72 0t71.5 -9t36.5 -20q4 -68 5 -106.5t-1 -59t-7 -26.5t-13 -6q-45 -4 -93 0t-93 2q-8 2 -16.5 11t-8.5 19zM588 2109q35 4 80 0t80 0l-7 138q-33 2 -67.5 5t-67.5 5q-2 -35 -9 -74t-9 -74zM1026 2105q2 47 6 94.5t6 94.5q2 4 35 6t72 0 t71.5 -9t36.5 -20q4 -68 5.5 -106.5t-1 -59t-7.5 -26.5t-13 -6q-45 -4 -93 0t-93 2q-8 2 -16.5 11t-8.5 19zM1059 2109q35 4 80 0t80 0l-7 138q-33 2 -67.5 5t-67.5 5q-2 -35 -9 -74t-9 -74z" />
<glyph unicode="&#xd7;" horiz-adv-x="958" d="M18 471q2 2 29 27.5t67 63.5t88 82t95 85q-4 8 -26.5 30.5l-52.5 52.5t-64.5 62.5t-64.5 61.5t-48 49.5t-18 26.5t-1.5 8t13 16.5t51.5 46t109 99.5q23 -33 66.5 -83t86.5 -96.5t78 -79t39 -28.5q0 4 30.5 33.5t75.5 72.5t96.5 92.5t92.5 90.5q0 2 22.5 -20.5t48 -50.5 t48 -50.5t22.5 -20.5q0 -2 -23.5 -25.5t-56.5 -57t-70.5 -72.5t-68.5 -71t-47.5 -51.5t-7.5 -12.5l11 -14q11 -13 30.5 -33.5t44 -46t51.5 -52.5q59 -63 137 -141l-19 -21q-18 -20 -42.5 -44.5l-47 -47t-30.5 -28.5q-14 -4 -23.5 4t-9.5 18q-57 49 -86 72.5t-51.5 45 t-48 50.5t-74.5 88q-25 -31 -41 -47l-29.5 -29.5t-31 -29t-43.5 -43.5q-14 -16 -33 -37t-39.5 -41.5t-39.5 -38t-34 -27.5q-14 8 -40.5 34t-53.5 54.5t-46 50.5zM76 469q20 -14 50 -50t54 -59q25 35 55.5 64t59.5 57q29 31 49.5 48.5t37.5 33t36.5 33.5t46.5 49 q4 4 26.5 -18.5l60.5 -60.5t89 -88t115 -101q14 12 40.5 43t55.5 47l-29.5 29.5t-55.5 53.5t-67.5 63.5t-65.5 61t-48.5 47t-16.5 21.5q-2 2 17.5 23.5t48.5 54.5t62.5 71t64.5 70.5t53.5 56t28.5 30.5q-29 18 -44.5 34.5t-35.5 49.5q-41 -41 -92 -91.5t-97.5 -94.5 t-79 -75.5t-34.5 -33.5q0 -2 -10.5 9t-29 29.5l-43 43t-50.5 51.5l-140 139l-9 -9l-23.5 -23.5t-34 -31t-39.5 -26.5q0 -2 21.5 -23.5t52 -52.5t66.5 -66.5t65.5 -66.5t49 -51.5t17.5 -20.5q2 -4 -18.5 -23.5t-51 -49t-67.5 -62.5t-68.5 -62.5t-53 -50t-19.5 -22.5z" />
<glyph unicode="&#xd8;" horiz-adv-x="1779" d="M3 792.5q-13 137.5 11 303.5q35 233 126 389.5t214 252t265.5 135.5t281.5 36q74 -4 151.5 -17.5t155.5 -42.5q23 41 41.5 77t32.5 63q10 10 38 4t59.5 -19.5t61 -31t46.5 -27.5q-14 -27 -35.5 -68t-50.5 -94q88 -59 160.5 -143t120 -198t62.5 -260t-11 -329 q-35 -233 -119 -395t-197.5 -263.5t-250 -145.5t-273.5 -39q-94 4 -195.5 26.5t-201.5 69.5q-8 -8 -18.5 -34t-22 -56.5t-21.5 -62.5t-16 -52l-205 119q-6 0 -6 4t10 24.5t32.5 61.5t59.5 113q-80 63 -145.5 150t-106.5 199.5t-54 250zM41 1036q-14 -139 3 -258t60 -220 t110 -186t153 -157q-4 -10 -11.5 -21.5t-19.5 -33t-32.5 -58t-49.5 -100.5l141 -72q0 12 12.5 46t25.5 69t25.5 64.5t12.5 33.5h2q39 -29 90 -50t107.5 -35.5t114 -22.5t106.5 -10q121 0 254 39.5t248.5 137t201.5 262.5t111 419q18 166 -4.5 303t-74.5 244.5t-124.5 186.5 t-152.5 126l84 153q-37 16 -62.5 26t-62.5 30q0 -6 -12.5 -30t-27 -50.5t-26.5 -48t-14 -23.5q-98 35 -175 48.5t-151 15.5q-66 6 -150.5 -5.5t-175 -47t-179.5 -97t-162.5 -157t-126 -224.5t-68.5 -297zM160 1108q29 154 103.5 271.5t176 197.5t220 121t239.5 41 q68 -4 143.5 -17.5t122.5 -38.5q-72 -137 -162 -305t-187 -347t-195.5 -361.5t-186.5 -345.5q-168 135 -244.5 332.5t-29.5 451.5zM186 908.5q0 -144.5 54.5 -283t171.5 -244.5q76 143 167 310t185 338t183 335t163 301q-96 35 -207 39q-164 -8 -296 -79t-226 -181.5 t-144.5 -250.5t-50.5 -284.5zM528 246q33 66 86.5 166t120 221t141 255t147.5 266t140.5 253t120.5 215q53 -25 119.5 -96.5t119 -175t77 -233.5t-2.5 -271q-29 -154 -98 -283t-164.5 -223t-210 -146.5t-233.5 -52.5q-16 0 -56 5.5t-91.5 17.5t-108 32.5t-107.5 49.5z M586 264q72 -35 151.5 -53.5t151.5 -20.5q109 -4 214 32t202 120q88 76 147 176t89 213t30 230.5t-31 227t-92.5 207t-151.5 169.5q-80 -145 -177 -320.5t-194.5 -352.5t-186.5 -341t-152 -287z" />
<glyph unicode="&#xd9;" horiz-adv-x="1357" d="M2 1182.5q0 -160.5 2 -309t4 -268.5t6 -179q8 -160 92 -263.5t213.5 -151.5t286 -41t307.5 67q121 47 192 130t107.5 180t49 201.5t16.5 194.5q2 33 4 122t4 207t4 249t3 249t3 207t2 121q-6 14 -34.5 18.5t-63.5 3.5t-68.5 -4t-48.5 -3q2 -104 3 -236.5t-2 -276 t-8 -288.5t-14 -276t-24.5 -239t-36.5 -173q-10 -33 -38.5 -76t-77.5 -81t-122 -60.5t-171 -11.5q-63 6 -112.5 16t-88.5 28.5t-67.5 50.5t-49.5 81q-20 47 -31.5 165.5t-18.5 272.5t-9 327t-2 327.5v274.5t-2 169l-2 2l-8 4h-2q-41 0 -86 -2t-107 -2q-2 -49 -3 -162 t-1 -258.5v-306zM43 1446q0 141 1 253.5t3 168.5q33 0 64.5 1t64.5 3q-2 -61 -4 -184t-4 -278t0 -326t10 -324.5t22.5 -274t39.5 -178.5q12 -31 54 -58.5t93 -48t104.5 -32.5t88.5 -12q92 0 159.5 11t117.5 34.5t87 58.5t72 84q27 39 46 140.5t31.5 238.5t19.5 297t9 316.5 t0 297t-6 238.5q35 0 71 2t70 2q0 -31 -2 -118t-3 -202.5t-3 -244.5t-4 -244t-4 -201.5t-4 -117.5q-10 -166 -34.5 -280t-67.5 -190.5t-108.5 -124t-154.5 -79.5q-137 -53 -278 -61.5t-257 33.5t-193.5 136t-88.5 246q-4 55 -6 168t-3 255t-2 298t-1 297zM326 2351 q-10 18 13 41t57 44.5t67 39t41 21.5q6 4 18.5 -2.5t51 -43t116.5 -116.5t215 -226q4 -12 -14.5 -34.5t-44 -44t-50 -37t-32.5 -11.5q-10 12 -43 41t-79 66t-97 78t-97.5 77.5t-80 65.5t-41.5 41zM379 2365q6 -8 35.5 -34.5t71.5 -61.5t89.5 -75t88.5 -74.5t70.5 -62.5 t37.5 -36q27 20 46.5 38t45.5 38l-356 363q-29 -16 -64.5 -47t-64.5 -48z" />
<glyph unicode="&#xda;" horiz-adv-x="1357" d="M2 1182.5v306t1 258.5t3 162q61 0 106.5 2t86.5 2h2l8 -4l2 -2q2 -49 2 -169v-274.5t2 -327.5t9 -327t18.5 -272.5t31.5 -165.5q20 -49 49 -81t68 -50.5t88 -28.5t113 -16q98 -10 171 12t122 60t77.5 81t38.5 76q20 66 36 173.5t25 238.5t14 276t8 288.5t2 275.5t-3 237 q14 0 48 3t69 4t63.5 -3t34.5 -19q0 -33 -2 -121.5t-3 -206.5t-3 -249t-4 -249t-4 -207t-4 -122q-4 -90 -16.5 -194.5t-49 -201.5t-107.5 -180t-192 -130q-152 -59 -308 -66.5t-285.5 40.5t-213 151.5t-92.5 263.5q-4 59 -6 179t-4 268.5t-2 309zM43 1446q0 -141 1 -297 t2 -298t3 -255t6 -168q10 -152 88 -246t194 -136t257 -34t278 62q88 33 154 80t109 123.5t67.5 190.5t34.5 280q2 31 4 117.5t4 201.5t4 244t3 244.5t3 202.5t2 118q-35 0 -70.5 -2t-70.5 -2q4 -98 6 -238.5t0 -297t-9 -316.5t-19.5 -297t-32 -238.5t-45.5 -140.5 q-35 -49 -72 -84t-87 -58.5t-117.5 -34.5t-159.5 -11q-35 0 -88.5 12t-104.5 32.5t-93 48t-54 58.5q-25 57 -39.5 178t-22.5 274.5t-10 324.5t0 326t4 277.5t4 184.5q-33 -2 -64.5 -3t-64.5 -1q-2 -55 -3 -168t-1 -254zM379 2109q137 145 215 225.5t117 117t51 43t18 2.5 q8 -4 41 -21.5t67 -39t57.5 -44t12.5 -41.5q-8 -12 -41.5 -41t-79.5 -65.5t-97.5 -77.5t-97.5 -78t-80 -65.5t-42 -41.5q-8 -4 -32.5 11.5t-50 37t-44 44t-14.5 34.5zM420 2097q27 -20 46 -38t46 -38q6 8 37 36t72 62.5t88 74.5t89 75t71.5 61.5t35.5 34.5q-29 16 -64.5 47 t-64.5 48z" />
<glyph unicode="&#xdb;" horiz-adv-x="1357" d="M2 1182.5q0 -160.5 2 -309t4 -268.5t6 -179q8 -160 92 -263.5t213.5 -151.5t286 -41t307.5 67q121 47 192 130t107.5 180t49 201.5t16.5 194.5q2 33 4 122t4 207t4 249t3 249t3 207t2 121q-6 14 -34.5 18.5t-63.5 3.5t-68.5 -4t-48.5 -3q2 -104 3 -236.5t-2 -276 t-8 -288.5t-14 -276t-24.5 -239t-36.5 -173q-10 -33 -38.5 -76t-77.5 -81t-122 -60.5t-171 -11.5q-63 6 -112.5 16t-88.5 28.5t-67.5 50.5t-49.5 81q-20 47 -31.5 165.5t-18.5 272.5t-9 327t-2 327.5v274.5t-2 169l-2 2l-8 4h-2q-41 0 -86 -2t-107 -2q-2 -49 -3 -162 t-1 -258.5v-306zM43 1446q0 141 1 253.5t3 168.5q33 0 64.5 1t64.5 3q-2 -61 -4 -184t-4 -278t0 -326t10 -324.5t22.5 -274t39.5 -178.5q12 -31 54 -58.5t93 -48t104.5 -32.5t88.5 -12q92 0 159.5 11t117.5 34.5t87 58.5t72 84q27 39 46 140.5t31.5 238.5t19.5 297t9 316.5 t0 297t-6 238.5q35 0 71 2t70 2q0 -31 -2 -118t-3 -202.5t-3 -244.5t-4 -244t-4 -201.5t-4 -117.5q-10 -166 -34.5 -280t-67.5 -190.5t-108.5 -124t-154.5 -79.5q-137 -53 -278 -61.5t-257 33.5t-193.5 136t-88.5 246q-4 55 -6 168t-3 255t-2 298t-1 297zM233 2050 q-16 12 4.5 36.5t66.5 77t113.5 139.5t147.5 222q4 0 31 -1t58.5 -3t59 -8t38.5 -14l22 -30q23 -30 56.5 -75t72.5 -96t73 -95t56 -74l21 -30q6 -12 -7.5 -30.5t-34 -37t-44 -34t-37.5 -19.5q-10 -4 -30.5 16.5t-46.5 52.5t-54.5 72t-54 75.5t-46 64.5t-30.5 37 q2 -2 -17.5 -27.5t-49.5 -63.5t-66.5 -82t-69.5 -82t-55.5 -63.5t-24.5 -25.5q-29 29 -69 57.5t-83 40.5zM270 2083q29 -10 63 -35t56 -45q4 4 25.5 31.5t51.5 66.5t63.5 82t63.5 80t50.5 61.5t24.5 24.5q8 0 27.5 -23.5t45 -58.5t54 -77t55.5 -78.5t48.5 -62.5t31.5 -30 q23 8 47.5 24.5t40.5 47.5q-2 0 -24.5 27.5t-55.5 70.5t-72 93.5t-71.5 93.5t-54 71.5t-19.5 28.5q2 2 -4 2l2 -2q-4 -2 -25.5 -1t-46 1h-45t-22.5 -4q-104 -147 -165 -226t-92.5 -115t-41 -41t-11.5 -7z" />
<glyph unicode="&#xdc;" horiz-adv-x="1357" d="M2 1182.5v306t1 258.5t3 162q61 0 106.5 2t86.5 2h2l8 -4l2 -2q2 -49 2 -169v-274.5t2 -327.5t9 -327t18.5 -272.5t31.5 -165.5q20 -49 49 -81t68 -50.5t88 -28.5t113 -16q98 -10 171 12t122 60t77.5 81t38.5 76q20 66 36 173.5t25 238.5t14 276t8 288.5t2 275.5t-3 237 q14 0 48 3t69 4t63.5 -3t34.5 -19q0 -33 -2 -121.5t-3 -206.5t-3 -249t-4 -249t-4 -207t-4 -122q-4 -90 -16.5 -194.5t-49 -201.5t-107.5 -180t-192 -130q-152 -59 -308 -66.5t-285.5 40.5t-213 151.5t-92.5 263.5q-4 59 -6 179t-4 268.5t-2 309zM43 1446q0 -141 1 -297 t2 -298t3 -255t6 -168q10 -152 88 -246t194 -136t257 -34t278 62q88 33 154 80t109 123.5t67.5 190.5t34.5 280q2 31 4 117.5t4 201.5t4 244t3 244.5t3 202.5t2 118q-35 0 -70.5 -2t-70.5 -2q4 -98 6 -238.5t0 -297t-9 -316.5t-19.5 -297t-32 -238.5t-45.5 -140.5 q-35 -49 -72 -84t-87 -58.5t-117.5 -34.5t-159.5 -11q-35 0 -88.5 12t-104.5 32.5t-93 48t-54 58.5q-25 57 -39.5 178t-22.5 274.5t-10 324.5t0 326t4 277.5t4 184.5q-33 -2 -64.5 -3t-64.5 -1q-2 -55 -3 -168t-1 -254zM303 2105q2 47 6 94.5t6 94.5q2 4 35 6t72 0t71.5 -9 t36.5 -20q4 -68 5.5 -106.5t-1 -59t-7.5 -26.5t-13 -6q-45 -4 -93 0t-93 2q-8 2 -16.5 11t-8.5 19zM336 2109q35 4 80 0t80 0l-7 138q-33 2 -67.5 5t-67.5 5q-2 -35 -9 -74t-9 -74zM774 2105q2 47 6 94.5t6 94.5q2 4 35 6t72 0t71.5 -9t36.5 -20q4 -68 5.5 -106.5t-0.5 -59 t-7.5 -26.5t-13.5 -6q-45 -4 -93 0t-93 2q-8 2 -16.5 11t-8.5 19zM807 2109q35 4 80 0t80 0l-6 138q-33 2 -68 5t-68 5q-2 -35 -9 -74t-9 -74z" />
<glyph unicode="&#xdd;" horiz-adv-x="1167" d="M-10 1763l174 158q27 -45 81 -124t118.5 -172t133 -188.5t126 -173t95.5 -129t42 -55.5l649 842q16 12 43 -1t54.5 -35.5t51 -46t33.5 -34.5q-27 -41 -91 -124t-144 -182t-166 -205.5t-156.5 -191.5t-118 -139.5t-47.5 -52.5q-2 8 -5 -40t-5 -130t-4 -186t-3 -208.5 t-2 -198t-1 -154.5q-10 0 -46 1t-76 2t-74 3t-36 4q0 10 1 56t3.5 118t5.5 162t5 186.5t3 192.5t-1 182q-162 197 -272.5 337t-181 236.5t-109.5 152.5t-56.5 87t-20.5 40t-3 11zM33 1757q4 -10 52 -73.5t117.5 -154.5t149.5 -194.5t148.5 -192.5t116 -151.5t51.5 -68.5 q0 -125 -1 -229.5t-2 -207t-2 -209t-1 -235.5q41 0 73.5 -3t73.5 -5l20 889l707 876q-33 25 -55.5 39t-53.5 41q-41 -47 -107.5 -138t-153.5 -208t-190.5 -250t-213.5 -264l-2 -2l-606 844zM539 2109q137 145 214.5 225.5t116.5 117t51.5 43t18.5 2.5q8 -4 41 -21.5 t66.5 -39t57 -44t13.5 -41.5q-10 -12 -43 -41t-79 -65.5t-97 -77.5t-97 -78t-80 -65.5t-42 -41.5q-8 -4 -32.5 11.5t-50.5 37t-44 44t-14 34.5zM580 2097q27 -20 46 -38t46 -38q6 8 36.5 36t71.5 62.5t88 74.5t89 75t72 61.5t36 34.5q-29 16 -64.5 47t-64.5 48z" />
<glyph unicode="&#xde;" horiz-adv-x="1445" d="M63 4q12 395 3 788.5t4 784.5q2 14 28.5 19.5t61.5 4t68.5 -3.5t50.5 2l1 -31q1 -30 1 -77v-103.5v-104.5t1 -82t1 -38q119 68 247.5 100.5t250.5 33.5t231.5 -26.5t191.5 -81.5t129 -131t47 -173q-2 -152 -56 -269.5t-144 -202.5t-205 -135.5t-234.5 -66.5t-237.5 1 t-212 69q-2 -2 -1 -49.5t2 -103.5t0 -102t-7 -46q-4 -2 -32 -2.5t-61.5 -0.5t-64.5 1.5t-39 1.5q-20 4 -25 24zM104 20q33 0 73 1t71 -1q0 43 2 102.5t3 114t3 92.5l2 38q129 -78 259 -101.5t250 -3t223.5 77.5t180 142t119.5 189.5t41 219.5q0 102 -59.5 176t-154.5 118 t-214 60.5t-238.5 3t-229 -53.5t-185.5 -105q-2 2 -4 -7.5t-5 -11.5t-5.5 12.5t-1 65.5t4.5 148.5t11 261.5q-39 -4 -71 -2t-68 -1q-10 -387 -3 -768.5t-4 -767.5zM245 849q-1 46 0 77.5t7 36.5q55 55 146 93t193.5 55t208 13t192.5 -30.5t145.5 -78.5t66.5 -130 q12 -106 -38 -196.5t-137 -157t-197.5 -105.5t-220 -44t-206 28.5t-153.5 113.5q2 6 2 41t-2 82t-4 101.5t-3 100.5zM281 922l14 -379q55 -66 143 -92.5t184.5 -22.5t193.5 38t175 91t123 135t41 172q-4 72 -56 120t-133 74.5t-179.5 31t-193.5 -14t-179 -56.5t-133 -97z " />
<glyph unicode="&#xdf;" horiz-adv-x="1273" d="M4 931q0 165 9.5 325.5t32 293.5t60 225.5t95.5 116.5q70 31 154.5 43.5t173.5 7t176.5 -28t161 -61t129 -93t79.5 -124.5q33 -88 5.5 -176t-87 -164.5t-140.5 -137t-157 -91.5q145 -20 249 -77.5t167.5 -137.5t87 -176t9 -192.5t-66.5 -185.5t-140.5 -155.5t-212 -104.5 t-281.5 -30q-2 10 -4 19.5t-3 26t0 45t3 77.5q86 20 168 56t141 71q96 57 127 129t14.5 145.5t-71 141t-128 115t-157.5 67t-160 -3.5q-14 -18 -28 0q-4 20 -7.5 49t-4.5 57.5t2 55t10 45.5q195 90 291 184t117.5 178t-20.5 150.5t-123 100.5t-189.5 28t-221.5 -68 l-20 -1683q-49 0 -84 5t-84 19q-8 2 -23.5 20.5t-17.5 29.5q2 0 -3 73.5t-11.5 193.5t-11.5 275.5t-5 320.5zM52 853q1 -155 6 -297t11.5 -250.5t8.5 -173t-2 -64.5q2 2 33.5 -4.5t91.5 -16.5q0 2 1 75t2 189.5t3 265t4 303t5 302t5 264.5t4 187.5t4 72.5q80 57 167 77.5 t167 10.5t147.5 -46t107.5 -90t47 -124t-32.5 -147.5t-133 -159.5t-255.5 -160v-127q80 20 169 -3.5t168 -75.5t137.5 -127t75 -155.5t-17.5 -161.5t-138 -147q-49 -29 -130 -64.5t-169 -60.5v-90q156 -6 274.5 33t198.5 106.5t121 155.5t44 181.5t-32 183.5t-108.5 160.5 t-185.5 114.5t-261 46q90 55 154.5 100.5t108.5 82t71.5 67.5t46.5 60q76 125 66.5 219t-74 161.5t-168 107.5t-214 54.5t-212 5t-162.5 -42.5q-49 -53 -80 -157.5t-48.5 -239.5t-22.5 -290.5t-4 -310.5z" />
<glyph unicode="&#xe0;" d="M2 201q2 -63 38 -102.5t89 -63t119.5 -30.5t132 -6t124 9t97.5 19q53 14 99.5 27.5t88 29.5t77.5 38.5t71 57.5q-6 -47 -3 -87t5 -83q6 -6 36 -10t62.5 -5t59 2t28.5 11q10 98 18.5 208t7.5 219.5t-17.5 214t-55.5 192.5t-103.5 154.5t-162.5 99.5q-84 29 -182.5 23.5 t-194.5 -33t-185 -70.5t-157 -88q-10 -2 -13 -11.5t5 -21.5q12 -27 19.5 -44t12.5 -31.5t12 -28t20 -31.5q51 23 116.5 50.5t136 50t142 35.5t138.5 6t121 -39t91 -99q-49 8 -104.5 14t-114 6t-116.5 -5t-109 -19q-86 -23 -170 -78t-148.5 -131t-101.5 -166t-29 -184z M45 207q-10 59 12.5 129t51.5 121q66 113 162 176t207.5 91t232 23.5t237.5 -26.5q-29 94 -84 144t-124.5 68.5t-149.5 11.5t-158 -28.5t-147.5 -51t-120.5 -54.5q-4 8 -9 21.5t-9.5 29t-9.5 29.5t-9 22q80 43 182.5 87t212 65.5t215 9.5t189.5 -80q59 -47 97 -115.5 t57.5 -150.5t25.5 -171t4 -179t-9 -175t-14 -157q-10 -6 -26.5 -8t-31.5 -2t-28.5 1t-19.5 1q-6 12 -5 45t4 67.5t4 62.5t-5 30q-59 -49 -151.5 -91t-198 -71t-211 -39t-191.5 2q-25 4 -54.5 17.5t-56 35t-46 49t-25.5 60.5zM168 321.5q-10 -51.5 17.5 -95.5t109.5 -68 q66 -16 166 -3t201.5 45.5t187.5 80t125 98.5q4 45 1 90t-1 90q-74 49 -163 65.5t-180 7.5t-177.5 -42t-149.5 -80q-51 -37 -89 -87t-48 -101.5zM209 311q2 59 45 108.5t109.5 86.5t148.5 58.5t162 26.5t150.5 -8.5t113.5 -47.5q-2 -37 -1 -67t-1 -79q-57 -49 -128 -84 t-139.5 -58.5t-128 -36.5t-94.5 -17q-41 -6 -84 -7.5t-77.5 9t-57 38t-18.5 78.5zM332 1548q-10 18 13.5 41t57 44.5t66.5 39t41 21.5q6 4 18.5 -2t51 -43t116.5 -117t215 -225q4 -12 -14 -35t-44 -44.5t-50.5 -36.5t-32.5 -11q-10 12 -43 40.5t-79 65.5t-97 78t-97 78 t-80 65.5t-42 40.5zM385 1563q6 -8 36 -35t72 -61.5t89 -74.5t88 -75t70.5 -61.5t37.5 -36.5q27 20 46.5 37.5t45.5 37.5l-356 363q-29 -16 -64.5 -47t-64.5 -47z" />
<glyph unicode="&#xe1;" d="M2 201q-8 94 29 184t101.5 166t148.5 131t170 78q51 14 109 19t116.5 5t114 -6t104.5 -14q-37 68 -91 99.5t-121 38.5t-138.5 -6t-142 -35.5t-136 -50.5t-116.5 -50q-12 18 -19.5 31.5t-12.5 28t-12.5 31.5t-19.5 44q-8 12 -5 21.5t13 11.5q68 45 157 88t185 70.5 t194.5 32.5t182.5 -23q98 -33 162.5 -99.5t103.5 -154.5t55.5 -192.5t17.5 -214t-7 -219.5t-19 -208q-2 -8 -28.5 -11t-59 -2t-62.5 5t-36 10q-2 43 -5 83t3 87q-35 -35 -71 -57.5t-77.5 -38.5t-88 -29.5t-99.5 -27.5q-39 -10 -97.5 -18.5t-124 -9.5t-132 6t-119.5 30.5 t-89 62.5t-38 103zM45 207q6 -33 25.5 -60.5t46 -49t56.5 -35t54 -17.5q86 -12 191.5 -2t211 39t198 71t151.5 91q6 -2 5 -30t-4 -62.5t-4 -67.5t5 -45q6 0 19.5 -1t28.5 -1t31.5 2t26.5 8q6 72 13.5 157t9.5 175t-4 179t-25.5 171t-57.5 150.5t-97 115.5q-84 68 -189.5 80 t-215 -9.5t-212 -65.5t-182.5 -87q4 -8 9 -22t9.5 -29.5t9.5 -29t9 -21.5q51 25 120.5 54.5t147.5 51t158 28.5t149.5 -11.5t125 -68.5t83.5 -144q-117 23 -237.5 27t-232 -24t-208 -91.5t-161.5 -175.5q-29 -51 -51.5 -121t-12.5 -129zM168 321.5q10 51.5 48 101.5t89 87 q63 47 149.5 80t177.5 42t180 -7.5t163 -65.5q-2 -45 1 -90t-1 -90q-39 -51 -125 -98.5t-187.5 -80t-202 -46t-165.5 3.5q-82 25 -109.5 68.5t-17.5 95zM209 311q-4 -51 18.5 -78.5t57 -38t78 -9.5t83.5 8q35 4 94.5 17t128 36.5t139.5 58.5t128 84q2 49 1 79t1 67 q-43 35 -113.5 48t-150.5 8t-162 -26.5t-148.5 -58.5t-109.5 -86t-45 -109zM313 1307q137 145 215 225t117 117t51.5 43t18.5 2q8 -4 40.5 -21.5t66.5 -39t57.5 -44t13.5 -41.5q-10 -12 -43 -40.5t-79 -65.5t-97 -78t-97.5 -78t-80 -65.5t-41.5 -40.5q-8 -4 -33 11 t-50.5 36.5t-44 44t-14.5 35.5zM354 1294q27 -20 46 -37.5t46 -37.5q6 10 37 36.5t72 61.5t88 75t89 74.5t72 61t36 35.5q-29 16 -65 46.5t-64 47.5z" />
<glyph unicode="&#xe2;" d="M2 201q2 -63 38 -102.5t89 -63t119.5 -30.5t132 -6t124 9t97.5 19q53 14 99.5 27.5t88 29.5t77.5 38.5t71 57.5q-6 -47 -3 -87t5 -83q6 -6 36 -10t62.5 -5t59 2t28.5 11q10 98 18.5 208t7.5 219.5t-17.5 214t-55.5 192.5t-103.5 154.5t-162.5 99.5q-84 29 -182.5 23.5 t-194.5 -33t-185 -70.5t-157 -88q-10 -2 -13 -11.5t5 -21.5q12 -27 19.5 -44t12.5 -31.5t12 -28t20 -31.5q51 23 116.5 50.5t136 50t142 35.5t138.5 6t121 -39t91 -99q-49 8 -104.5 14t-114 6t-116.5 -5t-109 -19q-86 -23 -170 -78t-148.5 -131t-101.5 -166t-29 -184z M45 207q-10 59 12.5 129t51.5 121q66 113 162 176t207.5 91t232 23.5t237.5 -26.5q-29 94 -84 144t-124.5 68.5t-149.5 11.5t-158 -28.5t-147.5 -51t-120.5 -54.5q-4 8 -9 21.5t-9.5 29t-9.5 29.5t-9 22q80 43 182.5 87t212 65.5t215 9.5t189.5 -80q59 -47 97 -115.5 t57.5 -150.5t25.5 -171t4 -179t-9 -175t-14 -157q-10 -6 -26.5 -8t-31.5 -2t-28.5 1t-19.5 1q-6 12 -5 45t4 67.5t4 62.5t-5 30q-59 -49 -151.5 -91t-198 -71t-211 -39t-191.5 2q-25 4 -54.5 17.5t-56 35t-46 49t-25.5 60.5zM168 321.5q-10 -51.5 17.5 -95.5t109.5 -68 q66 -16 166 -3t201.5 45.5t187.5 80t125 98.5q4 45 1 90t-1 90q-74 49 -163 65.5t-180 7.5t-177.5 -42t-149.5 -80q-51 -37 -89 -87t-48 -101.5zM195 1247q-16 12 4 37t66 77t113.5 139t147.5 222q4 0 31 -1t58.5 -3t59 -8t38.5 -14l23 -30q22 -30 55.5 -75t72.5 -96t73 -95 t55 -74l22 -30q6 -12 -7.5 -30.5t-34 -37t-44 -33.5t-37.5 -19q-10 -4 -30.5 16t-46.5 52t-54.5 72t-54 75.5t-46 64.5t-30.5 37q2 -2 -17.5 -27.5t-49.5 -63.5t-66.5 -82t-69.5 -82t-55.5 -63.5t-24.5 -25.5q-29 29 -68.5 57.5t-82.5 40.5zM209 311q2 59 45 108.5 t109.5 86.5t148.5 58.5t162 26.5t150.5 -8.5t113.5 -47.5q-2 -37 -1 -67t-1 -79q-57 -49 -128 -84t-139.5 -58.5t-128 -36.5t-94.5 -17q-41 -6 -84 -7.5t-77.5 9t-57 38t-18.5 78.5zM231 1280q29 -10 63 -34.5t56 -45.5q4 4 25.5 32t51.5 66.5t63.5 81.5t63.5 80t50.5 61.5 t24.5 24.5q8 0 27.5 -23.5t45 -58t54 -76.5t55.5 -79t48.5 -62.5t31.5 -29.5q23 8 47.5 24t40.5 47q-2 0 -24.5 27.5t-55.5 71t-72 93.5t-71.5 93t-53.5 71l-20 29q2 2 -4 2l2 -2q-4 -2 -25.5 -1t-46 1h-45t-22.5 -4q-104 -147 -165 -226t-92.5 -115t-41 -41t-11.5 -7z" />
<glyph unicode="&#xe3;" d="M2 201q-8 94 29 184t101.5 166t148.5 131t170 78q51 14 109 19t116.5 5t114 -6t104.5 -14q-37 68 -91 99.5t-121 38.5t-138.5 -6t-142 -35.5t-136 -50.5t-116.5 -50q-12 18 -19.5 31.5t-12.5 28t-12.5 31.5t-19.5 44q-8 12 -5 21.5t13 11.5q68 45 157 88t185 70.5 t194.5 32.5t182.5 -23q98 -33 162.5 -99.5t103.5 -154.5t55.5 -192.5t17.5 -214t-7 -219.5t-19 -208q-2 -8 -28.5 -11t-59 -2t-62.5 5t-36 10q-2 43 -5 83t3 87q-35 -35 -71 -57.5t-77.5 -38.5t-88 -29.5t-99.5 -27.5q-39 -10 -97.5 -18.5t-124 -9.5t-132 6t-119.5 30.5 t-89 62.5t-38 103zM45 207q6 -33 25.5 -60.5t46 -49t56.5 -35t54 -17.5q86 -12 191.5 -2t211 39t198 71t151.5 91q6 -2 5 -30t-4 -62.5t-4 -67.5t5 -45q6 0 19.5 -1t28.5 -1t31.5 2t26.5 8q6 72 13.5 157t9.5 175t-4 179t-25.5 171t-57.5 150.5t-97 115.5q-84 68 -189.5 80 t-215 -9.5t-212 -65.5t-182.5 -87q4 -8 9 -22t9.5 -29.5t9.5 -29t9 -21.5q51 25 120.5 54.5t147.5 51t158 28.5t149.5 -11.5t125 -68.5t83.5 -144q-117 23 -237.5 27t-232 -24t-208 -91.5t-161.5 -175.5q-29 -51 -51.5 -121t-12.5 -129zM158 1423q0 12 6 19q8 31 46 58.5 t84 49t92 34.5t73 13t59.5 -13t50.5 -23q66 -31 106 -62t71.5 -46t65.5 -8t87 48q18 16 44 42t34 50q4 10 10 12q4 8 14.5 10.5t20.5 -5.5q6 -14 26.5 -33t42 -39.5t38 -40t12.5 -35.5t-27.5 -49t-97.5 -96q-88 -78 -155.5 -93.5t-128 4t-120 60.5t-131.5 80q-16 8 -44.5 3 t-57.5 -19.5t-53.5 -33t-32.5 -34.5q-14 -10 -27 8q-16 10 -33.5 27.5t-33 37t-26.5 40t-15 34.5zM168 321.5q10 51.5 48 101.5t89 87q63 47 149.5 80t177.5 42t180 -7.5t163 -65.5q-2 -45 1 -90t-1 -90q-39 -51 -125 -98.5t-187.5 -80t-202 -46t-165.5 3.5 q-82 25 -109.5 68.5t-17.5 95zM201 1423q10 -25 32.5 -47t42.5 -45q8 8 30 23.5t48.5 28t54 19.5t50.5 1q55 -14 98 -40t80 -49.5t72.5 -42t76.5 -20.5t90.5 17.5t114.5 72.5q8 8 24.5 22.5t32 32t29 34t17.5 26.5l-86 96q-14 -27 -38 -51t-46 -41q-74 -55 -119 -58 t-86 20.5t-94.5 62.5t-143.5 69q-18 6 -62 -5t-91 -30.5t-84 -45.5t-41 -46q-2 -2 -2 -4zM209 311q-4 -51 18.5 -78.5t57 -38t78 -9.5t83.5 8q35 4 94.5 17t128 36.5t139.5 58.5t128 84q2 49 1 79t1 67q-43 35 -113.5 48t-150.5 8t-162 -26.5t-148.5 -58.5t-109.5 -86 t-45 -109z" />
<glyph unicode="&#xe4;" d="M2 201q-8 94 29 184t101.5 166t148.5 131t170 78q51 14 109 19t116.5 5t114 -6t104.5 -14q-37 68 -91 99.5t-121 38.5t-138.5 -6t-142 -35.5t-136 -50.5t-116.5 -50q-12 18 -19.5 31.5t-12.5 28t-12.5 31.5t-19.5 44q-8 12 -5 21.5t13 11.5q68 45 157 88t185 70.5 t194.5 32.5t182.5 -23q98 -33 162.5 -99.5t103.5 -154.5t55.5 -192.5t17.5 -214t-7 -219.5t-19 -208q-2 -8 -28.5 -11t-59 -2t-62.5 5t-36 10q-2 43 -5 83t3 87q-35 -35 -71 -57.5t-77.5 -38.5t-88 -29.5t-99.5 -27.5q-39 -10 -97.5 -18.5t-124 -9.5t-132 6t-119.5 30.5 t-89 62.5t-38 103zM45 207q6 -33 25.5 -60.5t46 -49t56.5 -35t54 -17.5q86 -12 191.5 -2t211 39t198 71t151.5 91q6 -2 5 -30t-4 -62.5t-4 -67.5t5 -45q6 0 19.5 -1t28.5 -1t31.5 2t26.5 8q6 72 13.5 157t9.5 175t-4 179t-25.5 171t-57.5 150.5t-97 115.5q-84 68 -189.5 80 t-215 -9.5t-212 -65.5t-182.5 -87q4 -8 9 -22t9.5 -29.5t9.5 -29t9 -21.5q51 25 120.5 54.5t147.5 51t158 28.5t149.5 -11.5t125 -68.5t83.5 -144q-117 23 -237.5 27t-232 -24t-208 -91.5t-161.5 -175.5q-29 -51 -51.5 -121t-12.5 -129zM168 321.5q10 51.5 48 101.5t89 87 q63 47 149.5 80t177.5 42t180 -7.5t163 -65.5q-2 -45 1 -90t-1 -90q-39 -51 -125 -98.5t-187.5 -80t-202 -46t-165.5 3.5q-82 25 -109.5 68.5t-17.5 95zM209 311q-4 -51 18.5 -78.5t57 -38t78 -9.5t83.5 8q35 4 94.5 17t128 36.5t139.5 58.5t128 84q2 49 1 79t1 67 q-43 35 -113.5 48t-150.5 8t-162 -26.5t-148.5 -58.5t-109.5 -86t-45 -109zM270 1305q2 47 6.5 94t6.5 94q2 4 34.5 6t71.5 0t72 -9t37 -20q4 -68 5 -106.5t-1 -59t-7.5 -26.5t-13.5 -6q-45 -4 -93 0t-93 2q-8 2 -16.5 11t-8.5 20zM303 1309q35 4 80 0t80 0l-6 137 q-33 2 -67.5 5t-67.5 5q-2 -35 -9.5 -74t-9.5 -73zM741 1305q2 47 6.5 94t6.5 94q2 4 34.5 6t71.5 0t72 -9t37 -20q4 -68 5 -106.5t-1 -59t-7 -26.5t-14 -6q-45 -4 -93 0t-93 2q-8 2 -16.5 11t-8.5 20zM774 1309q35 4 80 0t80 0l-6 137q-33 2 -67.5 5t-67.5 5 q-2 -35 -9.5 -74t-9.5 -73z" />
<glyph unicode="&#xe5;" d="M2 201q-8 94 29 184t101.5 166t148.5 131t170 78q51 14 109 19t116.5 5t114 -6t104.5 -14q-37 68 -91 99.5t-121 38.5t-138.5 -6t-142 -35.5t-136 -50.5t-116.5 -50q-12 18 -19.5 31.5t-12.5 28t-12.5 31.5t-19.5 44q-8 12 -5 21.5t13 11.5q68 45 157 88t185 70.5 t194.5 32.5t182.5 -23q98 -33 162.5 -99.5t103.5 -154.5t55.5 -192.5t17.5 -214t-7 -219.5t-19 -208q-2 -8 -28.5 -11t-59 -2t-62.5 5t-36 10q-2 43 -5 83t3 87q-35 -35 -71 -57.5t-77.5 -38.5t-88 -29.5t-99.5 -27.5q-39 -10 -97.5 -18.5t-124 -9.5t-132 6t-119.5 30.5 t-89 62.5t-38 103zM45 207q6 -33 25.5 -60.5t46 -49t56.5 -35t54 -17.5q86 -12 191.5 -2t211 39t198 71t151.5 91q6 -2 5 -30t-4 -62.5t-4 -67.5t5 -45q6 0 19.5 -1t28.5 -1t31.5 2t26.5 8q6 72 13.5 157t9.5 175t-4 179t-25.5 171t-57.5 150.5t-97 115.5q-84 68 -189.5 80 t-215 -9.5t-212 -65.5t-182.5 -87q4 -8 9 -22t9.5 -29.5t9.5 -29t9 -21.5q51 25 120.5 54.5t147.5 51t158 28.5t149.5 -11.5t125 -68.5t83.5 -144q-117 23 -237.5 27t-232 -24t-208 -91.5t-161.5 -175.5q-29 -51 -51.5 -121t-12.5 -129zM168 321.5q10 51.5 48 101.5t89 87 q63 47 149.5 80t177.5 42t180 -7.5t163 -65.5q-2 -45 1 -90t-1 -90q-39 -51 -125 -98.5t-187.5 -80t-202 -46t-165.5 3.5q-82 25 -109.5 68.5t-17.5 95zM209 311q-4 -51 18.5 -78.5t57 -38t78 -9.5t83.5 8q35 4 94.5 17t128 36.5t139.5 58.5t128 84q2 49 1 79t1 67 q-43 35 -113.5 48t-150.5 8t-162 -26.5t-148.5 -58.5t-109.5 -86t-45 -109zM282.5 1482q-6.5 83 27.5 166t104 142q63 51 142 71.5t159 15.5t151.5 -35t120.5 -80t65.5 -118.5t-12.5 -152.5q-25 -72 -83 -138.5t-135 -109.5t-167 -54t-180 25q-92 39 -139 112t-53.5 156z M324.5 1490q5.5 -73 46.5 -137.5t121 -101.5q70 -33 150.5 -24.5t153 45.5t128 97t75.5 132q23 80 5.5 142.5t-62.5 106.5t-108.5 67.5t-133 26.5t-138 -17.5t-120.5 -65.5q-63 -55 -93 -126.5t-24.5 -144.5zM433 1493q-13 43 3 82q18 45 34.5 70.5t39 41t51.5 23.5t72 16h6 q2 0 3 1.5t3 1.5l8 -5q53 4 103.5 -16t81 -55t33.5 -82t-35 -96q-23 -29 -44.5 -47.5t-45 -31t-52 -21.5t-63.5 -19q-41 -12 -83 6t-72 53t-43 78zM473 1547q-2 -42 16.5 -76.5t54.5 -57t81 -18.5q59 6 102 33.5t65.5 62.5t25.5 74t-15.5 68.5t-58.5 44.5t-103 5 q-10 -4 -12 0q-41 -6 -67.5 -13t-57.5 -46q-29 -35 -31 -77z" />
<glyph unicode="&#xe6;" horiz-adv-x="2158" d="M4 201q-8 94 29 184t101.5 166t148.5 131t170 78q104 29 198 25.5t193 -21.5q-37 68 -88 99.5t-110.5 38.5t-125 -6t-130 -35.5t-126 -50.5t-112.5 -50q-12 18 -19.5 31.5t-12.5 28t-12.5 31.5t-19.5 44q-8 12 -5 21.5t13 11.5q68 45 149 88t168 70.5t176 32.5t173 -23 q90 -31 150.5 -88.5t101.5 -135.5q78 96 185.5 154.5t222 80t226 5.5t199.5 -71.5t141.5 -148.5t51.5 -226q-221 -41 -452.5 -98.5t-465.5 -98.5l-14 -4l-2 -19q16 -96 75.5 -158.5t142.5 -94t181.5 -34.5t189.5 17.5t167.5 63.5t119.5 104q8 8 39 -18.5t58.5 -63.5 t40 -70.5t-12.5 -35.5h-4q-123 -102 -256 -156.5t-265 -58.5t-259 42t-236 144l-12 -119q-2 -8 -28.5 -11t-59.5 -2t-62.5 5t-35.5 10q-2 43 -5 83t3 87q-35 -35 -62.5 -57.5t-59.5 -38.5t-70 -29.5t-91 -27.5q-39 -10 -97 -18.5t-124 -9.5t-132.5 6t-119.5 30.5t-89 62.5 t-38 103zM47 207q6 -33 25.5 -60.5t46 -49t56.5 -35t54 -17.5q86 -12 183.5 -2t192.5 39t179 71t144 91q6 -2 5 -30t-4 -62.5t-4 -67.5t5 -45q6 0 19.5 -1t28.5 -1t31.5 2t26.5 8l13 164q12 -10 23 -22.5t26 -20.5q119 -115 256 -156t274 -30q61 6 134 31.5t138.5 58 t113.5 65.5t61 49q0 2 1 2t1 2q-10 29 -35 55.5t-45 49.5q-76 -76 -171 -121t-193.5 -58.5t-194 3t-174 63.5t-134 124t-73.5 183q4 2 51 14.5t121 31t170 41t199.5 45t207 43t195.5 36.5q-6 104 -54.5 181t-124 124.5t-168.5 64.5t-190 3q-80 -12 -142 -34.5t-114.5 -57.5 t-100.5 -82t-99 -108q-4 25 -18.5 54t-34 57t-41 52.5t-40.5 40.5q-84 68 -181 80t-196.5 -9.5t-193.5 -65.5t-174 -87q4 -8 9 -22t9.5 -29.5t9.5 -29t9 -21.5q51 25 117.5 54.5t138.5 51t143.5 28.5t136 -11.5t115.5 -68.5t80 -144q-117 23 -229.5 27t-214 -24 t-189.5 -91.5t-153 -175.5q-29 -51 -51.5 -121t-12.5 -129zM170 322.5q10 52.5 48 102.5t89 87q55 43 121 72.5t135.5 42t142 6.5t144.5 -35q2 -4 10 -8q10 -4 25.5 -15.5t29.5 -27.5q0 -41 2.5 -80t2.5 -80v-10l-7 -10q-43 -49 -120.5 -94.5t-166.5 -76t-177.5 -43 t-151.5 4.5q-82 25 -109.5 68.5t-17.5 96zM211 311q-4 -51 18.5 -78.5t57.5 -38t78 -9.5t84 8q35 4 86 17t109 36.5t121 58.5t120 84q2 49 1 79t1 67q-43 35 -109.5 48t-141.5 8t-148.5 -26.5t-134 -58.5t-100.5 -86t-42 -109zM1057 614q-6 84 48 153t141 116t191.5 68.5 t196.5 12t158 -52.5t76 -125q-6 0 -55.5 -11t-124 -29.5t-165.5 -41t-180.5 -42t-165 -33t-120.5 -15.5zM1104 662q4 0 57 11t132 28.5t170 37t170 37t132.5 27.5t57.5 10q-31 57 -93.5 85t-139.5 31t-158.5 -16.5t-152.5 -55.5t-119 -86t-56 -109z" />
<glyph unicode="&#xe7;" horiz-adv-x="1388" d="M9.5 445q-29.5 171 92.5 352q115 166 265.5 252t365.5 86q121 -2 226.5 -28t216.5 -67q14 -14 20 -19t2 -26q-12 -18 -26.5 -47.5t-28 -58.5t-24.5 -48.5t-19 -15.5q-61 43 -141 62.5t-166 17.5t-171 -21.5t-157 -55t-123 -84t-68 -105.5q-39 -131 -12 -217t97.5 -134 t172 -60.5t212 1t217 51t186.5 91.5q6 14 29 8q18 -14 38.5 -33.5t38 -41t30.5 -42t22 -35.5q-16 -18 -44 -35.5t-61 -33t-64.5 -28.5t-54.5 -24q-74 -33 -148.5 -56t-150.5 -38v-6q4 -29 6.5 -58.5t-4.5 -60.5q63 -2 131 -43t114 -102t56.5 -132t-41.5 -132 q-43 -53 -97 -78t-115.5 -34t-125 -9t-122.5 -4l6 184q2 2 30.5 -1t68.5 -3t85 9t84 40l2 2q14 45 -5 75t-56 45t-82 19.5t-78 -2.5q-10 2 -21.5 1t-21.5 0.5t-17.5 7.5t-7.5 26q0 63 -2 125t-2 123q-92 8 -177 40t-169 93q-182 137 -211.5 308zM49 540.5 q-6 -112.5 44 -206.5t150.5 -166t233.5 -107q14 -6 37 -11t43.5 -8t34.5 -5t12 -4q0 -59 4 -135t4 -136q33 8 88.5 2t105.5 -29.5t80.5 -65.5t12.5 -101q-8 -25 -44 -41t-81 -25.5t-89 -11.5t-67 2v-96q53 2 107.5 2t106 8t98.5 29.5t84 68.5q45 55 31.5 116t-57.5 111 t-109.5 81.5t-124.5 25.5q-10 12 -10.5 37t3 52.5t5.5 58t-4 55.5v4h2q4 4 10 2q66 10 130 29.5t130 46.5q16 6 46 18.5t62.5 27.5t65.5 30.5t55 31.5q-8 14 -31.5 47t-50.5 56q-80 -59 -193.5 -99t-231 -51.5t-229.5 8t-190.5 76t-110.5 152.5t7 239q14 49 66.5 104.5 t135.5 100.5t192.5 73t238.5 21q66 -4 125 -29.5t113 -47.5q16 33 36.5 60.5t30.5 62.5v2q-106 39 -206.5 61.5t-217.5 26.5q-193 6 -339 -77t-257 -245q-82 -119 -88 -231.5z" />
<glyph unicode="&#xe8;" horiz-adv-x="1370" d="M4 544.5q0 -57.5 13.5 -113.5t41.5 -105q63 -109 152.5 -183.5t194 -117.5t218 -54.5t228.5 8t225.5 70.5t206.5 133h4q25 2 12.5 36t-40 71t-58.5 63.5t-39 18.5q-43 -61 -124 -102.5t-178 -61t-202.5 -13t-194.5 40t-153 97.5t-80 160l5 4q117 20 243.5 45.5t255.5 51 t254 50.5t236 45q2 147 -69 246.5t-183.5 152t-251.5 57.5t-270.5 -36t-241 -127t-164.5 -217q-20 -49 -30.5 -105.5t-10.5 -114zM59 512q-10 121 27 220t112.5 174t184.5 123t240 67q96 14 193 -1.5t177 -63.5t130.5 -128t52.5 -194q-242 -41 -496 -86.5t-494 -100.5 q14 -117 77 -195.5t153 -122.5t196.5 -56.5t212 4t198.5 60.5t155 110q20 -23 44.5 -49.5t34.5 -55.5q0 -2 -1 -2t-1 -2q-12 -16 -60 -49t-113.5 -65.5t-138.5 -58.5t-134 -32q-68 -6 -147.5 1t-159.5 29.5t-156 60.5t-136 96.5t-101 136.5t-50 180zM176 706.5 q-4 -22.5 3 -40t34 -19.5l37 6t96.5 18.5t135 28t153.5 30.5t152.5 30.5t133 28t94.5 18.5t34 6q-8 82 -65.5 125t-140.5 56.5t-180.5 1t-187.5 -42t-161.5 -73.5t-102.5 -92q-8 -12 -19.5 -35.5t-15.5 -46zM217 688q8 59 61.5 109.5t131 86.5t169 55t175.5 16t151.5 -30.5 t98.5 -84.5q-4 0 -62.5 -10.5t-144.5 -28t-186.5 -37t-186.5 -36.5t-144.5 -28.5t-62.5 -11.5zM332 1548q-10 18 13.5 41t57 44.5t66.5 39t41 21.5q6 4 18.5 -2t51 -43t116.5 -117t215 -225q4 -12 -14 -35t-44 -44.5t-50.5 -36.5t-32.5 -11q-10 12 -43 40.5t-79 65.5t-97 78 t-97 78t-80 65.5t-42 40.5zM385 1563q6 -8 36 -35t72 -61.5t89 -74.5t88 -75t70.5 -61.5t37.5 -36.5q27 20 46.5 37.5t45.5 37.5l-356 363q-29 -16 -64.5 -47t-64.5 -47z" />
<glyph unicode="&#xe9;" horiz-adv-x="1370" d="M4 544.5q0 57.5 10.5 114t30.5 105.5q55 131 164.5 217t241 127t270.5 36t251.5 -57.5t183.5 -151.5t69 -247q-111 -20 -236 -45t-254 -50.5t-256 -51t-243 -45.5l-5 -4q16 -96 80 -160t153 -97.5t194.5 -40t202.5 13t178 60.5t124 103q8 8 39 -18.5t58.5 -63.5t40 -71 t-12.5 -36h-4q-96 -82 -206.5 -133t-225.5 -70.5t-228.5 -8t-218 54.5t-193.5 117.5t-153 183.5q-29 49 -42 105t-13 113.5zM59 512q8 -102 49.5 -180t101.5 -136.5t136 -96.5t156 -60.5t159.5 -29.5t147.5 -1q61 6 134 32t138.5 58.5t113.5 65.5t60 49q0 2 1 2t1 2 q-10 29 -34.5 55.5t-44.5 49.5q-61 -66 -154.5 -110t-199 -60.5t-212 -4t-196.5 56.5t-153 122.5t-77 195.5q240 55 494 100.5t496 86.5q-2 115 -52.5 194.5t-130.5 127.5t-177 63.5t-193 1.5q-131 -18 -240 -66.5t-184.5 -123.5t-112.5 -174t-27 -220zM176 706.5 q4 22.5 15.5 46t19.5 35.5q31 47 102.5 91.5t161.5 74t187.5 42t180.5 -1t140 -56.5t66 -125q2 0 -34 -6t-94.5 -18.5t-133 -28t-152.5 -30.5t-153.5 -30.5t-135 -28t-78.5 -15.5l-55 -9q-27 2 -34 19.5t-3 40zM217 688q4 0 62.5 11.5t144.5 28.5t186.5 36.5t186.5 37 t144 28t63 10.5q-31 57 -98.5 84.5t-151.5 30.5t-175.5 -16t-169 -55t-131 -86.5t-61.5 -109.5zM313 1307q137 145 215 225t117 117t51.5 43t18.5 2q8 -4 40.5 -21.5t66.5 -39t57.5 -44t13.5 -41.5q-10 -12 -43 -40.5t-79 -65.5t-97 -78t-97.5 -78t-80 -65.5t-41.5 -40.5 q-8 -4 -33 11t-50.5 36.5t-44 44t-14.5 35.5zM354 1294q27 -20 46 -37.5t46 -37.5q6 10 37 36.5t72 61.5t88 75t89 74.5t72 61t36 35.5q-29 16 -65 46.5t-64 47.5z" />
<glyph unicode="&#xea;" horiz-adv-x="1370" d="M4 544.5q0 -57.5 13.5 -113.5t41.5 -105q63 -109 152.5 -183.5t194 -117.5t218 -54.5t228.5 8t225.5 70.5t206.5 133h4q25 2 12.5 36t-40 71t-58.5 63.5t-39 18.5q-43 -61 -124 -102.5t-178 -61t-202.5 -13t-194.5 40t-153 97.5t-80 160l5 4q117 20 243.5 45.5t255.5 51 t254 50.5t236 45q2 147 -69 246.5t-183.5 152t-251.5 57.5t-270.5 -36t-241 -127t-164.5 -217q-20 -49 -30.5 -105.5t-10.5 -114zM59 512q-10 121 27 220t112.5 174t184.5 123t240 67q96 14 193 -1.5t177 -63.5t130.5 -128t52.5 -194q-242 -41 -496 -86.5t-494 -100.5 q14 -117 77 -195.5t153 -122.5t196.5 -56.5t212 4t198.5 60.5t155 110q20 -23 44.5 -49.5t34.5 -55.5q0 -2 -1 -2t-1 -2q-12 -16 -60 -49t-113.5 -65.5t-138.5 -58.5t-134 -32q-68 -6 -147.5 1t-159.5 29.5t-156 60.5t-136 96.5t-101 136.5t-50 180zM176 706.5 q-4 -22.5 3 -40t34 -19.5l37 6t96.5 18.5t135 28t153.5 30.5t152.5 30.5t133 28t94.5 18.5t34 6q-8 82 -65.5 125t-140.5 56.5t-180.5 1t-187.5 -42t-161.5 -73.5t-102.5 -92q-8 -12 -19.5 -35.5t-15.5 -46zM217 688q8 59 61.5 109.5t131 86.5t169 55t175.5 16t151.5 -30.5 t98.5 -84.5q-4 0 -62.5 -10.5t-144.5 -28t-186.5 -37t-186.5 -36.5t-144.5 -28.5t-62.5 -11.5zM240 1247q-16 12 4 37t66 77t114 139t147 222q4 0 31 -1t58.5 -3t59.5 -8t38 -14l22 -30q23 -30 56.5 -75t72.5 -96t73 -95t56 -74l21 -30q6 -12 -7.5 -30.5t-34 -37t-44 -33.5 t-37.5 -19q-10 -4 -30.5 16t-46 52t-54.5 72t-54.5 75.5t-46 64.5t-30.5 37q2 -2 -17.5 -27.5t-49 -63.5t-66.5 -82t-70 -82t-55.5 -63.5t-24.5 -25.5q-29 29 -68.5 57.5t-82.5 40.5zM276 1280q29 -10 63 -34.5t56 -45.5q4 4 25.5 32t51.5 66.5t63.5 81.5t63.5 80t50.5 61.5 t24.5 24.5q8 0 27.5 -23.5t45 -58t54 -76.5t55.5 -79t48.5 -62.5t31.5 -29.5q23 8 47.5 24t40.5 47q-2 0 -24.5 27.5t-55.5 71t-71.5 93.5t-71.5 93t-54.5 71.5t-19.5 28.5q2 2 -4 2l2 -2q-4 -2 -25.5 -1t-46 1h-45t-22.5 -4q-104 -147 -165 -226t-92.5 -115t-40.5 -41 t-12 -7z" />
<glyph unicode="&#xeb;" horiz-adv-x="1370" d="M4 544.5q0 57.5 10.5 114t30.5 105.5q55 131 164.5 217t241 127t270.5 36t251.5 -57.5t183.5 -151.5t69 -247q-111 -20 -236 -45t-254 -50.5t-256 -51t-243 -45.5l-5 -4q16 -96 80 -160t153 -97.5t194.5 -40t202.5 13t178 60.5t124 103q8 8 39 -18.5t58.5 -63.5t40 -71 t-12.5 -36h-4q-96 -82 -206.5 -133t-225.5 -70.5t-228.5 -8t-218 54.5t-193.5 117.5t-153 183.5q-29 49 -42 105t-13 113.5zM59 512q8 -102 49.5 -180t101.5 -136.5t136 -96.5t156 -60.5t159.5 -29.5t147.5 -1q61 6 134 32t138.5 58.5t113.5 65.5t60 49q0 2 1 2t1 2 q-10 29 -34.5 55.5t-44.5 49.5q-61 -66 -154.5 -110t-199 -60.5t-212 -4t-196.5 56.5t-153 122.5t-77 195.5q240 55 494 100.5t496 86.5q-2 115 -52.5 194.5t-130.5 127.5t-177 63.5t-193 1.5q-131 -18 -240 -66.5t-184.5 -123.5t-112.5 -174t-27 -220zM176 706.5 q4 22.5 15.5 46t19.5 35.5q31 47 102.5 91.5t161.5 74t187.5 42t180.5 -1t140 -56.5t66 -125q2 0 -34 -6t-94.5 -18.5t-133 -28t-152.5 -30.5t-153.5 -30.5t-135 -28t-78.5 -15.5l-55 -9q-27 2 -34 19.5t-3 40zM217 688q4 0 62.5 11.5t144.5 28.5t186.5 36.5t186.5 37 t144 28t63 10.5q-31 57 -98.5 84.5t-151.5 30.5t-175.5 -16t-169 -55t-131 -86.5t-61.5 -109.5zM313 1305q2 47 6.5 94t6.5 94q2 4 34.5 6t71.5 0t72 -9t37 -20q4 -68 5 -106.5t-1 -59t-7.5 -26.5t-13.5 -6q-45 -4 -93 0t-93 2q-8 2 -16.5 11t-8.5 20zM346 1309q35 4 80 0 t80 0l-6 137q-33 2 -67.5 5t-67.5 5q-2 -35 -9.5 -74t-9.5 -73zM784 1305q2 47 6.5 94t6.5 94q2 4 34.5 6t71.5 0t72 -9t37 -20q4 -68 5 -106.5t-1 -59t-7 -26.5t-14 -6q-45 -4 -93 0t-93 2q-8 2 -16.5 11t-8.5 20zM817 1309q35 4 80 0t80 0l-6 137q-33 2 -67.5 5t-67.5 5 q-2 -35 -9.5 -74t-9.5 -73z" />
<glyph unicode="&#xec;" horiz-adv-x="395" d="M-16 1468q-10 18 13 41t57 44.5t67 39t41 21.5q6 4 9 2t24.5 -25.5t70.5 -78t150 -152.5q4 -12 -14.5 -34.5t-44 -44t-50 -37t-33.5 -11.5q-14 18 -56 50t-89 67.5t-89 67.5t-56 50zM37 1483q10 -12 46 -42t77 -62.5t77 -62.5t46 -44q27 20 46 37.5t46 38.5l-209 229 q-31 -33 -65.5 -55.5t-63.5 -38.5zM41 27q20 -27 58 -35t78 -6t73 10t41 16q0 276 -4 547.5t-4 546.5q-4 18 -41 26.5t-77 7.5t-72 -12.5t-27 -33.5q0 -133 6 -267.5t9 -269.5t-5 -268t-35 -262zM92 29q25 137 30 269t1 263t-11.5 263t-5.5 270q41 -2 68 -5.5t68 -3.5 q0 -266 4 -528t4 -528h-158z" />
<glyph unicode="&#xed;" horiz-adv-x="395" d="M-16 1360q100 98 149 152.5t70.5 78t25 25.5t9.5 -2q8 -4 40.5 -21.5t66.5 -39t57.5 -44t13.5 -41.5q-14 -18 -56.5 -50t-89.5 -67.5t-89 -67.5t-56 -50q-8 -4 -32.5 11.5t-50.5 37t-44 44t-14 34.5zM25 1348q27 -20 46 -38t46 -38q10 14 46 44t77 62.5t76.5 62 t45.5 42.5q-29 16 -63.5 38.5t-65.5 55.5zM41 27q27 129 35 262t5 268t-9 269.5t-6 267.5q-4 23 27.5 34t71.5 12t77 -7.5t41 -26.5q0 -274 4 -546t4 -548q-8 -8 -41 -16t-73 -10t-78 6t-58 35zM92 29h158q0 266 -4 528t-4 528q-41 0 -68 3.5t-68 5.5q-2 -137 5.5 -269.5 t11.5 -263.5t-1 -263t-30 -269z" />
<glyph unicode="&#xee;" horiz-adv-x="458" d="M-54 1320q-3 -3 14 15.5t62.5 78t124.5 194.5q4 0 31 -1t58.5 -3t59.5 -8.5t38 -14.5l13 -17q13 -16 31.5 -40.5t40 -52t40 -51t31.5 -40.5l12 -16q6 -12 -7.5 -30.5t-34 -37t-44 -34t-37.5 -19.5t-30.5 11.5t-34 38t-34 47t-30.5 38.5q4 -2 -15.5 -27.5t-44 -56 t-47 -56.5t-26.5 -26q-29 29 -69 57.5t-83 41.5q-16 12 -19 9zM2 1343q29 -10 62.5 -34.5t56.5 -44.5q6 6 25.5 33.5t40 57t39 53.5t24.5 24q12 0 27.5 -21.5t33 -47.5t34.5 -49.5t34 -29.5q23 8 47.5 24.5t40.5 47.5q-2 0 -28.5 30.5t-57.5 68.5t-55.5 71t-22.5 33 q2 2 -4 2l2 -2q-4 -2 -25.5 -1t-46 1h-45t-22.5 -5q-55 -80 -87 -121.5t-47.5 -61t-19.5 -22.5t-6 -6zM104 27q20 -27 58.5 -35t78.5 -6t72.5 10t40.5 16q0 276 -4 547.5t-4 546.5q-4 18 -41 26.5t-77 7.5t-71.5 -12.5t-27.5 -33.5q0 -133 6 -267.5t9 -269.5t-5 -268 t-35 -262zM156 29q25 137 29.5 269t0.5 263t-11 263t-5 270q41 -2 67.5 -5.5t67.5 -3.5q0 -266 4 -528t4 -528h-157z" />
<glyph unicode="&#xef;" horiz-adv-x="540" d="M6 1305q2 47 6 94t6 94q2 4 35 6t72 0t71.5 -9t36.5 -20q4 -68 5.5 -106.5t-0.5 -59t-7.5 -26.5t-13.5 -6q-45 -4 -93 0t-93 2q-8 2 -16.5 11t-8.5 20zM39 1309q35 4 80 0t80 0l-6 137q-33 2 -68 5t-68 5q-2 -35 -9 -74t-9 -73zM150 27q27 129 35 262t4.5 268t-9.5 269.5 t-6 267.5q-4 23 27.5 34t71.5 12t77 -7.5t41 -26.5q0 -274 4 -546t4 -548q-8 -8 -40.5 -16t-72.5 -10t-78 6t-58 35zM201 29h157q0 266 -4 528t-4 528q-41 0 -67.5 3.5t-67.5 5.5q-2 -137 5 -269.5t11.5 -263.5t-1 -263t-29.5 -269zM313 1305q2 47 6.5 94t6.5 94q2 4 34.5 6 t71.5 0t72 -9t37 -20q4 -68 5 -106.5t-1 -59t-7.5 -26.5t-13.5 -6q-45 -4 -93 0t-93 2q-8 2 -16.5 11t-8.5 20zM346 1309q35 4 80 0t80 0l-6 137q-33 2 -67.5 5t-67.5 5q-2 -35 -9.5 -74t-9.5 -73z" />
<glyph unicode="&#xf0;" horiz-adv-x="1189" d="M4 381q-20 135 27 257t142 211t226 133t281 22q-20 29 -43 63.5t-49 75.5q-53 -49 -96 -85t-58 -44q-10 -6 -27.5 20.5t-36 63.5t-33.5 70.5t-18 43.5q-2 4 2.5 12.5t19.5 23t44 37t78 56.5l-158 248q-2 2 0 7.5t17.5 15.5t47 30.5t91.5 55.5q0 2 14 -14.5t39 -47 t56.5 -74.5t66.5 -98q37 27 80 54.5t92 62.5q12 2 31.5 -20.5t36 -51t27.5 -55.5t7 -33q-16 -8 -60 -46t-101 -89l221 -358l13 -20q13 -19 32.5 -48t41 -62.5t40.5 -62.5q25 -37 41 -95t17 -127t-15.5 -141.5t-58.5 -138t-110.5 -119.5t-170.5 -83q-131 -39 -262 -35 t-242 48t-188.5 129t-104.5 208zM49 381q20 -115 105.5 -192.5t200 -116.5t240.5 -37t226 45q92 39 149.5 91t90.5 114.5t45 133t12 144.5q-4 39 -36.5 103.5t-89 155.5t-132.5 207t-168 257q12 18 41 42t58.5 45.5t54 39t28.5 23.5q-16 29 -29.5 51t-29.5 51l-197 -139 q-18 31 -41.5 65.5t-47 67.5t-43 61.5t-29.5 46.5q0 2 -16.5 -6t-35 -19t-34 -22.5t-15.5 -13.5l164 -252l-164 -117q10 -31 35 -70.5t37 -70.5q2 -4 28.5 18.5t57.5 50t57.5 50t26.5 18.5l168 -258q-176 41 -317.5 5.5t-235.5 -120.5t-138 -205t-26 -247zM185.5 515 q11.5 85 55.5 149.5t112.5 106.5t150.5 56.5t169 1t169 -58.5q111 -84 129 -200.5t-37 -227.5q-35 -63 -96.5 -108.5t-134 -69t-151.5 -26.5t-148.5 17.5t-123 62.5t-73.5 110q-33 102 -21.5 187zM231 422q14 -80 61.5 -133t112 -81t139 -31t144.5 16.5t124 62.5t81 109 q41 106 31.5 186t-53.5 133t-112.5 80t-145 29t-151.5 -20.5t-132.5 -70t-86 -118t-12.5 -162.5z" />
<glyph unicode="&#xf1;" horiz-adv-x="1259" d="M33 25q-4 264 3 538.5t7 542.5q-2 27 29.5 37t72.5 8t78 -11.5t45 -21.5q-2 -51 -2 -90t-6 -88q20 55 74.5 96t126 65.5t153.5 32t159 -4t142.5 -42t104.5 -81.5q47 -63 75.5 -162t44 -210.5t19.5 -224t3 -203.5t-4 -150.5t-3 -63.5l-14 6h-166q-6 94 -8 213t-12.5 240.5 t-37 234.5t-83.5 193q-23 33 -67 45t-93 11t-94 -14.5t-68 -33.5q-80 -66 -129 -138.5t-76.5 -147.5t-38 -151.5t-13.5 -152.5t-3 -147.5t-6 -137.5q-16 0 -42 -5t-54.5 -7t-59.5 2t-57 23zM77 574.5q-3 -261.5 1 -527.5q29 -10 60.5 -7t64.5 7q4 106 8 177t7 121t8 84 t12.5 64.5t17.5 66.5t27 87q14 47 46.5 99.5t78 99.5t101.5 81t116.5 45t124 -7.5t122.5 -77.5q57 -78 86 -182.5t39.5 -219t9.5 -230.5t-3 -216h108q0 57 2 136t1 168t-6 181t-19.5 178t-38 158t-62.5 119q-55 66 -143 95.5t-185.5 25.5t-188.5 -40t-150 -97 q-23 -23 -40.5 -51.5t-29.5 -51t-18.5 -34t-6.5 -1.5q0 43 -1 76t-3 63.5t-2 63.5t2 74q-8 4 -26.5 4h-40t-41 -1t-31.5 -1q-4 -268 -7 -529.5zM115 1423q0 12 6 19q8 31 46 58.5t84 49t92 34.5t73 13t59.5 -13t50.5 -23q66 -31 106 -62t71.5 -46t65.5 -8t87 48q18 16 44 42 t34 50q4 10 10 12q4 8 14.5 10.5t20.5 -5.5q6 -14 26.5 -33t42 -39.5t38 -40t12.5 -35.5t-27.5 -49t-97.5 -96q-88 -78 -155.5 -93.5t-128 4t-120 60.5t-131.5 80q-16 8 -44.5 3t-57.5 -19.5t-53.5 -33t-32.5 -34.5q-14 -10 -27 8q-16 10 -33.5 27.5t-33 37t-26.5 40 t-15 34.5zM158 1423q10 -25 32.5 -47t42.5 -45q8 8 30 23.5t48.5 28t54 19.5t50.5 1q55 -14 98 -40t80 -49.5t72.5 -42t76.5 -20.5t90.5 17.5t114.5 72.5q8 8 24.5 22.5t32 32t29 34t17.5 26.5l-86 96q-14 -27 -38 -51t-46 -41q-74 -55 -119 -58t-86 20.5t-94.5 62.5 t-143.5 69q-18 6 -62 -5t-91 -30.5t-84 -45.5t-41 -46q-2 -2 -2 -4z" />
<glyph unicode="&#xf2;" horiz-adv-x="1366" d="M18 614q-8 -102 16.5 -193t78 -168t136.5 -135.5t191 -90.5q82 -29 177.5 -28t189.5 25.5t184 71.5t162 110.5t121 141.5t61 162q16 117 -32 228.5t-135 197.5t-198 138t-220 50q-145 12 -273.5 -16.5t-227.5 -94t-160.5 -167t-70.5 -232.5zM59 606q12 154 98.5 258.5 t208 160.5t262 66.5t265.5 -22.5q84 -27 160.5 -86t134 -136t87 -163t19.5 -164q-12 -80 -59 -152.5t-117.5 -132t-158 -104.5t-175.5 -68.5t-173 -24.5t-150 25q-225 94 -321.5 223.5t-80.5 319.5zM198.5 529.5q0.5 -93.5 45.5 -185.5q39 -76 112.5 -119t164.5 -55t188.5 1 t183.5 52t149.5 98.5t87.5 137.5q41 133 -5 239.5t-136 180.5q-47 47 -116.5 70.5t-147.5 25.5t-158 -15.5t-148.5 -52.5t-120 -85t-71.5 -111q-29 -88 -28.5 -181.5zM243 530.5q-3 47.5 2 90.5t21 71q49 88 133 150.5t181.5 87t199 6.5t185.5 -90q68 -55 105.5 -110.5 t37.5 -151.5q0 -100 -51 -176t-131 -125.5t-176.5 -69.5t-188.5 -11t-168 50t-112 113q-16 31 -25.5 74.5t-12.5 91zM408 1548q-10 18 13 41t57 44.5t67 39t41 21.5q6 4 18 -2t51 -43t117 -117t215 -225q4 -12 -14.5 -35t-44 -44.5t-50 -36.5t-32.5 -11q-10 12 -43 40.5 t-79 65.5t-97.5 78t-97.5 78t-79.5 65.5t-41.5 40.5zM461 1563q6 -8 35.5 -35t71.5 -61.5t89.5 -74.5t88 -75t70.5 -61.5t38 -36.5q27 20 46.5 37.5t45.5 37.5l-356 363q-29 -16 -65 -47t-64 -47z" />
<glyph unicode="&#xf3;" horiz-adv-x="1366" d="M18 614q8 131 70 232.5t161 167t227.5 94t273.5 16.5q109 2 220 -50t198 -138t135.5 -197.5t31.5 -228.5q-12 -84 -61 -162t-121 -141.5t-162 -110.5t-184 -71.5t-189.5 -25.5t-177.5 28q-109 33 -191.5 91t-136 135t-78 168t-16.5 193zM59 606q-16 -190 80.5 -319 t321.5 -224q66 -27 150.5 -25.5t172.5 25t175.5 68.5t158 104.5t117.5 132t59 152.5q10 78 -19.5 164t-87 163t-134 136t-160.5 86q-125 33 -265.5 22.5t-262 -66.5t-207.5 -160.5t-99 -258.5zM198.5 529.5q-0.5 93.5 28.5 181.5q20 61 71.5 111t120 85t148.5 52.5t158 15.5 t147.5 -25.5t116.5 -70.5q90 -74 136 -180.5t5 -239.5q-25 -78 -88 -137.5t-149 -98.5t-183.5 -52t-188.5 -1t-164.5 55t-112.5 119q-45 92 -45.5 185.5zM243 530.5q3 -47.5 12 -91.5t26 -74q37 -72 112.5 -113t167.5 -50t188.5 11t176.5 69.5t131 125t51 176.5 q0 96 -37.5 151.5t-105.5 110.5q-84 72 -185.5 90t-199 -6.5t-181.5 -87t-133 -150.5q-16 -29 -21 -71.5t-2 -90zM391 1307q137 145 215 225t117 117t51.5 43t18.5 2q8 -4 40.5 -21.5t66.5 -39t57.5 -44t13.5 -41.5q-10 -12 -43 -40.5t-79 -65.5t-97.5 -78t-97.5 -78 t-79.5 -65.5t-42.5 -40.5q-8 -4 -32.5 11t-50 36.5t-44 44t-14.5 35.5zM432 1294q27 -20 46 -37.5t46 -37.5q6 10 37 36.5t72 61.5t88 75t89 74.5t71.5 61t36.5 35.5q-29 16 -65 46.5t-65 47.5z" />
<glyph unicode="&#xf4;" horiz-adv-x="1366" d="M18 614q-8 -102 16.5 -193t78 -168t136.5 -135.5t191 -90.5q82 -29 177.5 -28t189.5 25.5t184 71.5t162 110.5t121 141.5t61 162q16 117 -32 228.5t-135 197.5t-198 138t-220 50q-145 12 -273.5 -16.5t-227.5 -94t-160.5 -167t-70.5 -232.5zM59 606q12 154 98.5 258.5 t208 160.5t262 66.5t265.5 -22.5q84 -27 160.5 -86t134 -136t87 -163t19.5 -164q-12 -80 -59 -152.5t-117.5 -132t-158 -104.5t-175.5 -68.5t-173 -24.5t-150 25q-225 94 -321.5 223.5t-80.5 319.5zM198.5 529.5q0.5 -93.5 45.5 -185.5q39 -76 112.5 -119t164.5 -55t188.5 1 t183.5 52t149.5 98.5t87.5 137.5q41 133 -5 239.5t-136 180.5q-47 47 -116.5 70.5t-147.5 25.5t-158 -15.5t-148.5 -52.5t-120 -85t-71.5 -111q-29 -88 -28.5 -181.5zM238 1247q-16 12 4 37t66 77t113.5 139t147.5 222q4 0 31 -1t58.5 -3t59 -8t38.5 -14l22 -30 q23 -30 56.5 -75t72.5 -96t73 -95t56 -74l21 -30q6 -12 -7.5 -30.5t-34 -37t-44 -33.5t-37.5 -19q-10 -4 -30.5 16t-46.5 52t-54.5 72t-54 75.5t-46 64.5t-30.5 37q2 -2 -17.5 -27.5t-49.5 -63.5t-66.5 -82t-69.5 -82t-55.5 -63.5t-24.5 -25.5q-29 29 -68.5 57.5t-82.5 40.5 zM243 530.5q-3 47.5 2 90.5t21 71q49 88 133 150.5t181.5 87t199 6.5t185.5 -90q68 -55 105.5 -110.5t37.5 -151.5q0 -100 -51 -176t-131 -125.5t-176.5 -69.5t-188.5 -11t-168 50t-112 113q-16 31 -25.5 74.5t-12.5 91zM274 1280q29 -10 63 -34.5t56 -45.5q4 4 25.5 32 t51.5 66.5t63.5 81.5t63.5 80t50.5 61.5t24.5 24.5q8 0 27.5 -23.5t45 -58t54 -76.5t55.5 -79t48.5 -62.5t31.5 -29.5q23 8 47.5 24t40.5 47q-2 0 -24.5 27.5t-55.5 71t-72 93.5t-71.5 93t-54 71.5t-19.5 28.5q2 2 -4 2l2 -2q-4 -2 -25.5 -1t-46 1h-45t-22.5 -4 q-104 -147 -165 -226t-92.5 -115t-41 -41t-11.5 -7z" />
<glyph unicode="&#xf5;" horiz-adv-x="1366" d="M18 614q8 131 70 232.5t161 167t227.5 94t273.5 16.5q109 2 220 -50t198 -138t135.5 -197.5t31.5 -228.5q-12 -84 -61 -162t-121 -141.5t-162 -110.5t-184 -71.5t-189.5 -25.5t-177.5 28q-109 33 -191.5 91t-136 135t-78 168t-16.5 193zM59 606q-16 -190 80.5 -319 t321.5 -224q66 -27 150.5 -25.5t172.5 25t175.5 68.5t158 104.5t117.5 132t59 152.5q10 78 -19.5 164t-87 163t-134 136t-160.5 86q-125 33 -265.5 22.5t-262 -66.5t-207.5 -160.5t-99 -258.5zM186 1423q0 12 7 19q8 31 45.5 58.5t84 49t92.5 34.5t72 13q27 0 60 -13t51 -23 q66 -31 105.5 -62t71.5 -46t65.5 -8t87.5 48q18 16 43.5 42t34.5 50q4 10 10 12q4 8 14 10.5t21 -5.5q6 -14 26.5 -33t42 -39.5t38 -40t11.5 -35.5q-4 -16 -27.5 -49t-97.5 -96q-88 -78 -155.5 -93.5t-128 4t-119.5 60.5t-131 80q-16 8 -45 3t-57.5 -19.5t-53 -33 t-32.5 -34.5q-14 -10 -27 8q-16 10 -33.5 27.5t-33 37t-27 40t-15.5 34.5zM198.5 529.5q-0.5 93.5 28.5 181.5q20 61 71.5 111t120 85t148.5 52.5t158 15.5t147.5 -25.5t116.5 -70.5q90 -74 136 -180.5t5 -239.5q-25 -78 -88 -137.5t-149 -98.5t-183.5 -52t-188.5 -1 t-164.5 55t-112.5 119q-45 92 -45.5 185.5zM229 1423q10 -25 33 -47t43 -45q8 8 29.5 23.5t48.5 28t54.5 19.5t49.5 1q55 -14 98.5 -40t80 -49.5t72.5 -42t77 -20.5t90 17.5t115 72.5q8 8 24.5 22.5t32 32t28.5 34t17 26.5l-86 96q-14 -27 -37.5 -51t-46.5 -41 q-74 -55 -119 -58t-85.5 20.5t-94 62.5t-143.5 69q-18 6 -62.5 -5t-91.5 -30.5t-84 -45.5t-41 -46q-2 -2 -2 -4zM243 530.5q3 -47.5 12 -91.5t26 -74q37 -72 112.5 -113t167.5 -50t188.5 11t176.5 69.5t131 125t51 176.5q0 96 -37.5 151.5t-105.5 110.5q-84 72 -185.5 90 t-199 -6.5t-181.5 -87t-133 -150.5q-16 -29 -21 -71.5t-2 -90z" />
<glyph unicode="&#xf6;" horiz-adv-x="1366" d="M18 614q8 131 70 232.5t161 167t227.5 94t273.5 16.5q109 2 220 -50t198 -138t135.5 -197.5t31.5 -228.5q-12 -84 -61 -162t-121 -141.5t-162 -110.5t-184 -71.5t-189.5 -25.5t-177.5 28q-109 33 -191.5 91t-136 135t-78 168t-16.5 193zM59 606q-16 -190 80.5 -319 t321.5 -224q66 -27 150.5 -25.5t172.5 25t175.5 68.5t158 104.5t117.5 132t59 152.5q10 78 -19.5 164t-87 163t-134 136t-160.5 86q-125 33 -265.5 22.5t-262 -66.5t-207.5 -160.5t-99 -258.5zM198.5 529.5q-0.5 93.5 28.5 181.5q20 61 71.5 111t120 85t148.5 52.5t158 15.5 t147.5 -25.5t116.5 -70.5q90 -74 136 -180.5t5 -239.5q-25 -78 -88 -137.5t-149 -98.5t-183.5 -52t-188.5 -1t-164.5 55t-112.5 119q-45 92 -45.5 185.5zM243 530.5q3 -47.5 12 -91.5t26 -74q37 -72 112.5 -113t167.5 -50t188.5 11t176.5 69.5t131 125t51 176.5 q0 96 -37.5 151.5t-105.5 110.5q-84 72 -185.5 90t-199 -6.5t-181.5 -87t-133 -150.5q-16 -29 -21 -71.5t-2 -90zM319 1305q2 47 6.5 94t6.5 94q2 4 34.5 6t71.5 0t72 -9t37 -20q4 -68 5 -106.5t-1 -59t-7 -26.5t-14 -6q-45 -4 -93 0t-93 2q-8 2 -16.5 11t-8.5 20zM352 1309 q35 4 80 0t80 0l-6 137q-33 2 -67.5 5t-67.5 5q-2 -35 -9.5 -74t-9.5 -73zM791 1305q2 47 6 94t6 94q2 4 34.5 6t71.5 0t72 -9t37 -20q4 -68 5 -106.5t-1 -59t-7 -26.5t-14 -6q-45 -4 -93 0t-93 2q-8 2 -16 11t-8 20zM823 1309q35 4 80 0t80 0l-6 137q-33 2 -67.5 5t-67.5 5 q-2 -35 -9.5 -74t-9.5 -73z" />
<glyph unicode="&#xf7;" horiz-adv-x="1024" d="M-2 647q0 57 5 97t5 96q0 4 2 6q0 12 19 16q137 -2 232 -2h182h182.5t230.5 -2h4q4 -2 6 -2t4 -2l2 -2l5 -4q2 -4 2 -14l6 -15l-2 -180q-2 0 -42 1t-106.5 3t-153.5 3t-180.5 2t-186.5 0t-175 -3q-8 -16 -22.5 -16t-18.5 18zM39 686h145t173 -1t175 -3t155 -3t112 -2 l43 -1l2 141q-88 2 -157 2h-128h-112.5h-113h-128t-156.5 2q0 -41 -3 -67.5t-7 -67.5zM330 406q2 47 6 94t6 94q6 12 19.5 14t19.5 -10q33 -2 72 -6t73 -4q8 4 17.5 1t13.5 -18v-165q8 -10 4 -20.5t-20 -12.5q-45 -4 -93.5 0t-93.5 2q-10 2 -14 10q-10 6 -10 21zM336 944 q2 47 6 94t6 95q6 12 19.5 14t19.5 -10q33 -2 72 -6.5t73 -4.5q8 4 17.5 1t13.5 -17v-166q8 -10 4 -20.5t-20 -12.5q-45 -4 -93.5 0t-93.5 2q-10 2 -14 11q-10 6 -10 20zM362 410q35 4 80 0t80 0l-6 137q-33 2 -67.5 5t-67.5 5q-2 -35 -9 -74t-10 -73zM369 948q35 4 80 0 t79 0l-6 137q-33 2 -67.5 5.5t-67.5 5.5q-2 -35 -9 -74t-9 -74z" />
<glyph unicode="&#xf8;" horiz-adv-x="1366" d="M18 614q14 160 99.5 272.5t209.5 176t271 75t289 -33.5q31 76 54.5 118t39.5 62.5t28.5 24.5t22.5 2q12 -4 35 -16.5t46.5 -27t42 -29.5t22.5 -24q10 -10 -1.5 -38.5t-31 -60.5t-39 -62.5t-27.5 -42.5q61 -43 112.5 -100.5t87.5 -122t51.5 -135t4.5 -142.5 q-14 -82 -60 -158t-115.5 -138t-157 -110.5t-179.5 -75t-185 -30.5t-175 20q-6 -8 -17.5 -29.5t-23.5 -44t-24.5 -41t-20.5 -18.5q-2 0 -6 2t-22.5 11.5t-55.5 26.5t-105 50q-33 33 70 138q-129 86 -191.5 216t-48.5 285zM59 606q-6 -74 13.5 -149.5t56.5 -141t87 -114.5 t106 -70q-6 -10 -22.5 -39t-72.5 -88l140 -76l12 20q12 21 27.5 46.5t27.5 47t12 26.5q57 -29 140.5 -30t174.5 21.5t181 65.5t165 103.5t126 134t61 157.5q8 57 -7 119.5t-50 126t-88 123t-121 112.5q41 66 66.5 111t44.5 80q-37 20 -59.5 34.5t-57.5 37.5 q-45 -72 -68.5 -113t-34 -62.5t-12.5 -27.5t-4 -6q-72 31 -162 37t-183 -10.5t-182 -55.5t-159 -99.5t-113 -140t-45 -180.5zM199 529.5q0 93.5 28 181.5q25 78 102 135t171 91t188 40t156 -19q-47 -82 -104.5 -178t-120 -196.5t-125 -195.5t-115.5 -175q-59 35 -89 65.5 t-46 65.5q-45 92 -45 185.5zM243 530.5q3 -47.5 12.5 -91t25.5 -74.5q27 -57 86 -97q100 150 210.5 325t208.5 341q-74 16 -150.5 6t-146 -43t-128 -85t-95.5 -120q-16 -29 -21 -71.5t-2 -90zM508 172q6 12 38 63.5t77 122t97 153.5t101 160t87 138t57 90 q111 -94 158.5 -202.5t6.5 -237.5q-23 -74 -84 -132.5t-145 -96t-186.5 -53t-206.5 -5.5zM573 201q90 -6 185.5 15.5t173.5 70.5t127 124t49 173q0 45 -9 80.5t-25.5 65.5t-42 55.5t-56.5 52.5q-98 -154 -203.5 -320t-198.5 -317z" />
<glyph unicode="&#xf9;" horiz-adv-x="1193" d="M10 780q-6 -180 4 -354q4 -117 45 -203t105.5 -140t147.5 -75.5t174.5 -8.5t183.5 62.5t176 135.5q-2 -29 -5 -62t-3 -61.5t5 -48t17 -23.5q12 0 45 -2t67 -4t61.5 0t31.5 12q4 57 3 155.5t-3 212t-5 233.5t-5 224.5t-1 180.5t5 102q-6 23 -25 19h-2q-47 0 -103.5 -4.5 t-103.5 -4.5q4 -176 0 -314t-24.5 -243.5t-62.5 -178.5t-113 -116q-137 -84 -218 -75.5t-123 74t-53.5 173t-9.5 225t9.5 229.5t0.5 185l2 2q6 16 -23.5 22.5t-69.5 6.5t-76.5 -2t-43.5 -2q-4 -152 -10 -332zM51 749.5q6 155.5 10 321.5q33 0 65 1t64 3q2 -47 -4 -136 t-10 -194.5t1 -214t29.5 -194.5t75 -135t136.5 -35q160 25 253 94.5t139 184t54 275.5t0 370q35 0 77 2t77 2l8 -1049q-39 -8 -73.5 -6t-69.5 4q0 53 2 108.5t2 110.5q-4 16 -19.5 20.5t-25.5 -12.5q-59 -84 -139 -139t-164 -78.5t-167 -13.5t-150.5 56t-113 129t-53.5 204 q-10 166 -4 321.5zM229 1548q-10 18 13.5 41t57.5 44.5t67 39t41 21.5q6 4 18 -2t51 -43t117 -117t215 -225q4 -12 -14.5 -35t-44 -44.5t-50 -36.5t-32.5 -11q-10 12 -43 40.5t-79 65.5t-97.5 78t-97.5 78t-79.5 65.5t-42.5 40.5zM283 1563q6 -8 35.5 -35t71.5 -61.5 t89 -74.5t88 -75t71 -61.5t38 -36.5q27 20 46 37.5t46 37.5l-356 363q-29 -16 -65 -47t-64 -47z" />
<glyph unicode="&#xfa;" horiz-adv-x="1193" d="M10 780.5q6 180.5 10 331.5q6 0 43 2t77 2t70 -6t23 -23l-2 -2q6 -74 -1 -185.5t-9 -229t9.5 -225t53.5 -173t122.5 -74t218.5 75.5q72 43 113.5 116t62 178.5t24.5 243.5t0 314q47 0 103.5 4.5t103.5 4.5h2q18 4 25 -19q-4 -27 -5 -102.5t1 -180t5 -224.5t5 -233.5 t3 -211.5t-3 -156q-4 -10 -31.5 -12t-61.5 0t-67 4t-45 2q-12 4 -17 23.5t-5 48t3 61.5t5 62q-84 -86 -176 -135.5t-183.5 -62.5t-174.5 8.5t-147.5 75.5t-105.5 140t-45 203q-10 174 -4 354.5zM51 749.5q-6 -155.5 4 -321.5q8 -121 53.5 -204t113 -129t150.5 -56t167 13.5 t163.5 78.5t139.5 139q10 16 25.5 12.5t19.5 -20.5q0 -55 -2 -110.5t-2 -108.5q35 -2 69.5 -4t73.5 6l-8 1049q-35 0 -77 -2t-77 -2q8 -209 0 -370t-54 -275.5t-139 -184.5t-253 -94q-86 -14 -136.5 35t-75 135t-29.5 194.5t-1 214t10.5 194.5t3.5 136q-33 -2 -64.5 -3 t-64.5 -1q-4 -166 -10 -321.5zM246 1307q137 145 215 225t116.5 117t51 43t18.5 2q8 -4 41 -21.5t66.5 -39t57.5 -44t13 -41.5q-10 -12 -42.5 -40.5t-79 -65.5t-97.5 -78t-97 -78t-80 -65.5t-42 -40.5q-8 -4 -32.5 11t-50 36.5t-44 44t-14.5 35.5zM287 1294q27 -20 46 -37.5 t46 -37.5q6 10 36.5 36.5t71.5 61.5t88.5 75t89.5 74.5t71.5 61t35.5 35.5q-29 16 -64.5 46.5t-64.5 47.5z" />
</font>
</defs>
</svg>
